G04 (created by PCBnew (20090216-final)) date Mon 24 Jan 2011 02:34:34 PM PST*
G01*
G70*
G90*
%MOIN*%
G04 Gerber Fmt 3.4, Leading zero omitted, Abs format*
%FSLAX34Y34*%
G04 APERTURE LIST*
%ADD10C,0.012000*%
%ADD11C,0.015000*%
%ADD12C,0.120000*%
%ADD13R,0.065000X0.065000*%
%ADD14C,0.065000*%
%ADD15R,0.070000X0.070000*%
%ADD16C,0.070000*%
%ADD17C,0.130000*%
%ADD18R,0.070000X0.060000*%
%ADD19C,0.025000*%
%ADD20C,0.045000*%
%ADD21C,0.008000*%
%ADD22C,0.020000*%
%ADD23C,0.010000*%
G04 APERTURE END LIST*
G54D10*
X15881Y-36069D02*
X15880Y-36536D01*
X15880Y-36536D02*
X15614Y-36535D01*
X15614Y-36535D02*
X15525Y-36468D01*
X15525Y-36468D02*
X15526Y-36135D01*
X15526Y-36135D02*
X15437Y-36068D01*
X15437Y-36068D02*
X15170Y-36067D01*
X15170Y-36067D02*
X15081Y-36134D01*
X15081Y-36134D02*
X15080Y-36467D01*
X15080Y-36467D02*
X15169Y-36534D01*
X15882Y-35550D02*
X15794Y-35550D01*
X15883Y-34964D02*
X15084Y-34495D01*
X15795Y-34964D02*
X15172Y-34962D01*
X15172Y-34962D02*
X15083Y-34895D01*
X15083Y-34895D02*
X15084Y-34562D01*
X15084Y-34562D02*
X15173Y-34495D01*
X15173Y-34495D02*
X15796Y-34497D01*
X15796Y-34497D02*
X15884Y-34564D01*
X15884Y-34564D02*
X15883Y-34897D01*
X15883Y-34897D02*
X15795Y-34964D01*
X15884Y-34178D02*
X15085Y-33709D01*
X15796Y-34178D02*
X15173Y-34176D01*
X15173Y-34176D02*
X15085Y-34109D01*
X15085Y-34109D02*
X15085Y-33776D01*
X15085Y-33776D02*
X15174Y-33709D01*
X15174Y-33709D02*
X15797Y-33711D01*
X15797Y-33711D02*
X15885Y-33778D01*
X15885Y-33778D02*
X15885Y-34111D01*
X15885Y-34111D02*
X15796Y-34178D01*
X15886Y-33392D02*
X15087Y-32923D01*
X15798Y-33392D02*
X15175Y-33390D01*
X15175Y-33390D02*
X15086Y-33323D01*
X15086Y-33323D02*
X15086Y-32990D01*
X15086Y-32990D02*
X15176Y-32923D01*
X15176Y-32923D02*
X15799Y-32925D01*
X15799Y-32925D02*
X15886Y-32992D01*
X15886Y-32992D02*
X15886Y-33325D01*
X15886Y-33325D02*
X15798Y-33392D01*
X15887Y-32606D02*
X15088Y-32137D01*
X15799Y-32606D02*
X15176Y-32604D01*
X15176Y-32604D02*
X15087Y-32537D01*
X15087Y-32537D02*
X15088Y-32204D01*
X15088Y-32204D02*
X15177Y-32137D01*
X15177Y-32137D02*
X15800Y-32139D01*
X15800Y-32139D02*
X15888Y-32206D01*
X15888Y-32206D02*
X15887Y-32539D01*
X15887Y-32539D02*
X15799Y-32606D01*
G54D11*
X16170Y-43850D02*
X16170Y-23850D01*
X18120Y-43850D02*
X14800Y-43850D01*
X18120Y-23850D02*
X14800Y-23850D01*
X16170Y-23850D02*
X16400Y-24293D01*
X16170Y-23850D02*
X15940Y-24293D01*
X16170Y-43850D02*
X16400Y-43407D01*
X16170Y-43850D02*
X15940Y-43407D01*
G54D10*
X55502Y-49075D02*
X55435Y-48987D01*
X55435Y-48987D02*
X55435Y-48720D01*
X55435Y-48720D02*
X55502Y-48631D01*
X55502Y-48631D02*
X55835Y-48631D01*
X55835Y-48631D02*
X55902Y-48542D01*
X55902Y-48542D02*
X55902Y-48364D01*
X55902Y-48364D02*
X55835Y-48275D01*
X55835Y-48275D02*
X55502Y-48275D01*
X55502Y-48275D02*
X55435Y-48364D01*
X55435Y-48364D02*
X55435Y-48542D01*
X55435Y-48542D02*
X55502Y-48631D01*
X55835Y-48631D02*
X55902Y-48720D01*
X55902Y-48720D02*
X55902Y-48987D01*
X55902Y-48987D02*
X55835Y-49075D01*
X55835Y-49075D02*
X55502Y-49075D01*
X56421Y-49075D02*
X56421Y-48987D01*
X57007Y-49075D02*
X57474Y-48275D01*
X57007Y-48987D02*
X57007Y-48364D01*
X57007Y-48364D02*
X57074Y-48275D01*
X57074Y-48275D02*
X57407Y-48275D01*
X57407Y-48275D02*
X57474Y-48364D01*
X57474Y-48364D02*
X57474Y-48987D01*
X57474Y-48987D02*
X57407Y-49075D01*
X57407Y-49075D02*
X57074Y-49075D01*
X57074Y-49075D02*
X57007Y-48987D01*
X57793Y-49075D02*
X58260Y-48275D01*
X57793Y-48987D02*
X57793Y-48364D01*
X57793Y-48364D02*
X57860Y-48275D01*
X57860Y-48275D02*
X58193Y-48275D01*
X58193Y-48275D02*
X58260Y-48364D01*
X58260Y-48364D02*
X58260Y-48987D01*
X58260Y-48987D02*
X58193Y-49075D01*
X58193Y-49075D02*
X57860Y-49075D01*
X57860Y-49075D02*
X57793Y-48987D01*
X58579Y-49075D02*
X59046Y-48275D01*
X58579Y-48987D02*
X58579Y-48364D01*
X58579Y-48364D02*
X58646Y-48275D01*
X58646Y-48275D02*
X58979Y-48275D01*
X58979Y-48275D02*
X59046Y-48364D01*
X59046Y-48364D02*
X59046Y-48987D01*
X59046Y-48987D02*
X58979Y-49075D01*
X58979Y-49075D02*
X58646Y-49075D01*
X58646Y-49075D02*
X58579Y-48987D01*
X59365Y-49075D02*
X59832Y-48275D01*
X59365Y-48987D02*
X59365Y-48364D01*
X59365Y-48364D02*
X59432Y-48275D01*
X59432Y-48275D02*
X59765Y-48275D01*
X59765Y-48275D02*
X59832Y-48364D01*
X59832Y-48364D02*
X59832Y-48987D01*
X59832Y-48987D02*
X59765Y-49075D01*
X59765Y-49075D02*
X59432Y-49075D01*
X59432Y-49075D02*
X59365Y-48987D01*
G54D11*
X18120Y-47990D02*
X98120Y-47990D01*
X18120Y-43850D02*
X18120Y-49360D01*
X98120Y-43850D02*
X98120Y-49360D01*
X98120Y-47990D02*
X97677Y-48220D01*
X98120Y-47990D02*
X97677Y-47760D01*
X18120Y-47990D02*
X18563Y-48220D01*
X18120Y-47990D02*
X18563Y-47760D01*
X98120Y-43850D02*
X98120Y-23850D01*
X18120Y-43850D02*
X98120Y-43850D01*
X18120Y-23850D02*
X98120Y-23850D01*
X18120Y-43850D02*
X18120Y-23850D01*
G54D12*
X24120Y-41350D03*
X20120Y-41350D03*
G54D13*
X22120Y-39350D03*
G54D14*
X23120Y-39350D03*
G54D12*
X24120Y-37350D03*
X32120Y-41350D03*
X28120Y-41350D03*
G54D13*
X30120Y-39350D03*
G54D14*
X31120Y-39350D03*
G54D12*
X32120Y-37350D03*
X40120Y-41350D03*
X36120Y-41350D03*
G54D13*
X38120Y-39350D03*
G54D14*
X39120Y-39350D03*
G54D12*
X40120Y-37350D03*
X48120Y-41350D03*
X44120Y-41350D03*
G54D13*
X46120Y-39350D03*
G54D14*
X47120Y-39350D03*
G54D12*
X48120Y-37350D03*
X56120Y-41350D03*
X52120Y-41350D03*
G54D13*
X54120Y-39350D03*
G54D14*
X55120Y-39350D03*
G54D12*
X56120Y-37350D03*
X64120Y-41350D03*
X60120Y-41350D03*
G54D13*
X62120Y-39350D03*
G54D14*
X63120Y-39350D03*
G54D12*
X64120Y-37350D03*
X72120Y-41350D03*
X68120Y-41350D03*
G54D13*
X70120Y-39350D03*
G54D14*
X71120Y-39350D03*
G54D12*
X72120Y-37350D03*
X80120Y-41350D03*
X76120Y-41350D03*
G54D13*
X78120Y-39350D03*
G54D14*
X79120Y-39350D03*
G54D12*
X80120Y-37350D03*
X88120Y-41350D03*
X84120Y-41350D03*
G54D13*
X86120Y-39350D03*
G54D14*
X87120Y-39350D03*
G54D12*
X88120Y-37350D03*
X96120Y-41350D03*
X92120Y-41350D03*
G54D13*
X94120Y-39350D03*
G54D14*
X95120Y-39350D03*
G54D12*
X96120Y-37350D03*
G54D15*
X79720Y-28850D03*
G54D16*
X79720Y-27850D03*
X80720Y-28850D03*
X80720Y-27850D03*
X81720Y-28850D03*
X81720Y-27850D03*
X82720Y-28850D03*
X82720Y-27850D03*
X83720Y-28850D03*
X83720Y-27850D03*
G54D15*
X36120Y-28850D03*
G54D16*
X36120Y-27850D03*
X37120Y-28850D03*
X37120Y-27850D03*
X38120Y-28850D03*
X38120Y-27850D03*
X39120Y-28850D03*
X39120Y-27850D03*
X40120Y-28850D03*
X40120Y-27850D03*
G54D17*
X90120Y-42850D03*
X90120Y-24850D03*
X26120Y-42850D03*
X26120Y-24850D03*
G54D18*
X53920Y-28850D03*
G54D16*
X53920Y-27850D03*
X54920Y-28850D03*
X54920Y-27850D03*
X55920Y-28850D03*
X55920Y-27850D03*
X56920Y-28850D03*
X56920Y-27850D03*
X57920Y-28850D03*
X57920Y-27850D03*
X58920Y-28850D03*
X58920Y-27850D03*
X59920Y-28850D03*
X59920Y-27850D03*
X60920Y-28850D03*
X60920Y-27850D03*
X61920Y-28850D03*
X61920Y-27850D03*
X62920Y-28850D03*
X62920Y-27850D03*
X63920Y-28850D03*
X63920Y-27850D03*
X64920Y-28850D03*
X64920Y-27850D03*
X65920Y-28850D03*
X65920Y-27850D03*
G54D18*
X19620Y-26350D03*
G54D16*
X20620Y-26350D03*
X21620Y-26350D03*
X22620Y-26350D03*
G54D19*
X54120Y-32210D03*
X55720Y-25250D03*
X43720Y-30070D03*
X55620Y-31650D03*
X54620Y-25650D03*
X57540Y-30910D03*
X57420Y-26400D03*
G54D20*
X20220Y-28850D03*
G54D19*
X56720Y-31350D03*
X56420Y-25950D03*
X37820Y-25650D03*
X37420Y-26150D03*
G54D21*
X22120Y-39350D02*
X22120Y-37070D01*
X26980Y-32210D02*
X54120Y-32210D01*
X22120Y-37070D02*
X26980Y-32210D01*
X83720Y-28850D02*
X84720Y-28850D01*
X83220Y-25250D02*
X55720Y-25250D01*
X85120Y-27150D02*
X83220Y-25250D01*
X85120Y-28450D02*
X85120Y-27150D01*
X84720Y-28850D02*
X85120Y-28450D01*
X63120Y-39350D02*
X63120Y-36360D01*
X71630Y-27850D02*
X79720Y-27850D01*
X63120Y-36360D02*
X71630Y-27850D01*
X55270Y-26950D02*
X46840Y-26950D01*
X46840Y-26950D02*
X43720Y-30070D01*
X83720Y-27850D02*
X83720Y-27250D01*
X54920Y-27250D02*
X54920Y-27850D01*
X55220Y-26950D02*
X54920Y-27250D01*
X58920Y-26950D02*
X55270Y-26950D01*
X55270Y-26950D02*
X55220Y-26950D01*
X60020Y-25850D02*
X58920Y-26950D01*
X82320Y-25850D02*
X72500Y-25850D01*
X72500Y-25850D02*
X71840Y-25850D01*
X71840Y-25850D02*
X60020Y-25850D01*
X83720Y-27250D02*
X82320Y-25850D01*
X37120Y-29650D02*
X37120Y-28850D01*
X39220Y-31750D02*
X37120Y-29650D01*
X55520Y-31750D02*
X39220Y-31750D01*
X55620Y-31650D02*
X55520Y-31750D01*
X37120Y-27850D02*
X37120Y-27450D01*
X38920Y-25650D02*
X54620Y-25650D01*
X37120Y-27450D02*
X38920Y-25650D01*
X39120Y-28850D02*
X39120Y-29580D01*
X40450Y-30910D02*
X57540Y-30910D01*
X39120Y-29580D02*
X40450Y-30910D01*
X39120Y-27850D02*
X39120Y-27220D01*
X39940Y-26400D02*
X57420Y-26400D01*
X39120Y-27220D02*
X39940Y-26400D01*
X80720Y-28850D02*
X80720Y-29960D01*
X70120Y-37280D02*
X70120Y-39350D01*
X74000Y-33400D02*
X70120Y-37280D01*
X77280Y-33400D02*
X74000Y-33400D01*
X80720Y-29960D02*
X80215Y-30465D01*
X80215Y-30465D02*
X77280Y-33400D01*
X81720Y-28850D02*
X81720Y-34950D01*
X81720Y-34950D02*
X86120Y-39350D01*
X81720Y-27850D02*
X81720Y-27880D01*
X89220Y-34450D02*
X94120Y-39350D01*
X85890Y-34450D02*
X89220Y-34450D01*
X82220Y-30780D02*
X85890Y-34450D01*
X82220Y-28380D02*
X82220Y-30780D01*
X81720Y-27880D02*
X82220Y-28380D01*
X82720Y-27850D02*
X82720Y-27350D01*
X62320Y-26450D02*
X60920Y-27850D01*
X81820Y-26450D02*
X62320Y-26450D01*
X82720Y-27350D02*
X81820Y-26450D01*
G54D22*
X19620Y-28250D02*
X19620Y-26350D01*
X20220Y-28850D02*
X19620Y-28250D01*
G54D21*
X38120Y-28850D02*
X38120Y-29550D01*
X39920Y-31350D02*
X56720Y-31350D01*
X38120Y-29550D02*
X39920Y-31350D01*
X38120Y-27850D02*
X38120Y-27450D01*
X39620Y-25950D02*
X56420Y-25950D01*
X38120Y-27450D02*
X39620Y-25950D01*
X21620Y-25850D02*
X21620Y-26350D01*
X21920Y-25550D02*
X21620Y-25850D01*
X23020Y-25550D02*
X21920Y-25550D01*
X23420Y-25950D02*
X23020Y-25550D01*
X27320Y-25950D02*
X23420Y-25950D01*
X27720Y-25550D02*
X27320Y-25950D01*
X37720Y-25550D02*
X27720Y-25550D01*
X37820Y-25650D02*
X37720Y-25550D01*
X29520Y-26350D02*
X22620Y-26350D01*
X29720Y-26150D02*
X29520Y-26350D01*
X37420Y-26150D02*
X29720Y-26150D01*
G54D23*
X90677Y-43565D02*
X97845Y-43565D01*
X26677Y-43565D02*
X89562Y-43565D01*
X18395Y-43565D02*
X25562Y-43565D01*
X90757Y-43485D02*
X97845Y-43485D01*
X26757Y-43485D02*
X89482Y-43485D01*
X18395Y-43485D02*
X25482Y-43485D01*
X90837Y-43405D02*
X97845Y-43405D01*
X26837Y-43405D02*
X89402Y-43405D01*
X18395Y-43405D02*
X25402Y-43405D01*
X90897Y-43325D02*
X97845Y-43325D01*
X26897Y-43325D02*
X89342Y-43325D01*
X18395Y-43325D02*
X25342Y-43325D01*
X90930Y-43245D02*
X97845Y-43245D01*
X26930Y-43245D02*
X89309Y-43245D01*
X18395Y-43245D02*
X25309Y-43245D01*
X90963Y-43165D02*
X97845Y-43165D01*
X26963Y-43165D02*
X89276Y-43165D01*
X18395Y-43165D02*
X25276Y-43165D01*
X90997Y-43085D02*
X97845Y-43085D01*
X26997Y-43085D02*
X89243Y-43085D01*
X18395Y-43085D02*
X25243Y-43085D01*
X91020Y-43005D02*
X97845Y-43005D01*
X27020Y-43005D02*
X89220Y-43005D01*
X18395Y-43005D02*
X25220Y-43005D01*
X91020Y-42925D02*
X97845Y-42925D01*
X27020Y-42925D02*
X89220Y-42925D01*
X18395Y-42925D02*
X25220Y-42925D01*
X91020Y-42845D02*
X97845Y-42845D01*
X27020Y-42845D02*
X89220Y-42845D01*
X18395Y-42845D02*
X25220Y-42845D01*
X91020Y-42765D02*
X97845Y-42765D01*
X27020Y-42765D02*
X89220Y-42765D01*
X18395Y-42765D02*
X25220Y-42765D01*
X91020Y-42685D02*
X97845Y-42685D01*
X27020Y-42685D02*
X89220Y-42685D01*
X18395Y-42685D02*
X25220Y-42685D01*
X90993Y-42605D02*
X97845Y-42605D01*
X26993Y-42605D02*
X89248Y-42605D01*
X18395Y-42605D02*
X25248Y-42605D01*
X90960Y-42525D02*
X97845Y-42525D01*
X26960Y-42525D02*
X89281Y-42525D01*
X18395Y-42525D02*
X25281Y-42525D01*
X90927Y-42445D02*
X97845Y-42445D01*
X26927Y-42445D02*
X89314Y-42445D01*
X18395Y-42445D02*
X25314Y-42445D01*
X90893Y-42365D02*
X97845Y-42365D01*
X26893Y-42365D02*
X89348Y-42365D01*
X18395Y-42365D02*
X25348Y-42365D01*
X90828Y-42285D02*
X97845Y-42285D01*
X26828Y-42285D02*
X89413Y-42285D01*
X18395Y-42285D02*
X25413Y-42285D01*
X90748Y-42205D02*
X97845Y-42205D01*
X26748Y-42205D02*
X89493Y-42205D01*
X18395Y-42205D02*
X25493Y-42205D01*
X96469Y-42125D02*
X97845Y-42125D01*
X92469Y-42125D02*
X95770Y-42125D01*
X90668Y-42125D02*
X91770Y-42125D01*
X88469Y-42125D02*
X89573Y-42125D01*
X84469Y-42125D02*
X87770Y-42125D01*
X80469Y-42125D02*
X83770Y-42125D01*
X76469Y-42125D02*
X79770Y-42125D01*
X72469Y-42125D02*
X75770Y-42125D01*
X68469Y-42125D02*
X71770Y-42125D01*
X64469Y-42125D02*
X67770Y-42125D01*
X60469Y-42125D02*
X63770Y-42125D01*
X56469Y-42125D02*
X59770Y-42125D01*
X52469Y-42125D02*
X55770Y-42125D01*
X48469Y-42125D02*
X51770Y-42125D01*
X44469Y-42125D02*
X47770Y-42125D01*
X40469Y-42125D02*
X43770Y-42125D01*
X36469Y-42125D02*
X39770Y-42125D01*
X32469Y-42125D02*
X35770Y-42125D01*
X28469Y-42125D02*
X31770Y-42125D01*
X26668Y-42125D02*
X27770Y-42125D01*
X24469Y-42125D02*
X25573Y-42125D01*
X20469Y-42125D02*
X23770Y-42125D01*
X18395Y-42125D02*
X19770Y-42125D01*
X96626Y-42045D02*
X97845Y-42045D01*
X92626Y-42045D02*
X95613Y-42045D01*
X90528Y-42045D02*
X91613Y-42045D01*
X88626Y-42045D02*
X89713Y-42045D01*
X84626Y-42045D02*
X87613Y-42045D01*
X80626Y-42045D02*
X83613Y-42045D01*
X76626Y-42045D02*
X79613Y-42045D01*
X72626Y-42045D02*
X75613Y-42045D01*
X68626Y-42045D02*
X71613Y-42045D01*
X64626Y-42045D02*
X67613Y-42045D01*
X60626Y-42045D02*
X63613Y-42045D01*
X56626Y-42045D02*
X59613Y-42045D01*
X52626Y-42045D02*
X55613Y-42045D01*
X48626Y-42045D02*
X51613Y-42045D01*
X44626Y-42045D02*
X47613Y-42045D01*
X40626Y-42045D02*
X43613Y-42045D01*
X36626Y-42045D02*
X39613Y-42045D01*
X32626Y-42045D02*
X35613Y-42045D01*
X28626Y-42045D02*
X31613Y-42045D01*
X26528Y-42045D02*
X27613Y-42045D01*
X24626Y-42045D02*
X25713Y-42045D01*
X20626Y-42045D02*
X23613Y-42045D01*
X18395Y-42045D02*
X19613Y-42045D01*
X96706Y-41965D02*
X97845Y-41965D01*
X92706Y-41965D02*
X95533Y-41965D01*
X90336Y-41965D02*
X91533Y-41965D01*
X88706Y-41965D02*
X89906Y-41965D01*
X84706Y-41965D02*
X87533Y-41965D01*
X80706Y-41965D02*
X83533Y-41965D01*
X76706Y-41965D02*
X79533Y-41965D01*
X72706Y-41965D02*
X75533Y-41965D01*
X68706Y-41965D02*
X71533Y-41965D01*
X64706Y-41965D02*
X67533Y-41965D01*
X60706Y-41965D02*
X63533Y-41965D01*
X56706Y-41965D02*
X59533Y-41965D01*
X52706Y-41965D02*
X55533Y-41965D01*
X48706Y-41965D02*
X51533Y-41965D01*
X44706Y-41965D02*
X47533Y-41965D01*
X40706Y-41965D02*
X43533Y-41965D01*
X36706Y-41965D02*
X39533Y-41965D01*
X32706Y-41965D02*
X35533Y-41965D01*
X28706Y-41965D02*
X31533Y-41965D01*
X26336Y-41965D02*
X27533Y-41965D01*
X24706Y-41965D02*
X25906Y-41965D01*
X20706Y-41965D02*
X23533Y-41965D01*
X18395Y-41965D02*
X19533Y-41965D01*
X96786Y-41885D02*
X97845Y-41885D01*
X92786Y-41885D02*
X95453Y-41885D01*
X88786Y-41885D02*
X91453Y-41885D01*
X84786Y-41885D02*
X87453Y-41885D01*
X80786Y-41885D02*
X83453Y-41885D01*
X76786Y-41885D02*
X79453Y-41885D01*
X72786Y-41885D02*
X75453Y-41885D01*
X68786Y-41885D02*
X71453Y-41885D01*
X64786Y-41885D02*
X67453Y-41885D01*
X60786Y-41885D02*
X63453Y-41885D01*
X56786Y-41885D02*
X59453Y-41885D01*
X52786Y-41885D02*
X55453Y-41885D01*
X48786Y-41885D02*
X51453Y-41885D01*
X44786Y-41885D02*
X47453Y-41885D01*
X40786Y-41885D02*
X43453Y-41885D01*
X36786Y-41885D02*
X39453Y-41885D01*
X32786Y-41885D02*
X35453Y-41885D01*
X28786Y-41885D02*
X31453Y-41885D01*
X24786Y-41885D02*
X27453Y-41885D01*
X20786Y-41885D02*
X23453Y-41885D01*
X18395Y-41885D02*
X19453Y-41885D01*
X96851Y-41805D02*
X97845Y-41805D01*
X92851Y-41805D02*
X95388Y-41805D01*
X88851Y-41805D02*
X91388Y-41805D01*
X84851Y-41805D02*
X87388Y-41805D01*
X80851Y-41805D02*
X83388Y-41805D01*
X76851Y-41805D02*
X79388Y-41805D01*
X72851Y-41805D02*
X75388Y-41805D01*
X68851Y-41805D02*
X71388Y-41805D01*
X64851Y-41805D02*
X67388Y-41805D01*
X60851Y-41805D02*
X63388Y-41805D01*
X56851Y-41805D02*
X59388Y-41805D01*
X52851Y-41805D02*
X55388Y-41805D01*
X48851Y-41805D02*
X51388Y-41805D01*
X44851Y-41805D02*
X47388Y-41805D01*
X40851Y-41805D02*
X43388Y-41805D01*
X36851Y-41805D02*
X39388Y-41805D01*
X32851Y-41805D02*
X35388Y-41805D01*
X28851Y-41805D02*
X31388Y-41805D01*
X24851Y-41805D02*
X27388Y-41805D01*
X20851Y-41805D02*
X23388Y-41805D01*
X18395Y-41805D02*
X19388Y-41805D01*
X96884Y-41725D02*
X97845Y-41725D01*
X92884Y-41725D02*
X95355Y-41725D01*
X88884Y-41725D02*
X91355Y-41725D01*
X84884Y-41725D02*
X87355Y-41725D01*
X80884Y-41725D02*
X83355Y-41725D01*
X76884Y-41725D02*
X79355Y-41725D01*
X72884Y-41725D02*
X75355Y-41725D01*
X68884Y-41725D02*
X71355Y-41725D01*
X64884Y-41725D02*
X67355Y-41725D01*
X60884Y-41725D02*
X63355Y-41725D01*
X56884Y-41725D02*
X59355Y-41725D01*
X52884Y-41725D02*
X55355Y-41725D01*
X48884Y-41725D02*
X51355Y-41725D01*
X44884Y-41725D02*
X47355Y-41725D01*
X40884Y-41725D02*
X43355Y-41725D01*
X36884Y-41725D02*
X39355Y-41725D01*
X32884Y-41725D02*
X35355Y-41725D01*
X28884Y-41725D02*
X31355Y-41725D01*
X24884Y-41725D02*
X27355Y-41725D01*
X20884Y-41725D02*
X23355Y-41725D01*
X18395Y-41725D02*
X19355Y-41725D01*
X96917Y-41645D02*
X97845Y-41645D01*
X92917Y-41645D02*
X95322Y-41645D01*
X88917Y-41645D02*
X91322Y-41645D01*
X84917Y-41645D02*
X87322Y-41645D01*
X80917Y-41645D02*
X83322Y-41645D01*
X76917Y-41645D02*
X79322Y-41645D01*
X72917Y-41645D02*
X75322Y-41645D01*
X68917Y-41645D02*
X71322Y-41645D01*
X64917Y-41645D02*
X67322Y-41645D01*
X60917Y-41645D02*
X63322Y-41645D01*
X56917Y-41645D02*
X59322Y-41645D01*
X52917Y-41645D02*
X55322Y-41645D01*
X48917Y-41645D02*
X51322Y-41645D01*
X44917Y-41645D02*
X47322Y-41645D01*
X40917Y-41645D02*
X43322Y-41645D01*
X36917Y-41645D02*
X39322Y-41645D01*
X32917Y-41645D02*
X35322Y-41645D01*
X28917Y-41645D02*
X31322Y-41645D01*
X24917Y-41645D02*
X27322Y-41645D01*
X20917Y-41645D02*
X23322Y-41645D01*
X18395Y-41645D02*
X19322Y-41645D01*
X96951Y-41565D02*
X97845Y-41565D01*
X92951Y-41565D02*
X95289Y-41565D01*
X88951Y-41565D02*
X91289Y-41565D01*
X84951Y-41565D02*
X87289Y-41565D01*
X80951Y-41565D02*
X83289Y-41565D01*
X76951Y-41565D02*
X79289Y-41565D01*
X72951Y-41565D02*
X75289Y-41565D01*
X68951Y-41565D02*
X71289Y-41565D01*
X64951Y-41565D02*
X67289Y-41565D01*
X60951Y-41565D02*
X63289Y-41565D01*
X56951Y-41565D02*
X59289Y-41565D01*
X52951Y-41565D02*
X55289Y-41565D01*
X48951Y-41565D02*
X51289Y-41565D01*
X44951Y-41565D02*
X47289Y-41565D01*
X40951Y-41565D02*
X43289Y-41565D01*
X36951Y-41565D02*
X39289Y-41565D01*
X32951Y-41565D02*
X35289Y-41565D01*
X28951Y-41565D02*
X31289Y-41565D01*
X24951Y-41565D02*
X27289Y-41565D01*
X20951Y-41565D02*
X23289Y-41565D01*
X18395Y-41565D02*
X19289Y-41565D01*
X96970Y-41485D02*
X97845Y-41485D01*
X92970Y-41485D02*
X95270Y-41485D01*
X88970Y-41485D02*
X91270Y-41485D01*
X84970Y-41485D02*
X87270Y-41485D01*
X80970Y-41485D02*
X83270Y-41485D01*
X76970Y-41485D02*
X79270Y-41485D01*
X72970Y-41485D02*
X75270Y-41485D01*
X68970Y-41485D02*
X71270Y-41485D01*
X64970Y-41485D02*
X67270Y-41485D01*
X60970Y-41485D02*
X63270Y-41485D01*
X56970Y-41485D02*
X59270Y-41485D01*
X52970Y-41485D02*
X55270Y-41485D01*
X48970Y-41485D02*
X51270Y-41485D01*
X44970Y-41485D02*
X47270Y-41485D01*
X40970Y-41485D02*
X43270Y-41485D01*
X36970Y-41485D02*
X39270Y-41485D01*
X32970Y-41485D02*
X35270Y-41485D01*
X28970Y-41485D02*
X31270Y-41485D01*
X24970Y-41485D02*
X27270Y-41485D01*
X20970Y-41485D02*
X23270Y-41485D01*
X18395Y-41485D02*
X19270Y-41485D01*
X96970Y-41405D02*
X97845Y-41405D01*
X92970Y-41405D02*
X95270Y-41405D01*
X88970Y-41405D02*
X91270Y-41405D01*
X84970Y-41405D02*
X87270Y-41405D01*
X80970Y-41405D02*
X83270Y-41405D01*
X76970Y-41405D02*
X79270Y-41405D01*
X72970Y-41405D02*
X75270Y-41405D01*
X68970Y-41405D02*
X71270Y-41405D01*
X64970Y-41405D02*
X67270Y-41405D01*
X60970Y-41405D02*
X63270Y-41405D01*
X56970Y-41405D02*
X59270Y-41405D01*
X52970Y-41405D02*
X55270Y-41405D01*
X48970Y-41405D02*
X51270Y-41405D01*
X44970Y-41405D02*
X47270Y-41405D01*
X40970Y-41405D02*
X43270Y-41405D01*
X36970Y-41405D02*
X39270Y-41405D01*
X32970Y-41405D02*
X35270Y-41405D01*
X28970Y-41405D02*
X31270Y-41405D01*
X24970Y-41405D02*
X27270Y-41405D01*
X20970Y-41405D02*
X23270Y-41405D01*
X18395Y-41405D02*
X19270Y-41405D01*
X96970Y-41325D02*
X97845Y-41325D01*
X92970Y-41325D02*
X95270Y-41325D01*
X88970Y-41325D02*
X91270Y-41325D01*
X84970Y-41325D02*
X87270Y-41325D01*
X80970Y-41325D02*
X83270Y-41325D01*
X76970Y-41325D02*
X79270Y-41325D01*
X72970Y-41325D02*
X75270Y-41325D01*
X68970Y-41325D02*
X71270Y-41325D01*
X64970Y-41325D02*
X67270Y-41325D01*
X60970Y-41325D02*
X63270Y-41325D01*
X56970Y-41325D02*
X59270Y-41325D01*
X52970Y-41325D02*
X55270Y-41325D01*
X48970Y-41325D02*
X51270Y-41325D01*
X44970Y-41325D02*
X47270Y-41325D01*
X40970Y-41325D02*
X43270Y-41325D01*
X36970Y-41325D02*
X39270Y-41325D01*
X32970Y-41325D02*
X35270Y-41325D01*
X28970Y-41325D02*
X31270Y-41325D01*
X24970Y-41325D02*
X27270Y-41325D01*
X20970Y-41325D02*
X23270Y-41325D01*
X18395Y-41325D02*
X19270Y-41325D01*
X96970Y-41245D02*
X97845Y-41245D01*
X92970Y-41245D02*
X95270Y-41245D01*
X88970Y-41245D02*
X91270Y-41245D01*
X84970Y-41245D02*
X87270Y-41245D01*
X80970Y-41245D02*
X83270Y-41245D01*
X76970Y-41245D02*
X79270Y-41245D01*
X72970Y-41245D02*
X75270Y-41245D01*
X68970Y-41245D02*
X71270Y-41245D01*
X64970Y-41245D02*
X67270Y-41245D01*
X60970Y-41245D02*
X63270Y-41245D01*
X56970Y-41245D02*
X59270Y-41245D01*
X52970Y-41245D02*
X55270Y-41245D01*
X48970Y-41245D02*
X51270Y-41245D01*
X44970Y-41245D02*
X47270Y-41245D01*
X40970Y-41245D02*
X43270Y-41245D01*
X36970Y-41245D02*
X39270Y-41245D01*
X32970Y-41245D02*
X35270Y-41245D01*
X28970Y-41245D02*
X31270Y-41245D01*
X24970Y-41245D02*
X27270Y-41245D01*
X20970Y-41245D02*
X23270Y-41245D01*
X18395Y-41245D02*
X19270Y-41245D01*
X96963Y-41165D02*
X97845Y-41165D01*
X92963Y-41165D02*
X95277Y-41165D01*
X88963Y-41165D02*
X91277Y-41165D01*
X84963Y-41165D02*
X87277Y-41165D01*
X80963Y-41165D02*
X83277Y-41165D01*
X76963Y-41165D02*
X79277Y-41165D01*
X72963Y-41165D02*
X75277Y-41165D01*
X68963Y-41165D02*
X71277Y-41165D01*
X64963Y-41165D02*
X67277Y-41165D01*
X60963Y-41165D02*
X63277Y-41165D01*
X56963Y-41165D02*
X59277Y-41165D01*
X52963Y-41165D02*
X55277Y-41165D01*
X48963Y-41165D02*
X51277Y-41165D01*
X44963Y-41165D02*
X47277Y-41165D01*
X40963Y-41165D02*
X43277Y-41165D01*
X36963Y-41165D02*
X39277Y-41165D01*
X32963Y-41165D02*
X35277Y-41165D01*
X28963Y-41165D02*
X31277Y-41165D01*
X24963Y-41165D02*
X27277Y-41165D01*
X20963Y-41165D02*
X23277Y-41165D01*
X18395Y-41165D02*
X19277Y-41165D01*
X96930Y-41085D02*
X97845Y-41085D01*
X92930Y-41085D02*
X95310Y-41085D01*
X88930Y-41085D02*
X91310Y-41085D01*
X84930Y-41085D02*
X87310Y-41085D01*
X80930Y-41085D02*
X83310Y-41085D01*
X76930Y-41085D02*
X79310Y-41085D01*
X72930Y-41085D02*
X75310Y-41085D01*
X68930Y-41085D02*
X71310Y-41085D01*
X64930Y-41085D02*
X67310Y-41085D01*
X60930Y-41085D02*
X63310Y-41085D01*
X56930Y-41085D02*
X59310Y-41085D01*
X52930Y-41085D02*
X55310Y-41085D01*
X48930Y-41085D02*
X51310Y-41085D01*
X44930Y-41085D02*
X47310Y-41085D01*
X40930Y-41085D02*
X43310Y-41085D01*
X36930Y-41085D02*
X39310Y-41085D01*
X32930Y-41085D02*
X35310Y-41085D01*
X28930Y-41085D02*
X31310Y-41085D01*
X24930Y-41085D02*
X27310Y-41085D01*
X20930Y-41085D02*
X23310Y-41085D01*
X18395Y-41085D02*
X19310Y-41085D01*
X96897Y-41005D02*
X97845Y-41005D01*
X92897Y-41005D02*
X95343Y-41005D01*
X88897Y-41005D02*
X91343Y-41005D01*
X84897Y-41005D02*
X87343Y-41005D01*
X80897Y-41005D02*
X83343Y-41005D01*
X76897Y-41005D02*
X79343Y-41005D01*
X72897Y-41005D02*
X75343Y-41005D01*
X68897Y-41005D02*
X71343Y-41005D01*
X64897Y-41005D02*
X67343Y-41005D01*
X60897Y-41005D02*
X63343Y-41005D01*
X56897Y-41005D02*
X59343Y-41005D01*
X52897Y-41005D02*
X55343Y-41005D01*
X48897Y-41005D02*
X51343Y-41005D01*
X44897Y-41005D02*
X47343Y-41005D01*
X40897Y-41005D02*
X43343Y-41005D01*
X36897Y-41005D02*
X39343Y-41005D01*
X32897Y-41005D02*
X35343Y-41005D01*
X28897Y-41005D02*
X31343Y-41005D01*
X24897Y-41005D02*
X27343Y-41005D01*
X20897Y-41005D02*
X23343Y-41005D01*
X18395Y-41005D02*
X19343Y-41005D01*
X96864Y-40925D02*
X97845Y-40925D01*
X92864Y-40925D02*
X95377Y-40925D01*
X88864Y-40925D02*
X91377Y-40925D01*
X84864Y-40925D02*
X87377Y-40925D01*
X80864Y-40925D02*
X83377Y-40925D01*
X76864Y-40925D02*
X79377Y-40925D01*
X72864Y-40925D02*
X75377Y-40925D01*
X68864Y-40925D02*
X71377Y-40925D01*
X64864Y-40925D02*
X67377Y-40925D01*
X60864Y-40925D02*
X63377Y-40925D01*
X56864Y-40925D02*
X59377Y-40925D01*
X52864Y-40925D02*
X55377Y-40925D01*
X48864Y-40925D02*
X51377Y-40925D01*
X44864Y-40925D02*
X47377Y-40925D01*
X40864Y-40925D02*
X43377Y-40925D01*
X36864Y-40925D02*
X39377Y-40925D01*
X32864Y-40925D02*
X35377Y-40925D01*
X28864Y-40925D02*
X31377Y-40925D01*
X24864Y-40925D02*
X27377Y-40925D01*
X20864Y-40925D02*
X23377Y-40925D01*
X18395Y-40925D02*
X19377Y-40925D01*
X96817Y-40845D02*
X97845Y-40845D01*
X92817Y-40845D02*
X95423Y-40845D01*
X88817Y-40845D02*
X91424Y-40845D01*
X84817Y-40845D02*
X87423Y-40845D01*
X80817Y-40845D02*
X83424Y-40845D01*
X76817Y-40845D02*
X79423Y-40845D01*
X72817Y-40845D02*
X75424Y-40845D01*
X68817Y-40845D02*
X71423Y-40845D01*
X64817Y-40845D02*
X67424Y-40845D01*
X60817Y-40845D02*
X63423Y-40845D01*
X56817Y-40845D02*
X59424Y-40845D01*
X52817Y-40845D02*
X55423Y-40845D01*
X48817Y-40845D02*
X51424Y-40845D01*
X44817Y-40845D02*
X47423Y-40845D01*
X40817Y-40845D02*
X43424Y-40845D01*
X36817Y-40845D02*
X39423Y-40845D01*
X32817Y-40845D02*
X35424Y-40845D01*
X28817Y-40845D02*
X31423Y-40845D01*
X24817Y-40845D02*
X27424Y-40845D01*
X20817Y-40845D02*
X23423Y-40845D01*
X18395Y-40845D02*
X19424Y-40845D01*
X96737Y-40765D02*
X97845Y-40765D01*
X92737Y-40765D02*
X95504Y-40765D01*
X88737Y-40765D02*
X91504Y-40765D01*
X84737Y-40765D02*
X87504Y-40765D01*
X80737Y-40765D02*
X83504Y-40765D01*
X76737Y-40765D02*
X79504Y-40765D01*
X72737Y-40765D02*
X75504Y-40765D01*
X68737Y-40765D02*
X71504Y-40765D01*
X64737Y-40765D02*
X67504Y-40765D01*
X60737Y-40765D02*
X63504Y-40765D01*
X56737Y-40765D02*
X59504Y-40765D01*
X52737Y-40765D02*
X55504Y-40765D01*
X48737Y-40765D02*
X51504Y-40765D01*
X44737Y-40765D02*
X47504Y-40765D01*
X40737Y-40765D02*
X43504Y-40765D01*
X36737Y-40765D02*
X39504Y-40765D01*
X32737Y-40765D02*
X35504Y-40765D01*
X28737Y-40765D02*
X31504Y-40765D01*
X24737Y-40765D02*
X27504Y-40765D01*
X20737Y-40765D02*
X23504Y-40765D01*
X18395Y-40765D02*
X19504Y-40765D01*
X96657Y-40685D02*
X97845Y-40685D01*
X92657Y-40685D02*
X95584Y-40685D01*
X88657Y-40685D02*
X91584Y-40685D01*
X84657Y-40685D02*
X87584Y-40685D01*
X80657Y-40685D02*
X83584Y-40685D01*
X76657Y-40685D02*
X79584Y-40685D01*
X72657Y-40685D02*
X75584Y-40685D01*
X68657Y-40685D02*
X71584Y-40685D01*
X64657Y-40685D02*
X67584Y-40685D01*
X60657Y-40685D02*
X63584Y-40685D01*
X56657Y-40685D02*
X59584Y-40685D01*
X52657Y-40685D02*
X55584Y-40685D01*
X48657Y-40685D02*
X51584Y-40685D01*
X44657Y-40685D02*
X47584Y-40685D01*
X40657Y-40685D02*
X43584Y-40685D01*
X36657Y-40685D02*
X39584Y-40685D01*
X32657Y-40685D02*
X35584Y-40685D01*
X28657Y-40685D02*
X31584Y-40685D01*
X24657Y-40685D02*
X27584Y-40685D01*
X20657Y-40685D02*
X23584Y-40685D01*
X18395Y-40685D02*
X19584Y-40685D01*
X96542Y-40605D02*
X97845Y-40605D01*
X92542Y-40605D02*
X95698Y-40605D01*
X88542Y-40605D02*
X91699Y-40605D01*
X84542Y-40605D02*
X87698Y-40605D01*
X80542Y-40605D02*
X83699Y-40605D01*
X76542Y-40605D02*
X79698Y-40605D01*
X72542Y-40605D02*
X75699Y-40605D01*
X68542Y-40605D02*
X71698Y-40605D01*
X64542Y-40605D02*
X67699Y-40605D01*
X60542Y-40605D02*
X63698Y-40605D01*
X56542Y-40605D02*
X59699Y-40605D01*
X52542Y-40605D02*
X55698Y-40605D01*
X48542Y-40605D02*
X51699Y-40605D01*
X44542Y-40605D02*
X47698Y-40605D01*
X40542Y-40605D02*
X43699Y-40605D01*
X36542Y-40605D02*
X39698Y-40605D01*
X32542Y-40605D02*
X35699Y-40605D01*
X28542Y-40605D02*
X31698Y-40605D01*
X24542Y-40605D02*
X27699Y-40605D01*
X20542Y-40605D02*
X23698Y-40605D01*
X18395Y-40605D02*
X19699Y-40605D01*
X96350Y-40525D02*
X97845Y-40525D01*
X92350Y-40525D02*
X95890Y-40525D01*
X88350Y-40525D02*
X91892Y-40525D01*
X84350Y-40525D02*
X87890Y-40525D01*
X80350Y-40525D02*
X83892Y-40525D01*
X76350Y-40525D02*
X79890Y-40525D01*
X72350Y-40525D02*
X75892Y-40525D01*
X68350Y-40525D02*
X71890Y-40525D01*
X64350Y-40525D02*
X67892Y-40525D01*
X60350Y-40525D02*
X63890Y-40525D01*
X56350Y-40525D02*
X59892Y-40525D01*
X52350Y-40525D02*
X55890Y-40525D01*
X48350Y-40525D02*
X51892Y-40525D01*
X44350Y-40525D02*
X47890Y-40525D01*
X40350Y-40525D02*
X43892Y-40525D01*
X36350Y-40525D02*
X39890Y-40525D01*
X32350Y-40525D02*
X35892Y-40525D01*
X28350Y-40525D02*
X31890Y-40525D01*
X24350Y-40525D02*
X27892Y-40525D01*
X20350Y-40525D02*
X23890Y-40525D01*
X18395Y-40525D02*
X19892Y-40525D01*
X18395Y-40445D02*
X97845Y-40445D01*
X18395Y-40365D02*
X97845Y-40365D01*
X18395Y-40285D02*
X97845Y-40285D01*
X18395Y-40205D02*
X97845Y-40205D01*
X18395Y-40125D02*
X97845Y-40125D01*
X18395Y-40045D02*
X97845Y-40045D01*
X18395Y-39965D02*
X97845Y-39965D01*
X94587Y-39885D02*
X97845Y-39885D01*
X86587Y-39885D02*
X93653Y-39885D01*
X78587Y-39885D02*
X85653Y-39885D01*
X70587Y-39885D02*
X77653Y-39885D01*
X62587Y-39885D02*
X69653Y-39885D01*
X54587Y-39885D02*
X61653Y-39885D01*
X46587Y-39885D02*
X53653Y-39885D01*
X38587Y-39885D02*
X45653Y-39885D01*
X30587Y-39885D02*
X37653Y-39885D01*
X22587Y-39885D02*
X29653Y-39885D01*
X18395Y-39885D02*
X21653Y-39885D01*
X95229Y-39805D02*
X97845Y-39805D01*
X94660Y-39805D02*
X94999Y-39805D01*
X87229Y-39805D02*
X93579Y-39805D01*
X86660Y-39805D02*
X86999Y-39805D01*
X79229Y-39805D02*
X85579Y-39805D01*
X78660Y-39805D02*
X78999Y-39805D01*
X71229Y-39805D02*
X77579Y-39805D01*
X70660Y-39805D02*
X70999Y-39805D01*
X63229Y-39805D02*
X69579Y-39805D01*
X62660Y-39805D02*
X62999Y-39805D01*
X55229Y-39805D02*
X61579Y-39805D01*
X54660Y-39805D02*
X54999Y-39805D01*
X47229Y-39805D02*
X53579Y-39805D01*
X46660Y-39805D02*
X46999Y-39805D01*
X39229Y-39805D02*
X45579Y-39805D01*
X38660Y-39805D02*
X38999Y-39805D01*
X31229Y-39805D02*
X37579Y-39805D01*
X30660Y-39805D02*
X30999Y-39805D01*
X23229Y-39805D02*
X29579Y-39805D01*
X22660Y-39805D02*
X22999Y-39805D01*
X18395Y-39805D02*
X21579Y-39805D01*
X95398Y-39725D02*
X97845Y-39725D01*
X94694Y-39725D02*
X94841Y-39725D01*
X87398Y-39725D02*
X93546Y-39725D01*
X86694Y-39725D02*
X86841Y-39725D01*
X79398Y-39725D02*
X85546Y-39725D01*
X78694Y-39725D02*
X78841Y-39725D01*
X71398Y-39725D02*
X77546Y-39725D01*
X70694Y-39725D02*
X70841Y-39725D01*
X63398Y-39725D02*
X69546Y-39725D01*
X62694Y-39725D02*
X62841Y-39725D01*
X55398Y-39725D02*
X61546Y-39725D01*
X54694Y-39725D02*
X54841Y-39725D01*
X47398Y-39725D02*
X53546Y-39725D01*
X46694Y-39725D02*
X46841Y-39725D01*
X39398Y-39725D02*
X45546Y-39725D01*
X38694Y-39725D02*
X38841Y-39725D01*
X31398Y-39725D02*
X37546Y-39725D01*
X30694Y-39725D02*
X30841Y-39725D01*
X23398Y-39725D02*
X29546Y-39725D01*
X22694Y-39725D02*
X22841Y-39725D01*
X18395Y-39725D02*
X21546Y-39725D01*
X95456Y-39645D02*
X97845Y-39645D01*
X95408Y-39645D02*
X95422Y-39645D01*
X94817Y-39645D02*
X94833Y-39645D01*
X94694Y-39645D02*
X94783Y-39645D01*
X87456Y-39645D02*
X93546Y-39645D01*
X87408Y-39645D02*
X87422Y-39645D01*
X86817Y-39645D02*
X86833Y-39645D01*
X86694Y-39645D02*
X86783Y-39645D01*
X79456Y-39645D02*
X85546Y-39645D01*
X79408Y-39645D02*
X79422Y-39645D01*
X78817Y-39645D02*
X78833Y-39645D01*
X78694Y-39645D02*
X78783Y-39645D01*
X71456Y-39645D02*
X77546Y-39645D01*
X71408Y-39645D02*
X71422Y-39645D01*
X70817Y-39645D02*
X70833Y-39645D01*
X70694Y-39645D02*
X70783Y-39645D01*
X63456Y-39645D02*
X69546Y-39645D01*
X63408Y-39645D02*
X63422Y-39645D01*
X62817Y-39645D02*
X62833Y-39645D01*
X62694Y-39645D02*
X62783Y-39645D01*
X55456Y-39645D02*
X61546Y-39645D01*
X55408Y-39645D02*
X55422Y-39645D01*
X54817Y-39645D02*
X54833Y-39645D01*
X54694Y-39645D02*
X54783Y-39645D01*
X47456Y-39645D02*
X53546Y-39645D01*
X47408Y-39645D02*
X47422Y-39645D01*
X46817Y-39645D02*
X46833Y-39645D01*
X46694Y-39645D02*
X46783Y-39645D01*
X39456Y-39645D02*
X45546Y-39645D01*
X39408Y-39645D02*
X39422Y-39645D01*
X38817Y-39645D02*
X38833Y-39645D01*
X38694Y-39645D02*
X38783Y-39645D01*
X31456Y-39645D02*
X37546Y-39645D01*
X31408Y-39645D02*
X31422Y-39645D01*
X30817Y-39645D02*
X30833Y-39645D01*
X30694Y-39645D02*
X30783Y-39645D01*
X23456Y-39645D02*
X29546Y-39645D01*
X23408Y-39645D02*
X23422Y-39645D01*
X22817Y-39645D02*
X22833Y-39645D01*
X22694Y-39645D02*
X22783Y-39645D01*
X18395Y-39645D02*
X21546Y-39645D01*
X95532Y-39565D02*
X97845Y-39565D01*
X95328Y-39565D02*
X95342Y-39565D01*
X94897Y-39565D02*
X94913Y-39565D01*
X94694Y-39565D02*
X94705Y-39565D01*
X87532Y-39565D02*
X93546Y-39565D01*
X87328Y-39565D02*
X87342Y-39565D01*
X86897Y-39565D02*
X86913Y-39565D01*
X86694Y-39565D02*
X86705Y-39565D01*
X79532Y-39565D02*
X85546Y-39565D01*
X79328Y-39565D02*
X79342Y-39565D01*
X78897Y-39565D02*
X78913Y-39565D01*
X78694Y-39565D02*
X78705Y-39565D01*
X71532Y-39565D02*
X77546Y-39565D01*
X71328Y-39565D02*
X71342Y-39565D01*
X70897Y-39565D02*
X70913Y-39565D01*
X70694Y-39565D02*
X70705Y-39565D01*
X63532Y-39565D02*
X69546Y-39565D01*
X63328Y-39565D02*
X63342Y-39565D01*
X62897Y-39565D02*
X62913Y-39565D01*
X62694Y-39565D02*
X62705Y-39565D01*
X55532Y-39565D02*
X61546Y-39565D01*
X55328Y-39565D02*
X55342Y-39565D01*
X54897Y-39565D02*
X54913Y-39565D01*
X54694Y-39565D02*
X54705Y-39565D01*
X47532Y-39565D02*
X53546Y-39565D01*
X47328Y-39565D02*
X47342Y-39565D01*
X46897Y-39565D02*
X46913Y-39565D01*
X46694Y-39565D02*
X46705Y-39565D01*
X39532Y-39565D02*
X45546Y-39565D01*
X39328Y-39565D02*
X39342Y-39565D01*
X38897Y-39565D02*
X38913Y-39565D01*
X38694Y-39565D02*
X38705Y-39565D01*
X31532Y-39565D02*
X37546Y-39565D01*
X31328Y-39565D02*
X31342Y-39565D01*
X30897Y-39565D02*
X30913Y-39565D01*
X30694Y-39565D02*
X30705Y-39565D01*
X23532Y-39565D02*
X29546Y-39565D01*
X23328Y-39565D02*
X23342Y-39565D01*
X22897Y-39565D02*
X22913Y-39565D01*
X22694Y-39565D02*
X22705Y-39565D01*
X18395Y-39565D02*
X21546Y-39565D01*
X95568Y-39485D02*
X97845Y-39485D01*
X95248Y-39485D02*
X95262Y-39485D01*
X94977Y-39485D02*
X94993Y-39485D01*
X87568Y-39485D02*
X93546Y-39485D01*
X87248Y-39485D02*
X87262Y-39485D01*
X86977Y-39485D02*
X86993Y-39485D01*
X79568Y-39485D02*
X85546Y-39485D01*
X79248Y-39485D02*
X79262Y-39485D01*
X78977Y-39485D02*
X78993Y-39485D01*
X71568Y-39485D02*
X77546Y-39485D01*
X71248Y-39485D02*
X71262Y-39485D01*
X70977Y-39485D02*
X70993Y-39485D01*
X63568Y-39485D02*
X69546Y-39485D01*
X63248Y-39485D02*
X63262Y-39485D01*
X62977Y-39485D02*
X62993Y-39485D01*
X55568Y-39485D02*
X61546Y-39485D01*
X55248Y-39485D02*
X55262Y-39485D01*
X54977Y-39485D02*
X54993Y-39485D01*
X47568Y-39485D02*
X53546Y-39485D01*
X47248Y-39485D02*
X47262Y-39485D01*
X46977Y-39485D02*
X46993Y-39485D01*
X39568Y-39485D02*
X45546Y-39485D01*
X39248Y-39485D02*
X39262Y-39485D01*
X38977Y-39485D02*
X38993Y-39485D01*
X31568Y-39485D02*
X37546Y-39485D01*
X31248Y-39485D02*
X31262Y-39485D01*
X30977Y-39485D02*
X30993Y-39485D01*
X23568Y-39485D02*
X29546Y-39485D01*
X23248Y-39485D02*
X23262Y-39485D01*
X22977Y-39485D02*
X22993Y-39485D01*
X18395Y-39485D02*
X21546Y-39485D01*
X95583Y-39405D02*
X97845Y-39405D01*
X95168Y-39405D02*
X95182Y-39405D01*
X95057Y-39405D02*
X95073Y-39405D01*
X87583Y-39405D02*
X93546Y-39405D01*
X87168Y-39405D02*
X87182Y-39405D01*
X87057Y-39405D02*
X87073Y-39405D01*
X79583Y-39405D02*
X85546Y-39405D01*
X79168Y-39405D02*
X79182Y-39405D01*
X79057Y-39405D02*
X79073Y-39405D01*
X71583Y-39405D02*
X77546Y-39405D01*
X71168Y-39405D02*
X71182Y-39405D01*
X71057Y-39405D02*
X71073Y-39405D01*
X63583Y-39405D02*
X69546Y-39405D01*
X63168Y-39405D02*
X63182Y-39405D01*
X63057Y-39405D02*
X63073Y-39405D01*
X55583Y-39405D02*
X61546Y-39405D01*
X55168Y-39405D02*
X55182Y-39405D01*
X55057Y-39405D02*
X55073Y-39405D01*
X47583Y-39405D02*
X53546Y-39405D01*
X47168Y-39405D02*
X47182Y-39405D01*
X47057Y-39405D02*
X47073Y-39405D01*
X39583Y-39405D02*
X45546Y-39405D01*
X39168Y-39405D02*
X39182Y-39405D01*
X39057Y-39405D02*
X39073Y-39405D01*
X31583Y-39405D02*
X37546Y-39405D01*
X31168Y-39405D02*
X31182Y-39405D01*
X31057Y-39405D02*
X31073Y-39405D01*
X23583Y-39405D02*
X29546Y-39405D01*
X23168Y-39405D02*
X23182Y-39405D01*
X23057Y-39405D02*
X23073Y-39405D01*
X18395Y-39405D02*
X21546Y-39405D01*
X95585Y-39325D02*
X97845Y-39325D01*
X95137Y-39325D02*
X95153Y-39325D01*
X95088Y-39325D02*
X95102Y-39325D01*
X87585Y-39325D02*
X93546Y-39325D01*
X87137Y-39325D02*
X87153Y-39325D01*
X87088Y-39325D02*
X87102Y-39325D01*
X79585Y-39325D02*
X85546Y-39325D01*
X79137Y-39325D02*
X79153Y-39325D01*
X79088Y-39325D02*
X79102Y-39325D01*
X71585Y-39325D02*
X77546Y-39325D01*
X71137Y-39325D02*
X71153Y-39325D01*
X71088Y-39325D02*
X71102Y-39325D01*
X63585Y-39325D02*
X69546Y-39325D01*
X63137Y-39325D02*
X63153Y-39325D01*
X63088Y-39325D02*
X63102Y-39325D01*
X55585Y-39325D02*
X61546Y-39325D01*
X55137Y-39325D02*
X55153Y-39325D01*
X55088Y-39325D02*
X55102Y-39325D01*
X47585Y-39325D02*
X53546Y-39325D01*
X47137Y-39325D02*
X47153Y-39325D01*
X47088Y-39325D02*
X47102Y-39325D01*
X39585Y-39325D02*
X45546Y-39325D01*
X39137Y-39325D02*
X39153Y-39325D01*
X39088Y-39325D02*
X39102Y-39325D01*
X31585Y-39325D02*
X37546Y-39325D01*
X31137Y-39325D02*
X31153Y-39325D01*
X31088Y-39325D02*
X31102Y-39325D01*
X23585Y-39325D02*
X29546Y-39325D01*
X23137Y-39325D02*
X23153Y-39325D01*
X23088Y-39325D02*
X23102Y-39325D01*
X18395Y-39325D02*
X21546Y-39325D01*
X95577Y-39245D02*
X97845Y-39245D01*
X95217Y-39245D02*
X95233Y-39245D01*
X95008Y-39245D02*
X95022Y-39245D01*
X87577Y-39245D02*
X93546Y-39245D01*
X87217Y-39245D02*
X87233Y-39245D01*
X87008Y-39245D02*
X87022Y-39245D01*
X79577Y-39245D02*
X85546Y-39245D01*
X79217Y-39245D02*
X79233Y-39245D01*
X79008Y-39245D02*
X79022Y-39245D01*
X71577Y-39245D02*
X77546Y-39245D01*
X71217Y-39245D02*
X71233Y-39245D01*
X71008Y-39245D02*
X71022Y-39245D01*
X63577Y-39245D02*
X69546Y-39245D01*
X63217Y-39245D02*
X63233Y-39245D01*
X63008Y-39245D02*
X63022Y-39245D01*
X55577Y-39245D02*
X61546Y-39245D01*
X55217Y-39245D02*
X55233Y-39245D01*
X55008Y-39245D02*
X55022Y-39245D01*
X47577Y-39245D02*
X53546Y-39245D01*
X47217Y-39245D02*
X47233Y-39245D01*
X47008Y-39245D02*
X47022Y-39245D01*
X39577Y-39245D02*
X45546Y-39245D01*
X39217Y-39245D02*
X39233Y-39245D01*
X39008Y-39245D02*
X39022Y-39245D01*
X31577Y-39245D02*
X37546Y-39245D01*
X31217Y-39245D02*
X31233Y-39245D01*
X31008Y-39245D02*
X31022Y-39245D01*
X23577Y-39245D02*
X29546Y-39245D01*
X23217Y-39245D02*
X23233Y-39245D01*
X23008Y-39245D02*
X23022Y-39245D01*
X18395Y-39245D02*
X21546Y-39245D01*
X95546Y-39165D02*
X97845Y-39165D01*
X95297Y-39165D02*
X95313Y-39165D01*
X94928Y-39165D02*
X94942Y-39165D01*
X87546Y-39165D02*
X93524Y-39165D01*
X87297Y-39165D02*
X87313Y-39165D01*
X86928Y-39165D02*
X86942Y-39165D01*
X79546Y-39165D02*
X85525Y-39165D01*
X79297Y-39165D02*
X79313Y-39165D01*
X78928Y-39165D02*
X78942Y-39165D01*
X71546Y-39165D02*
X77546Y-39165D01*
X71297Y-39165D02*
X71313Y-39165D01*
X70928Y-39165D02*
X70942Y-39165D01*
X63546Y-39165D02*
X69546Y-39165D01*
X63297Y-39165D02*
X63313Y-39165D01*
X62928Y-39165D02*
X62942Y-39165D01*
X55546Y-39165D02*
X61546Y-39165D01*
X55297Y-39165D02*
X55313Y-39165D01*
X54928Y-39165D02*
X54942Y-39165D01*
X47546Y-39165D02*
X53546Y-39165D01*
X47297Y-39165D02*
X47313Y-39165D01*
X46928Y-39165D02*
X46942Y-39165D01*
X39546Y-39165D02*
X45546Y-39165D01*
X39297Y-39165D02*
X39313Y-39165D01*
X38928Y-39165D02*
X38942Y-39165D01*
X31546Y-39165D02*
X37546Y-39165D01*
X31297Y-39165D02*
X31313Y-39165D01*
X30928Y-39165D02*
X30942Y-39165D01*
X23546Y-39165D02*
X29546Y-39165D01*
X23297Y-39165D02*
X23313Y-39165D01*
X22928Y-39165D02*
X22942Y-39165D01*
X18395Y-39165D02*
X21546Y-39165D01*
X95512Y-39085D02*
X97845Y-39085D01*
X95377Y-39085D02*
X95393Y-39085D01*
X94848Y-39085D02*
X94862Y-39085D01*
X94694Y-39085D02*
X94730Y-39085D01*
X87512Y-39085D02*
X93444Y-39085D01*
X87377Y-39085D02*
X87393Y-39085D01*
X86848Y-39085D02*
X86862Y-39085D01*
X86694Y-39085D02*
X86730Y-39085D01*
X79512Y-39085D02*
X85445Y-39085D01*
X79377Y-39085D02*
X79393Y-39085D01*
X78848Y-39085D02*
X78862Y-39085D01*
X78694Y-39085D02*
X78730Y-39085D01*
X71512Y-39085D02*
X77546Y-39085D01*
X71377Y-39085D02*
X71393Y-39085D01*
X70848Y-39085D02*
X70862Y-39085D01*
X70694Y-39085D02*
X70730Y-39085D01*
X63512Y-39085D02*
X69546Y-39085D01*
X63377Y-39085D02*
X63393Y-39085D01*
X62848Y-39085D02*
X62862Y-39085D01*
X62694Y-39085D02*
X62730Y-39085D01*
X55512Y-39085D02*
X61546Y-39085D01*
X55377Y-39085D02*
X55393Y-39085D01*
X54848Y-39085D02*
X54862Y-39085D01*
X54694Y-39085D02*
X54730Y-39085D01*
X47512Y-39085D02*
X53546Y-39085D01*
X47377Y-39085D02*
X47393Y-39085D01*
X46848Y-39085D02*
X46862Y-39085D01*
X46694Y-39085D02*
X46730Y-39085D01*
X39512Y-39085D02*
X45546Y-39085D01*
X39377Y-39085D02*
X39393Y-39085D01*
X38848Y-39085D02*
X38862Y-39085D01*
X38694Y-39085D02*
X38730Y-39085D01*
X31512Y-39085D02*
X37546Y-39085D01*
X31377Y-39085D02*
X31393Y-39085D01*
X30848Y-39085D02*
X30862Y-39085D01*
X30694Y-39085D02*
X30730Y-39085D01*
X23512Y-39085D02*
X29546Y-39085D01*
X23377Y-39085D02*
X23393Y-39085D01*
X22848Y-39085D02*
X22862Y-39085D01*
X22694Y-39085D02*
X22730Y-39085D01*
X18395Y-39085D02*
X21546Y-39085D01*
X95412Y-39005D02*
X97845Y-39005D01*
X94694Y-39005D02*
X94829Y-39005D01*
X87412Y-39005D02*
X93364Y-39005D01*
X86694Y-39005D02*
X86829Y-39005D01*
X79412Y-39005D02*
X85365Y-39005D01*
X78694Y-39005D02*
X78829Y-39005D01*
X71412Y-39005D02*
X77546Y-39005D01*
X70694Y-39005D02*
X70829Y-39005D01*
X63412Y-39005D02*
X69546Y-39005D01*
X62694Y-39005D02*
X62829Y-39005D01*
X55412Y-39005D02*
X61546Y-39005D01*
X54694Y-39005D02*
X54829Y-39005D01*
X47412Y-39005D02*
X53546Y-39005D01*
X46694Y-39005D02*
X46829Y-39005D01*
X39412Y-39005D02*
X45546Y-39005D01*
X38694Y-39005D02*
X38829Y-39005D01*
X31412Y-39005D02*
X37546Y-39005D01*
X30694Y-39005D02*
X30829Y-39005D01*
X23412Y-39005D02*
X29546Y-39005D01*
X22694Y-39005D02*
X22829Y-39005D01*
X18395Y-39005D02*
X21546Y-39005D01*
X95308Y-38925D02*
X97845Y-38925D01*
X94673Y-38925D02*
X94933Y-38925D01*
X87308Y-38925D02*
X93284Y-38925D01*
X86673Y-38925D02*
X86933Y-38925D01*
X79308Y-38925D02*
X85285Y-38925D01*
X78673Y-38925D02*
X78933Y-38925D01*
X71308Y-38925D02*
X77567Y-38925D01*
X70673Y-38925D02*
X70933Y-38925D01*
X63308Y-38925D02*
X69567Y-38925D01*
X62673Y-38925D02*
X62933Y-38925D01*
X55308Y-38925D02*
X61567Y-38925D01*
X54673Y-38925D02*
X54933Y-38925D01*
X47308Y-38925D02*
X53567Y-38925D01*
X46673Y-38925D02*
X46933Y-38925D01*
X39308Y-38925D02*
X45567Y-38925D01*
X38673Y-38925D02*
X38933Y-38925D01*
X31308Y-38925D02*
X37567Y-38925D01*
X30673Y-38925D02*
X30933Y-38925D01*
X23308Y-38925D02*
X29567Y-38925D01*
X22673Y-38925D02*
X22933Y-38925D01*
X18395Y-38925D02*
X21567Y-38925D01*
X94617Y-38845D02*
X97845Y-38845D01*
X86617Y-38845D02*
X93204Y-38845D01*
X78617Y-38845D02*
X85205Y-38845D01*
X70617Y-38845D02*
X77623Y-38845D01*
X62617Y-38845D02*
X69623Y-38845D01*
X54617Y-38845D02*
X61623Y-38845D01*
X46617Y-38845D02*
X53623Y-38845D01*
X38617Y-38845D02*
X45623Y-38845D01*
X30617Y-38845D02*
X37623Y-38845D01*
X22617Y-38845D02*
X29623Y-38845D01*
X18395Y-38845D02*
X21623Y-38845D01*
X93945Y-38765D02*
X97845Y-38765D01*
X85946Y-38765D02*
X93124Y-38765D01*
X70410Y-38765D02*
X85125Y-38765D01*
X22410Y-38765D02*
X69830Y-38765D01*
X18395Y-38765D02*
X21830Y-38765D01*
X93865Y-38685D02*
X97845Y-38685D01*
X85866Y-38685D02*
X93044Y-38685D01*
X70410Y-38685D02*
X85045Y-38685D01*
X22410Y-38685D02*
X69830Y-38685D01*
X18395Y-38685D02*
X21830Y-38685D01*
X93785Y-38605D02*
X97845Y-38605D01*
X85786Y-38605D02*
X92964Y-38605D01*
X70410Y-38605D02*
X84965Y-38605D01*
X22410Y-38605D02*
X69830Y-38605D01*
X18395Y-38605D02*
X21830Y-38605D01*
X93705Y-38525D02*
X97845Y-38525D01*
X85706Y-38525D02*
X92884Y-38525D01*
X70410Y-38525D02*
X84885Y-38525D01*
X22410Y-38525D02*
X69830Y-38525D01*
X18395Y-38525D02*
X21830Y-38525D01*
X93625Y-38445D02*
X97845Y-38445D01*
X85626Y-38445D02*
X92804Y-38445D01*
X70410Y-38445D02*
X84805Y-38445D01*
X22410Y-38445D02*
X69830Y-38445D01*
X18395Y-38445D02*
X21830Y-38445D01*
X93545Y-38365D02*
X97845Y-38365D01*
X85546Y-38365D02*
X92724Y-38365D01*
X70410Y-38365D02*
X84725Y-38365D01*
X22410Y-38365D02*
X69830Y-38365D01*
X18395Y-38365D02*
X21830Y-38365D01*
X93465Y-38285D02*
X97845Y-38285D01*
X85466Y-38285D02*
X92644Y-38285D01*
X70410Y-38285D02*
X84645Y-38285D01*
X22410Y-38285D02*
X69830Y-38285D01*
X18395Y-38285D02*
X21830Y-38285D01*
X93385Y-38205D02*
X97845Y-38205D01*
X85386Y-38205D02*
X92564Y-38205D01*
X70410Y-38205D02*
X84565Y-38205D01*
X22410Y-38205D02*
X69830Y-38205D01*
X18395Y-38205D02*
X21830Y-38205D01*
X96469Y-38125D02*
X97845Y-38125D01*
X93305Y-38125D02*
X95770Y-38125D01*
X88469Y-38125D02*
X92484Y-38125D01*
X85306Y-38125D02*
X87770Y-38125D01*
X80469Y-38125D02*
X84485Y-38125D01*
X72469Y-38125D02*
X79770Y-38125D01*
X70410Y-38125D02*
X71770Y-38125D01*
X64469Y-38125D02*
X69830Y-38125D01*
X56469Y-38125D02*
X63770Y-38125D01*
X48469Y-38125D02*
X55770Y-38125D01*
X40469Y-38125D02*
X47770Y-38125D01*
X32469Y-38125D02*
X39770Y-38125D01*
X24469Y-38125D02*
X31770Y-38125D01*
X22410Y-38125D02*
X23770Y-38125D01*
X18395Y-38125D02*
X21830Y-38125D01*
X96626Y-38045D02*
X97845Y-38045D01*
X93225Y-38045D02*
X95613Y-38045D01*
X88626Y-38045D02*
X92404Y-38045D01*
X85226Y-38045D02*
X87613Y-38045D01*
X80626Y-38045D02*
X84405Y-38045D01*
X72626Y-38045D02*
X79613Y-38045D01*
X70410Y-38045D02*
X71613Y-38045D01*
X64626Y-38045D02*
X69830Y-38045D01*
X56626Y-38045D02*
X63613Y-38045D01*
X48626Y-38045D02*
X55613Y-38045D01*
X40626Y-38045D02*
X47613Y-38045D01*
X32626Y-38045D02*
X39613Y-38045D01*
X24626Y-38045D02*
X31613Y-38045D01*
X22410Y-38045D02*
X23613Y-38045D01*
X18395Y-38045D02*
X21830Y-38045D01*
X96706Y-37965D02*
X97845Y-37965D01*
X93145Y-37965D02*
X95533Y-37965D01*
X88706Y-37965D02*
X92324Y-37965D01*
X85146Y-37965D02*
X87533Y-37965D01*
X80706Y-37965D02*
X84325Y-37965D01*
X72706Y-37965D02*
X79533Y-37965D01*
X70410Y-37965D02*
X71533Y-37965D01*
X64706Y-37965D02*
X69830Y-37965D01*
X56706Y-37965D02*
X63533Y-37965D01*
X48706Y-37965D02*
X55533Y-37965D01*
X40706Y-37965D02*
X47533Y-37965D01*
X32706Y-37965D02*
X39533Y-37965D01*
X24706Y-37965D02*
X31533Y-37965D01*
X22410Y-37965D02*
X23533Y-37965D01*
X18395Y-37965D02*
X21830Y-37965D01*
X96786Y-37885D02*
X97845Y-37885D01*
X93065Y-37885D02*
X95453Y-37885D01*
X88786Y-37885D02*
X92244Y-37885D01*
X85066Y-37885D02*
X87453Y-37885D01*
X80786Y-37885D02*
X84245Y-37885D01*
X72786Y-37885D02*
X79453Y-37885D01*
X70410Y-37885D02*
X71453Y-37885D01*
X64786Y-37885D02*
X69830Y-37885D01*
X56786Y-37885D02*
X63453Y-37885D01*
X48786Y-37885D02*
X55453Y-37885D01*
X40786Y-37885D02*
X47453Y-37885D01*
X32786Y-37885D02*
X39453Y-37885D01*
X24786Y-37885D02*
X31453Y-37885D01*
X22410Y-37885D02*
X23453Y-37885D01*
X18395Y-37885D02*
X21830Y-37885D01*
X96851Y-37805D02*
X97845Y-37805D01*
X92985Y-37805D02*
X95388Y-37805D01*
X88851Y-37805D02*
X92164Y-37805D01*
X84986Y-37805D02*
X87388Y-37805D01*
X80851Y-37805D02*
X84165Y-37805D01*
X72851Y-37805D02*
X79388Y-37805D01*
X70410Y-37805D02*
X71388Y-37805D01*
X64851Y-37805D02*
X69830Y-37805D01*
X56851Y-37805D02*
X63388Y-37805D01*
X48851Y-37805D02*
X55388Y-37805D01*
X40851Y-37805D02*
X47388Y-37805D01*
X32851Y-37805D02*
X39388Y-37805D01*
X24851Y-37805D02*
X31388Y-37805D01*
X22410Y-37805D02*
X23388Y-37805D01*
X18395Y-37805D02*
X21830Y-37805D01*
X96884Y-37725D02*
X97845Y-37725D01*
X92905Y-37725D02*
X95355Y-37725D01*
X88884Y-37725D02*
X92084Y-37725D01*
X84906Y-37725D02*
X87355Y-37725D01*
X80884Y-37725D02*
X84085Y-37725D01*
X72884Y-37725D02*
X79355Y-37725D01*
X70410Y-37725D02*
X71355Y-37725D01*
X64884Y-37725D02*
X69830Y-37725D01*
X56884Y-37725D02*
X63355Y-37725D01*
X48884Y-37725D02*
X55355Y-37725D01*
X40884Y-37725D02*
X47355Y-37725D01*
X32884Y-37725D02*
X39355Y-37725D01*
X24884Y-37725D02*
X31355Y-37725D01*
X22410Y-37725D02*
X23355Y-37725D01*
X18395Y-37725D02*
X21830Y-37725D01*
X96917Y-37645D02*
X97845Y-37645D01*
X92825Y-37645D02*
X95322Y-37645D01*
X88917Y-37645D02*
X92004Y-37645D01*
X84826Y-37645D02*
X87322Y-37645D01*
X80917Y-37645D02*
X84005Y-37645D01*
X72917Y-37645D02*
X79322Y-37645D01*
X70410Y-37645D02*
X71322Y-37645D01*
X64917Y-37645D02*
X69830Y-37645D01*
X56917Y-37645D02*
X63322Y-37645D01*
X48917Y-37645D02*
X55322Y-37645D01*
X40917Y-37645D02*
X47322Y-37645D01*
X32917Y-37645D02*
X39322Y-37645D01*
X24917Y-37645D02*
X31322Y-37645D01*
X22410Y-37645D02*
X23322Y-37645D01*
X18395Y-37645D02*
X21830Y-37645D01*
X96951Y-37565D02*
X97845Y-37565D01*
X92745Y-37565D02*
X95289Y-37565D01*
X88951Y-37565D02*
X91924Y-37565D01*
X84746Y-37565D02*
X87289Y-37565D01*
X80951Y-37565D02*
X83925Y-37565D01*
X72951Y-37565D02*
X79289Y-37565D01*
X70410Y-37565D02*
X71289Y-37565D01*
X64951Y-37565D02*
X69830Y-37565D01*
X56951Y-37565D02*
X63289Y-37565D01*
X48951Y-37565D02*
X55289Y-37565D01*
X40951Y-37565D02*
X47289Y-37565D01*
X32951Y-37565D02*
X39289Y-37565D01*
X24951Y-37565D02*
X31289Y-37565D01*
X22410Y-37565D02*
X23289Y-37565D01*
X18395Y-37565D02*
X21830Y-37565D01*
X96970Y-37485D02*
X97845Y-37485D01*
X92665Y-37485D02*
X95270Y-37485D01*
X88970Y-37485D02*
X91844Y-37485D01*
X84666Y-37485D02*
X87270Y-37485D01*
X80970Y-37485D02*
X83845Y-37485D01*
X72970Y-37485D02*
X79270Y-37485D01*
X70410Y-37485D02*
X71270Y-37485D01*
X64970Y-37485D02*
X69830Y-37485D01*
X56970Y-37485D02*
X63270Y-37485D01*
X48970Y-37485D02*
X55270Y-37485D01*
X40970Y-37485D02*
X47270Y-37485D01*
X32970Y-37485D02*
X39270Y-37485D01*
X24970Y-37485D02*
X31270Y-37485D01*
X22410Y-37485D02*
X23270Y-37485D01*
X18395Y-37485D02*
X21830Y-37485D01*
X96970Y-37405D02*
X97845Y-37405D01*
X92585Y-37405D02*
X95270Y-37405D01*
X88970Y-37405D02*
X91764Y-37405D01*
X84586Y-37405D02*
X87270Y-37405D01*
X80970Y-37405D02*
X83765Y-37405D01*
X72970Y-37405D02*
X79270Y-37405D01*
X70410Y-37405D02*
X71270Y-37405D01*
X64970Y-37405D02*
X69830Y-37405D01*
X56970Y-37405D02*
X63270Y-37405D01*
X48970Y-37405D02*
X55270Y-37405D01*
X40970Y-37405D02*
X47270Y-37405D01*
X32970Y-37405D02*
X39270Y-37405D01*
X24970Y-37405D02*
X31270Y-37405D01*
X22410Y-37405D02*
X23270Y-37405D01*
X18395Y-37405D02*
X21830Y-37405D01*
X96970Y-37325D02*
X97845Y-37325D01*
X92505Y-37325D02*
X95270Y-37325D01*
X88970Y-37325D02*
X91684Y-37325D01*
X84506Y-37325D02*
X87270Y-37325D01*
X80970Y-37325D02*
X83685Y-37325D01*
X72970Y-37325D02*
X79270Y-37325D01*
X70485Y-37325D02*
X71270Y-37325D01*
X64970Y-37325D02*
X69830Y-37325D01*
X56970Y-37325D02*
X63270Y-37325D01*
X48970Y-37325D02*
X55270Y-37325D01*
X40970Y-37325D02*
X47270Y-37325D01*
X32970Y-37325D02*
X39270Y-37325D01*
X24970Y-37325D02*
X31270Y-37325D01*
X22410Y-37325D02*
X23270Y-37325D01*
X18395Y-37325D02*
X21830Y-37325D01*
X96970Y-37245D02*
X97845Y-37245D01*
X92425Y-37245D02*
X95270Y-37245D01*
X88970Y-37245D02*
X91604Y-37245D01*
X84426Y-37245D02*
X87270Y-37245D01*
X80970Y-37245D02*
X83605Y-37245D01*
X72970Y-37245D02*
X79270Y-37245D01*
X70565Y-37245D02*
X71270Y-37245D01*
X64970Y-37245D02*
X69837Y-37245D01*
X56970Y-37245D02*
X63270Y-37245D01*
X48970Y-37245D02*
X55270Y-37245D01*
X40970Y-37245D02*
X47270Y-37245D01*
X32970Y-37245D02*
X39270Y-37245D01*
X24970Y-37245D02*
X31270Y-37245D01*
X22410Y-37245D02*
X23270Y-37245D01*
X18395Y-37245D02*
X21830Y-37245D01*
X96963Y-37165D02*
X97845Y-37165D01*
X92345Y-37165D02*
X95277Y-37165D01*
X88963Y-37165D02*
X91524Y-37165D01*
X84346Y-37165D02*
X87277Y-37165D01*
X80963Y-37165D02*
X83525Y-37165D01*
X72963Y-37165D02*
X79277Y-37165D01*
X70645Y-37165D02*
X71277Y-37165D01*
X64963Y-37165D02*
X69855Y-37165D01*
X56963Y-37165D02*
X63277Y-37165D01*
X48963Y-37165D02*
X55277Y-37165D01*
X40963Y-37165D02*
X47277Y-37165D01*
X32963Y-37165D02*
X39277Y-37165D01*
X24963Y-37165D02*
X31277Y-37165D01*
X22435Y-37165D02*
X23277Y-37165D01*
X18395Y-37165D02*
X21830Y-37165D01*
X96930Y-37085D02*
X97845Y-37085D01*
X92265Y-37085D02*
X95310Y-37085D01*
X88930Y-37085D02*
X91444Y-37085D01*
X84266Y-37085D02*
X87310Y-37085D01*
X80930Y-37085D02*
X83445Y-37085D01*
X72930Y-37085D02*
X79310Y-37085D01*
X70725Y-37085D02*
X71310Y-37085D01*
X64930Y-37085D02*
X69909Y-37085D01*
X56930Y-37085D02*
X63310Y-37085D01*
X48930Y-37085D02*
X55310Y-37085D01*
X40930Y-37085D02*
X47310Y-37085D01*
X32930Y-37085D02*
X39310Y-37085D01*
X24930Y-37085D02*
X31310Y-37085D01*
X22515Y-37085D02*
X23310Y-37085D01*
X18395Y-37085D02*
X21830Y-37085D01*
X96897Y-37005D02*
X97845Y-37005D01*
X92185Y-37005D02*
X95343Y-37005D01*
X88897Y-37005D02*
X91364Y-37005D01*
X84186Y-37005D02*
X87343Y-37005D01*
X80897Y-37005D02*
X83365Y-37005D01*
X72897Y-37005D02*
X79343Y-37005D01*
X70805Y-37005D02*
X71343Y-37005D01*
X64897Y-37005D02*
X69985Y-37005D01*
X56897Y-37005D02*
X63343Y-37005D01*
X48897Y-37005D02*
X55343Y-37005D01*
X40897Y-37005D02*
X47343Y-37005D01*
X32897Y-37005D02*
X39343Y-37005D01*
X24897Y-37005D02*
X31343Y-37005D01*
X22595Y-37005D02*
X23343Y-37005D01*
X18395Y-37005D02*
X21843Y-37005D01*
X96864Y-36925D02*
X97845Y-36925D01*
X92105Y-36925D02*
X95377Y-36925D01*
X88864Y-36925D02*
X91284Y-36925D01*
X84106Y-36925D02*
X87377Y-36925D01*
X80864Y-36925D02*
X83285Y-36925D01*
X72864Y-36925D02*
X79377Y-36925D01*
X70885Y-36925D02*
X71377Y-36925D01*
X64864Y-36925D02*
X70065Y-36925D01*
X56864Y-36925D02*
X63377Y-36925D01*
X48864Y-36925D02*
X55377Y-36925D01*
X40864Y-36925D02*
X47377Y-36925D01*
X32864Y-36925D02*
X39377Y-36925D01*
X24864Y-36925D02*
X31377Y-36925D01*
X22675Y-36925D02*
X23377Y-36925D01*
X18395Y-36925D02*
X21875Y-36925D01*
X96817Y-36845D02*
X97845Y-36845D01*
X92025Y-36845D02*
X95424Y-36845D01*
X88817Y-36845D02*
X91204Y-36845D01*
X84026Y-36845D02*
X87424Y-36845D01*
X80817Y-36845D02*
X83205Y-36845D01*
X72817Y-36845D02*
X79424Y-36845D01*
X70965Y-36845D02*
X71424Y-36845D01*
X64817Y-36845D02*
X70145Y-36845D01*
X56817Y-36845D02*
X63424Y-36845D01*
X48817Y-36845D02*
X55424Y-36845D01*
X40817Y-36845D02*
X47424Y-36845D01*
X32817Y-36845D02*
X39424Y-36845D01*
X24817Y-36845D02*
X31424Y-36845D01*
X22755Y-36845D02*
X23424Y-36845D01*
X18395Y-36845D02*
X21935Y-36845D01*
X96737Y-36765D02*
X97845Y-36765D01*
X91945Y-36765D02*
X95504Y-36765D01*
X88737Y-36765D02*
X91124Y-36765D01*
X83946Y-36765D02*
X87504Y-36765D01*
X80737Y-36765D02*
X83125Y-36765D01*
X72737Y-36765D02*
X79504Y-36765D01*
X71045Y-36765D02*
X71504Y-36765D01*
X64737Y-36765D02*
X70225Y-36765D01*
X56737Y-36765D02*
X63504Y-36765D01*
X48737Y-36765D02*
X55504Y-36765D01*
X40737Y-36765D02*
X47504Y-36765D01*
X32737Y-36765D02*
X39504Y-36765D01*
X24737Y-36765D02*
X31504Y-36765D01*
X22835Y-36765D02*
X23504Y-36765D01*
X18395Y-36765D02*
X22015Y-36765D01*
X96657Y-36685D02*
X97845Y-36685D01*
X91865Y-36685D02*
X95584Y-36685D01*
X88657Y-36685D02*
X91044Y-36685D01*
X83866Y-36685D02*
X87584Y-36685D01*
X80657Y-36685D02*
X83045Y-36685D01*
X72657Y-36685D02*
X79584Y-36685D01*
X71125Y-36685D02*
X71584Y-36685D01*
X64657Y-36685D02*
X70305Y-36685D01*
X56657Y-36685D02*
X63584Y-36685D01*
X48657Y-36685D02*
X55584Y-36685D01*
X40657Y-36685D02*
X47584Y-36685D01*
X32657Y-36685D02*
X39584Y-36685D01*
X24657Y-36685D02*
X31584Y-36685D01*
X22915Y-36685D02*
X23584Y-36685D01*
X18395Y-36685D02*
X22095Y-36685D01*
X96542Y-36605D02*
X97845Y-36605D01*
X91785Y-36605D02*
X95699Y-36605D01*
X88542Y-36605D02*
X90964Y-36605D01*
X83786Y-36605D02*
X87699Y-36605D01*
X80542Y-36605D02*
X82965Y-36605D01*
X72542Y-36605D02*
X79699Y-36605D01*
X71205Y-36605D02*
X71699Y-36605D01*
X64542Y-36605D02*
X70385Y-36605D01*
X56542Y-36605D02*
X63699Y-36605D01*
X48542Y-36605D02*
X55699Y-36605D01*
X40542Y-36605D02*
X47699Y-36605D01*
X32542Y-36605D02*
X39699Y-36605D01*
X24542Y-36605D02*
X31699Y-36605D01*
X22995Y-36605D02*
X23699Y-36605D01*
X18395Y-36605D02*
X22175Y-36605D01*
X96350Y-36525D02*
X97845Y-36525D01*
X91705Y-36525D02*
X95892Y-36525D01*
X88350Y-36525D02*
X90884Y-36525D01*
X83706Y-36525D02*
X87892Y-36525D01*
X80350Y-36525D02*
X82885Y-36525D01*
X72350Y-36525D02*
X79892Y-36525D01*
X71285Y-36525D02*
X71892Y-36525D01*
X64350Y-36525D02*
X70465Y-36525D01*
X56350Y-36525D02*
X63892Y-36525D01*
X48350Y-36525D02*
X55892Y-36525D01*
X40350Y-36525D02*
X47892Y-36525D01*
X32350Y-36525D02*
X39892Y-36525D01*
X24350Y-36525D02*
X31892Y-36525D01*
X23075Y-36525D02*
X23892Y-36525D01*
X18395Y-36525D02*
X22255Y-36525D01*
X91625Y-36445D02*
X97845Y-36445D01*
X83626Y-36445D02*
X90804Y-36445D01*
X71365Y-36445D02*
X82805Y-36445D01*
X23155Y-36445D02*
X70545Y-36445D01*
X18395Y-36445D02*
X22335Y-36445D01*
X91545Y-36365D02*
X97845Y-36365D01*
X83546Y-36365D02*
X90724Y-36365D01*
X71445Y-36365D02*
X82725Y-36365D01*
X23235Y-36365D02*
X70625Y-36365D01*
X18395Y-36365D02*
X22415Y-36365D01*
X91465Y-36285D02*
X97845Y-36285D01*
X83466Y-36285D02*
X90644Y-36285D01*
X71525Y-36285D02*
X82645Y-36285D01*
X23315Y-36285D02*
X70705Y-36285D01*
X18395Y-36285D02*
X22495Y-36285D01*
X91385Y-36205D02*
X97845Y-36205D01*
X83386Y-36205D02*
X90564Y-36205D01*
X71605Y-36205D02*
X82565Y-36205D01*
X23395Y-36205D02*
X70785Y-36205D01*
X18395Y-36205D02*
X22575Y-36205D01*
X91305Y-36125D02*
X97845Y-36125D01*
X83306Y-36125D02*
X90484Y-36125D01*
X71685Y-36125D02*
X82485Y-36125D01*
X23475Y-36125D02*
X70865Y-36125D01*
X18395Y-36125D02*
X22655Y-36125D01*
X91225Y-36045D02*
X97845Y-36045D01*
X83226Y-36045D02*
X90404Y-36045D01*
X71765Y-36045D02*
X82405Y-36045D01*
X23555Y-36045D02*
X70945Y-36045D01*
X18395Y-36045D02*
X22735Y-36045D01*
X91145Y-35965D02*
X97845Y-35965D01*
X83146Y-35965D02*
X90324Y-35965D01*
X71845Y-35965D02*
X82325Y-35965D01*
X23635Y-35965D02*
X71025Y-35965D01*
X18395Y-35965D02*
X22815Y-35965D01*
X91065Y-35885D02*
X97845Y-35885D01*
X83066Y-35885D02*
X90244Y-35885D01*
X71925Y-35885D02*
X82245Y-35885D01*
X23715Y-35885D02*
X71105Y-35885D01*
X18395Y-35885D02*
X22895Y-35885D01*
X90985Y-35805D02*
X97845Y-35805D01*
X82986Y-35805D02*
X90164Y-35805D01*
X72005Y-35805D02*
X82165Y-35805D01*
X23795Y-35805D02*
X71185Y-35805D01*
X18395Y-35805D02*
X22975Y-35805D01*
X90905Y-35725D02*
X97845Y-35725D01*
X82906Y-35725D02*
X90084Y-35725D01*
X72085Y-35725D02*
X82085Y-35725D01*
X23875Y-35725D02*
X71265Y-35725D01*
X18395Y-35725D02*
X23055Y-35725D01*
X90825Y-35645D02*
X97845Y-35645D01*
X82826Y-35645D02*
X90004Y-35645D01*
X72165Y-35645D02*
X82005Y-35645D01*
X23955Y-35645D02*
X71345Y-35645D01*
X18395Y-35645D02*
X23135Y-35645D01*
X90745Y-35565D02*
X97845Y-35565D01*
X82746Y-35565D02*
X89924Y-35565D01*
X72245Y-35565D02*
X81925Y-35565D01*
X24035Y-35565D02*
X71425Y-35565D01*
X18395Y-35565D02*
X23215Y-35565D01*
X90665Y-35485D02*
X97845Y-35485D01*
X82666Y-35485D02*
X89844Y-35485D01*
X72325Y-35485D02*
X81845Y-35485D01*
X24115Y-35485D02*
X71505Y-35485D01*
X18395Y-35485D02*
X23295Y-35485D01*
X90585Y-35405D02*
X97845Y-35405D01*
X82586Y-35405D02*
X89764Y-35405D01*
X72405Y-35405D02*
X81765Y-35405D01*
X24195Y-35405D02*
X71585Y-35405D01*
X18395Y-35405D02*
X23375Y-35405D01*
X90505Y-35325D02*
X97845Y-35325D01*
X82506Y-35325D02*
X89684Y-35325D01*
X72485Y-35325D02*
X81685Y-35325D01*
X24275Y-35325D02*
X71665Y-35325D01*
X18395Y-35325D02*
X23455Y-35325D01*
X90425Y-35245D02*
X97845Y-35245D01*
X82426Y-35245D02*
X89604Y-35245D01*
X72565Y-35245D02*
X81605Y-35245D01*
X24355Y-35245D02*
X71745Y-35245D01*
X18395Y-35245D02*
X23535Y-35245D01*
X90345Y-35165D02*
X97845Y-35165D01*
X82346Y-35165D02*
X89524Y-35165D01*
X72645Y-35165D02*
X81525Y-35165D01*
X24435Y-35165D02*
X71825Y-35165D01*
X18395Y-35165D02*
X23615Y-35165D01*
X90265Y-35085D02*
X97845Y-35085D01*
X82266Y-35085D02*
X89444Y-35085D01*
X72725Y-35085D02*
X81468Y-35085D01*
X24515Y-35085D02*
X71905Y-35085D01*
X18395Y-35085D02*
X23695Y-35085D01*
X90185Y-35005D02*
X97845Y-35005D01*
X82186Y-35005D02*
X89364Y-35005D01*
X72805Y-35005D02*
X81440Y-35005D01*
X24595Y-35005D02*
X71985Y-35005D01*
X18395Y-35005D02*
X23775Y-35005D01*
X90105Y-34925D02*
X97845Y-34925D01*
X82106Y-34925D02*
X89284Y-34925D01*
X72885Y-34925D02*
X81430Y-34925D01*
X24675Y-34925D02*
X72065Y-34925D01*
X18395Y-34925D02*
X23855Y-34925D01*
X90025Y-34845D02*
X97845Y-34845D01*
X82026Y-34845D02*
X89204Y-34845D01*
X72965Y-34845D02*
X81430Y-34845D01*
X24755Y-34845D02*
X72145Y-34845D01*
X18395Y-34845D02*
X23935Y-34845D01*
X89945Y-34765D02*
X97845Y-34765D01*
X82010Y-34765D02*
X89124Y-34765D01*
X73045Y-34765D02*
X81430Y-34765D01*
X24835Y-34765D02*
X72225Y-34765D01*
X18395Y-34765D02*
X24015Y-34765D01*
X89865Y-34685D02*
X97845Y-34685D01*
X82010Y-34685D02*
X85730Y-34685D01*
X73125Y-34685D02*
X81430Y-34685D01*
X24915Y-34685D02*
X72305Y-34685D01*
X18395Y-34685D02*
X24095Y-34685D01*
X89785Y-34605D02*
X97845Y-34605D01*
X82010Y-34605D02*
X85635Y-34605D01*
X73205Y-34605D02*
X81430Y-34605D01*
X24995Y-34605D02*
X72385Y-34605D01*
X18395Y-34605D02*
X24175Y-34605D01*
X89705Y-34525D02*
X97845Y-34525D01*
X82010Y-34525D02*
X85555Y-34525D01*
X73285Y-34525D02*
X81430Y-34525D01*
X25075Y-34525D02*
X72465Y-34525D01*
X18395Y-34525D02*
X24255Y-34525D01*
X89625Y-34445D02*
X97845Y-34445D01*
X82010Y-34445D02*
X85475Y-34445D01*
X73365Y-34445D02*
X81430Y-34445D01*
X25155Y-34445D02*
X72545Y-34445D01*
X18395Y-34445D02*
X24335Y-34445D01*
X89545Y-34365D02*
X97845Y-34365D01*
X82010Y-34365D02*
X85395Y-34365D01*
X73445Y-34365D02*
X81430Y-34365D01*
X25235Y-34365D02*
X72625Y-34365D01*
X18395Y-34365D02*
X24415Y-34365D01*
X89465Y-34285D02*
X97845Y-34285D01*
X82010Y-34285D02*
X85315Y-34285D01*
X73525Y-34285D02*
X81430Y-34285D01*
X25315Y-34285D02*
X72705Y-34285D01*
X18395Y-34285D02*
X24495Y-34285D01*
X89366Y-34205D02*
X97845Y-34205D01*
X82010Y-34205D02*
X85235Y-34205D01*
X73605Y-34205D02*
X81430Y-34205D01*
X25395Y-34205D02*
X72785Y-34205D01*
X18395Y-34205D02*
X24575Y-34205D01*
X85975Y-34125D02*
X97845Y-34125D01*
X82010Y-34125D02*
X85155Y-34125D01*
X73685Y-34125D02*
X81430Y-34125D01*
X25475Y-34125D02*
X72865Y-34125D01*
X18395Y-34125D02*
X24655Y-34125D01*
X85895Y-34045D02*
X97845Y-34045D01*
X82010Y-34045D02*
X85075Y-34045D01*
X73765Y-34045D02*
X81430Y-34045D01*
X25555Y-34045D02*
X72945Y-34045D01*
X18395Y-34045D02*
X24735Y-34045D01*
X85815Y-33965D02*
X97845Y-33965D01*
X82010Y-33965D02*
X84995Y-33965D01*
X73845Y-33965D02*
X81430Y-33965D01*
X25635Y-33965D02*
X73025Y-33965D01*
X18395Y-33965D02*
X24815Y-33965D01*
X85735Y-33885D02*
X97845Y-33885D01*
X82010Y-33885D02*
X84915Y-33885D01*
X73925Y-33885D02*
X81430Y-33885D01*
X25715Y-33885D02*
X73105Y-33885D01*
X18395Y-33885D02*
X24895Y-33885D01*
X85655Y-33805D02*
X97845Y-33805D01*
X82010Y-33805D02*
X84835Y-33805D01*
X74005Y-33805D02*
X81430Y-33805D01*
X25795Y-33805D02*
X73185Y-33805D01*
X18395Y-33805D02*
X24975Y-33805D01*
X85575Y-33725D02*
X97845Y-33725D01*
X82010Y-33725D02*
X84755Y-33725D01*
X74085Y-33725D02*
X81430Y-33725D01*
X25875Y-33725D02*
X73265Y-33725D01*
X18395Y-33725D02*
X25055Y-33725D01*
X85495Y-33645D02*
X97845Y-33645D01*
X82010Y-33645D02*
X84675Y-33645D01*
X77425Y-33645D02*
X81430Y-33645D01*
X25955Y-33645D02*
X73345Y-33645D01*
X18395Y-33645D02*
X25135Y-33645D01*
X85415Y-33565D02*
X97845Y-33565D01*
X82010Y-33565D02*
X84595Y-33565D01*
X77525Y-33565D02*
X81430Y-33565D01*
X26035Y-33565D02*
X73425Y-33565D01*
X18395Y-33565D02*
X25215Y-33565D01*
X85335Y-33485D02*
X97845Y-33485D01*
X82010Y-33485D02*
X84515Y-33485D01*
X77605Y-33485D02*
X81430Y-33485D01*
X26115Y-33485D02*
X73505Y-33485D01*
X18395Y-33485D02*
X25295Y-33485D01*
X85255Y-33405D02*
X97845Y-33405D01*
X82010Y-33405D02*
X84435Y-33405D01*
X77685Y-33405D02*
X81430Y-33405D01*
X26195Y-33405D02*
X73585Y-33405D01*
X18395Y-33405D02*
X25375Y-33405D01*
X85175Y-33325D02*
X97845Y-33325D01*
X82010Y-33325D02*
X84355Y-33325D01*
X77765Y-33325D02*
X81430Y-33325D01*
X26275Y-33325D02*
X73665Y-33325D01*
X18395Y-33325D02*
X25455Y-33325D01*
X85095Y-33245D02*
X97845Y-33245D01*
X82010Y-33245D02*
X84275Y-33245D01*
X77845Y-33245D02*
X81430Y-33245D01*
X26355Y-33245D02*
X73745Y-33245D01*
X18395Y-33245D02*
X25535Y-33245D01*
X85015Y-33165D02*
X97845Y-33165D01*
X82010Y-33165D02*
X84195Y-33165D01*
X77925Y-33165D02*
X81430Y-33165D01*
X26435Y-33165D02*
X73840Y-33165D01*
X18395Y-33165D02*
X25615Y-33165D01*
X84935Y-33085D02*
X97845Y-33085D01*
X82010Y-33085D02*
X84115Y-33085D01*
X78005Y-33085D02*
X81430Y-33085D01*
X26515Y-33085D02*
X77185Y-33085D01*
X18395Y-33085D02*
X25695Y-33085D01*
X84855Y-33005D02*
X97845Y-33005D01*
X82010Y-33005D02*
X84035Y-33005D01*
X78085Y-33005D02*
X81430Y-33005D01*
X26595Y-33005D02*
X77265Y-33005D01*
X18395Y-33005D02*
X25775Y-33005D01*
X84775Y-32925D02*
X97845Y-32925D01*
X82010Y-32925D02*
X83955Y-32925D01*
X78165Y-32925D02*
X81430Y-32925D01*
X26675Y-32925D02*
X77345Y-32925D01*
X18395Y-32925D02*
X25855Y-32925D01*
X84695Y-32845D02*
X97845Y-32845D01*
X82010Y-32845D02*
X83875Y-32845D01*
X78245Y-32845D02*
X81430Y-32845D01*
X26755Y-32845D02*
X77425Y-32845D01*
X18395Y-32845D02*
X25935Y-32845D01*
X84615Y-32765D02*
X97845Y-32765D01*
X82010Y-32765D02*
X83795Y-32765D01*
X78325Y-32765D02*
X81430Y-32765D01*
X26835Y-32765D02*
X77505Y-32765D01*
X18395Y-32765D02*
X26015Y-32765D01*
X84535Y-32685D02*
X97845Y-32685D01*
X82010Y-32685D02*
X83715Y-32685D01*
X78405Y-32685D02*
X81430Y-32685D01*
X26915Y-32685D02*
X77585Y-32685D01*
X18395Y-32685D02*
X26095Y-32685D01*
X84455Y-32605D02*
X97845Y-32605D01*
X82010Y-32605D02*
X83635Y-32605D01*
X78485Y-32605D02*
X81430Y-32605D01*
X26995Y-32605D02*
X77665Y-32605D01*
X18395Y-32605D02*
X26175Y-32605D01*
X84375Y-32525D02*
X97845Y-32525D01*
X82010Y-32525D02*
X83555Y-32525D01*
X78565Y-32525D02*
X81430Y-32525D01*
X54335Y-32525D02*
X77745Y-32525D01*
X27075Y-32525D02*
X53905Y-32525D01*
X18395Y-32525D02*
X26255Y-32525D01*
X84295Y-32445D02*
X97845Y-32445D01*
X82010Y-32445D02*
X83475Y-32445D01*
X78645Y-32445D02*
X81430Y-32445D01*
X54415Y-32445D02*
X77825Y-32445D01*
X18395Y-32445D02*
X26335Y-32445D01*
X84215Y-32365D02*
X97845Y-32365D01*
X82010Y-32365D02*
X83395Y-32365D01*
X78725Y-32365D02*
X81430Y-32365D01*
X54461Y-32365D02*
X77905Y-32365D01*
X18395Y-32365D02*
X26415Y-32365D01*
X84135Y-32285D02*
X97845Y-32285D01*
X82010Y-32285D02*
X83315Y-32285D01*
X78805Y-32285D02*
X81430Y-32285D01*
X54495Y-32285D02*
X77985Y-32285D01*
X18395Y-32285D02*
X26495Y-32285D01*
X84055Y-32205D02*
X97845Y-32205D01*
X82010Y-32205D02*
X83235Y-32205D01*
X78885Y-32205D02*
X81430Y-32205D01*
X54495Y-32205D02*
X78065Y-32205D01*
X18395Y-32205D02*
X26575Y-32205D01*
X83975Y-32125D02*
X97845Y-32125D01*
X82010Y-32125D02*
X83155Y-32125D01*
X78965Y-32125D02*
X81430Y-32125D01*
X54491Y-32125D02*
X78145Y-32125D01*
X18395Y-32125D02*
X26655Y-32125D01*
X83895Y-32045D02*
X97845Y-32045D01*
X82010Y-32045D02*
X83075Y-32045D01*
X79045Y-32045D02*
X81430Y-32045D01*
X54458Y-32045D02*
X78225Y-32045D01*
X18395Y-32045D02*
X26735Y-32045D01*
X83815Y-31965D02*
X97845Y-31965D01*
X82010Y-31965D02*
X82995Y-31965D01*
X79125Y-31965D02*
X81430Y-31965D01*
X55835Y-31965D02*
X78305Y-31965D01*
X18395Y-31965D02*
X26835Y-31965D01*
X83735Y-31885D02*
X97845Y-31885D01*
X82010Y-31885D02*
X82915Y-31885D01*
X79205Y-31885D02*
X81430Y-31885D01*
X55915Y-31885D02*
X78385Y-31885D01*
X18395Y-31885D02*
X38945Y-31885D01*
X83655Y-31805D02*
X97845Y-31805D01*
X82010Y-31805D02*
X82835Y-31805D01*
X79285Y-31805D02*
X81430Y-31805D01*
X55961Y-31805D02*
X78465Y-31805D01*
X18395Y-31805D02*
X38865Y-31805D01*
X83575Y-31725D02*
X97845Y-31725D01*
X82010Y-31725D02*
X82755Y-31725D01*
X79365Y-31725D02*
X81430Y-31725D01*
X55995Y-31725D02*
X78545Y-31725D01*
X18395Y-31725D02*
X38785Y-31725D01*
X83495Y-31645D02*
X97845Y-31645D01*
X82010Y-31645D02*
X82675Y-31645D01*
X79445Y-31645D02*
X81430Y-31645D01*
X56955Y-31645D02*
X78625Y-31645D01*
X55995Y-31645D02*
X56485Y-31645D01*
X18395Y-31645D02*
X38705Y-31645D01*
X83415Y-31565D02*
X97845Y-31565D01*
X82010Y-31565D02*
X82595Y-31565D01*
X79525Y-31565D02*
X81430Y-31565D01*
X57035Y-31565D02*
X78705Y-31565D01*
X18395Y-31565D02*
X38625Y-31565D01*
X83335Y-31485D02*
X97845Y-31485D01*
X82010Y-31485D02*
X82515Y-31485D01*
X79605Y-31485D02*
X81430Y-31485D01*
X57069Y-31485D02*
X78785Y-31485D01*
X18395Y-31485D02*
X38545Y-31485D01*
X83255Y-31405D02*
X97845Y-31405D01*
X82010Y-31405D02*
X82435Y-31405D01*
X79685Y-31405D02*
X81430Y-31405D01*
X57095Y-31405D02*
X78865Y-31405D01*
X18395Y-31405D02*
X38465Y-31405D01*
X83175Y-31325D02*
X97845Y-31325D01*
X82010Y-31325D02*
X82355Y-31325D01*
X79765Y-31325D02*
X81430Y-31325D01*
X57095Y-31325D02*
X78945Y-31325D01*
X18395Y-31325D02*
X38385Y-31325D01*
X83095Y-31245D02*
X97845Y-31245D01*
X82010Y-31245D02*
X82275Y-31245D01*
X79845Y-31245D02*
X81430Y-31245D01*
X57710Y-31245D02*
X79025Y-31245D01*
X57082Y-31245D02*
X57369Y-31245D01*
X18395Y-31245D02*
X38305Y-31245D01*
X83015Y-31165D02*
X97845Y-31165D01*
X82010Y-31165D02*
X82195Y-31165D01*
X79925Y-31165D02*
X81430Y-31165D01*
X57815Y-31165D02*
X79105Y-31165D01*
X18395Y-31165D02*
X38225Y-31165D01*
X82935Y-31085D02*
X97845Y-31085D01*
X82010Y-31085D02*
X82115Y-31085D01*
X80005Y-31085D02*
X81430Y-31085D01*
X57872Y-31085D02*
X79185Y-31085D01*
X18395Y-31085D02*
X38145Y-31085D01*
X82855Y-31005D02*
X97845Y-31005D01*
X82010Y-31005D02*
X82035Y-31005D01*
X80085Y-31005D02*
X81430Y-31005D01*
X57906Y-31005D02*
X79265Y-31005D01*
X18395Y-31005D02*
X38065Y-31005D01*
X82775Y-30925D02*
X97845Y-30925D01*
X80165Y-30925D02*
X81430Y-30925D01*
X57915Y-30925D02*
X79345Y-30925D01*
X18395Y-30925D02*
X37985Y-30925D01*
X82695Y-30845D02*
X97845Y-30845D01*
X80245Y-30845D02*
X81430Y-30845D01*
X57915Y-30845D02*
X79425Y-30845D01*
X18395Y-30845D02*
X37905Y-30845D01*
X82615Y-30765D02*
X97845Y-30765D01*
X80325Y-30765D02*
X81430Y-30765D01*
X57886Y-30765D02*
X79505Y-30765D01*
X18395Y-30765D02*
X37825Y-30765D01*
X82535Y-30685D02*
X97845Y-30685D01*
X80405Y-30685D02*
X81430Y-30685D01*
X57845Y-30685D02*
X79585Y-30685D01*
X18395Y-30685D02*
X37745Y-30685D01*
X82510Y-30605D02*
X97845Y-30605D01*
X80484Y-30605D02*
X81430Y-30605D01*
X57765Y-30605D02*
X79665Y-30605D01*
X40555Y-30605D02*
X57315Y-30605D01*
X18395Y-30605D02*
X37665Y-30605D01*
X82510Y-30525D02*
X97845Y-30525D01*
X80564Y-30525D02*
X81430Y-30525D01*
X40475Y-30525D02*
X79745Y-30525D01*
X18395Y-30525D02*
X37585Y-30525D01*
X82510Y-30445D02*
X97845Y-30445D01*
X80644Y-30445D02*
X81430Y-30445D01*
X40395Y-30445D02*
X79825Y-30445D01*
X18395Y-30445D02*
X37505Y-30445D01*
X82510Y-30365D02*
X97845Y-30365D01*
X80724Y-30365D02*
X81430Y-30365D01*
X43955Y-30365D02*
X79905Y-30365D01*
X40315Y-30365D02*
X43485Y-30365D01*
X18395Y-30365D02*
X37425Y-30365D01*
X82510Y-30285D02*
X97845Y-30285D01*
X80804Y-30285D02*
X81430Y-30285D01*
X44035Y-30285D02*
X79985Y-30285D01*
X40235Y-30285D02*
X43405Y-30285D01*
X18395Y-30285D02*
X37345Y-30285D01*
X82510Y-30205D02*
X97845Y-30205D01*
X80884Y-30205D02*
X81430Y-30205D01*
X44069Y-30205D02*
X80065Y-30205D01*
X40155Y-30205D02*
X43370Y-30205D01*
X18395Y-30205D02*
X37265Y-30205D01*
X82510Y-30125D02*
X97845Y-30125D01*
X80951Y-30125D02*
X81430Y-30125D01*
X44095Y-30125D02*
X80145Y-30125D01*
X40075Y-30125D02*
X43345Y-30125D01*
X18395Y-30125D02*
X37185Y-30125D01*
X82510Y-30045D02*
X97845Y-30045D01*
X80993Y-30045D02*
X81430Y-30045D01*
X44154Y-30045D02*
X80225Y-30045D01*
X39995Y-30045D02*
X43345Y-30045D01*
X18395Y-30045D02*
X37105Y-30045D01*
X82510Y-29965D02*
X97845Y-29965D01*
X81009Y-29965D02*
X81430Y-29965D01*
X44234Y-29965D02*
X80305Y-29965D01*
X39915Y-29965D02*
X43358Y-29965D01*
X18395Y-29965D02*
X37025Y-29965D01*
X82510Y-29885D02*
X97845Y-29885D01*
X81010Y-29885D02*
X81430Y-29885D01*
X44314Y-29885D02*
X80385Y-29885D01*
X39835Y-29885D02*
X43392Y-29885D01*
X18395Y-29885D02*
X36945Y-29885D01*
X82510Y-29805D02*
X97845Y-29805D01*
X81010Y-29805D02*
X81430Y-29805D01*
X44394Y-29805D02*
X80430Y-29805D01*
X39755Y-29805D02*
X43455Y-29805D01*
X18395Y-29805D02*
X36881Y-29805D01*
X82510Y-29725D02*
X97845Y-29725D01*
X81010Y-29725D02*
X81430Y-29725D01*
X44474Y-29725D02*
X80430Y-29725D01*
X39675Y-29725D02*
X43574Y-29725D01*
X18395Y-29725D02*
X36844Y-29725D01*
X82510Y-29645D02*
X97845Y-29645D01*
X81010Y-29645D02*
X81430Y-29645D01*
X44554Y-29645D02*
X80430Y-29645D01*
X39595Y-29645D02*
X43734Y-29645D01*
X18395Y-29645D02*
X36830Y-29645D01*
X82510Y-29565D02*
X97845Y-29565D01*
X81010Y-29565D02*
X81430Y-29565D01*
X44634Y-29565D02*
X80430Y-29565D01*
X39515Y-29565D02*
X43814Y-29565D01*
X18395Y-29565D02*
X36830Y-29565D01*
X82510Y-29485D02*
X97845Y-29485D01*
X81010Y-29485D02*
X81430Y-29485D01*
X44714Y-29485D02*
X80430Y-29485D01*
X39435Y-29485D02*
X43894Y-29485D01*
X18395Y-29485D02*
X36830Y-29485D01*
X83945Y-29405D02*
X97845Y-29405D01*
X82945Y-29405D02*
X83494Y-29405D01*
X81010Y-29405D02*
X81430Y-29405D01*
X80217Y-29405D02*
X80430Y-29405D01*
X66145Y-29405D02*
X79223Y-29405D01*
X65145Y-29405D02*
X65694Y-29405D01*
X64145Y-29405D02*
X64694Y-29405D01*
X63145Y-29405D02*
X63694Y-29405D01*
X62145Y-29405D02*
X62694Y-29405D01*
X61145Y-29405D02*
X61694Y-29405D01*
X60145Y-29405D02*
X60694Y-29405D01*
X59145Y-29405D02*
X59694Y-29405D01*
X58145Y-29405D02*
X58694Y-29405D01*
X57145Y-29405D02*
X57694Y-29405D01*
X56145Y-29405D02*
X56694Y-29405D01*
X55145Y-29405D02*
X55694Y-29405D01*
X44794Y-29405D02*
X54694Y-29405D01*
X40345Y-29405D02*
X43974Y-29405D01*
X39410Y-29405D02*
X39894Y-29405D01*
X36617Y-29405D02*
X36830Y-29405D01*
X18395Y-29405D02*
X35623Y-29405D01*
X84092Y-29325D02*
X97845Y-29325D01*
X83092Y-29325D02*
X83348Y-29325D01*
X81091Y-29325D02*
X81348Y-29325D01*
X80287Y-29325D02*
X80348Y-29325D01*
X66292Y-29325D02*
X79152Y-29325D01*
X65291Y-29325D02*
X65548Y-29325D01*
X64291Y-29325D02*
X64547Y-29325D01*
X63292Y-29325D02*
X63548Y-29325D01*
X62291Y-29325D02*
X62548Y-29325D01*
X61291Y-29325D02*
X61548Y-29325D01*
X60291Y-29325D02*
X60548Y-29325D01*
X59291Y-29325D02*
X59548Y-29325D01*
X58291Y-29325D02*
X58548Y-29325D01*
X57291Y-29325D02*
X57547Y-29325D01*
X56291Y-29325D02*
X56548Y-29325D01*
X55291Y-29325D02*
X55547Y-29325D01*
X54447Y-29325D02*
X54548Y-29325D01*
X44874Y-29325D02*
X53393Y-29325D01*
X40492Y-29325D02*
X44054Y-29325D01*
X39492Y-29325D02*
X39748Y-29325D01*
X36687Y-29325D02*
X36748Y-29325D01*
X18395Y-29325D02*
X35552Y-29325D01*
X84172Y-29245D02*
X97845Y-29245D01*
X83172Y-29245D02*
X83268Y-29245D01*
X81170Y-29245D02*
X81268Y-29245D01*
X66372Y-29245D02*
X79121Y-29245D01*
X65371Y-29245D02*
X65468Y-29245D01*
X64371Y-29245D02*
X64467Y-29245D01*
X63372Y-29245D02*
X63468Y-29245D01*
X62370Y-29245D02*
X62468Y-29245D01*
X61371Y-29245D02*
X61468Y-29245D01*
X60371Y-29245D02*
X60468Y-29245D01*
X59371Y-29245D02*
X59468Y-29245D01*
X58370Y-29245D02*
X58468Y-29245D01*
X57371Y-29245D02*
X57467Y-29245D01*
X56371Y-29245D02*
X56468Y-29245D01*
X55371Y-29245D02*
X55467Y-29245D01*
X44954Y-29245D02*
X53340Y-29245D01*
X40572Y-29245D02*
X44134Y-29245D01*
X39572Y-29245D02*
X39668Y-29245D01*
X20496Y-29245D02*
X35521Y-29245D01*
X18395Y-29245D02*
X19943Y-29245D01*
X84237Y-29165D02*
X97845Y-29165D01*
X66437Y-29165D02*
X79121Y-29165D01*
X45034Y-29165D02*
X53321Y-29165D01*
X40637Y-29165D02*
X44214Y-29165D01*
X20576Y-29165D02*
X35521Y-29165D01*
X18395Y-29165D02*
X19863Y-29165D01*
X84880Y-29085D02*
X97845Y-29085D01*
X66471Y-29085D02*
X79121Y-29085D01*
X45114Y-29085D02*
X53321Y-29085D01*
X40671Y-29085D02*
X44294Y-29085D01*
X20636Y-29085D02*
X35521Y-29085D01*
X18395Y-29085D02*
X19803Y-29085D01*
X84975Y-29005D02*
X97845Y-29005D01*
X66504Y-29005D02*
X79121Y-29005D01*
X45194Y-29005D02*
X53321Y-29005D01*
X40704Y-29005D02*
X44374Y-29005D01*
X20669Y-29005D02*
X35521Y-29005D01*
X18395Y-29005D02*
X19770Y-29005D01*
X85055Y-28925D02*
X97845Y-28925D01*
X66519Y-28925D02*
X79121Y-28925D01*
X45274Y-28925D02*
X53321Y-28925D01*
X40719Y-28925D02*
X44454Y-28925D01*
X20695Y-28925D02*
X35521Y-28925D01*
X18395Y-28925D02*
X19745Y-28925D01*
X85135Y-28845D02*
X97845Y-28845D01*
X66519Y-28845D02*
X79121Y-28845D01*
X45354Y-28845D02*
X53321Y-28845D01*
X40719Y-28845D02*
X44534Y-28845D01*
X20695Y-28845D02*
X35521Y-28845D01*
X18395Y-28845D02*
X19721Y-28845D01*
X85215Y-28765D02*
X97845Y-28765D01*
X66519Y-28765D02*
X79121Y-28765D01*
X45434Y-28765D02*
X53321Y-28765D01*
X40719Y-28765D02*
X44614Y-28765D01*
X20695Y-28765D02*
X35521Y-28765D01*
X18395Y-28765D02*
X19641Y-28765D01*
X85295Y-28685D02*
X97845Y-28685D01*
X66500Y-28685D02*
X79121Y-28685D01*
X45514Y-28685D02*
X53321Y-28685D01*
X40700Y-28685D02*
X44694Y-28685D01*
X20666Y-28685D02*
X35521Y-28685D01*
X18395Y-28685D02*
X19561Y-28685D01*
X85359Y-28605D02*
X97845Y-28605D01*
X66467Y-28605D02*
X79121Y-28605D01*
X45594Y-28605D02*
X53321Y-28605D01*
X40667Y-28605D02*
X44774Y-28605D01*
X20633Y-28605D02*
X35521Y-28605D01*
X18395Y-28605D02*
X19481Y-28605D01*
X85395Y-28525D02*
X97845Y-28525D01*
X84234Y-28525D02*
X84634Y-28525D01*
X66434Y-28525D02*
X79121Y-28525D01*
X45674Y-28525D02*
X53321Y-28525D01*
X40634Y-28525D02*
X44854Y-28525D01*
X20567Y-28525D02*
X35521Y-28525D01*
X18395Y-28525D02*
X19401Y-28525D01*
X85410Y-28445D02*
X97845Y-28445D01*
X84162Y-28445D02*
X84714Y-28445D01*
X66362Y-28445D02*
X79124Y-28445D01*
X45754Y-28445D02*
X53344Y-28445D01*
X40562Y-28445D02*
X44934Y-28445D01*
X20482Y-28445D02*
X35524Y-28445D01*
X18395Y-28445D02*
X19338Y-28445D01*
X85410Y-28365D02*
X97845Y-28365D01*
X84082Y-28365D02*
X84794Y-28365D01*
X80284Y-28365D02*
X80358Y-28365D01*
X66282Y-28365D02*
X79157Y-28365D01*
X54437Y-28365D02*
X54557Y-28365D01*
X45834Y-28365D02*
X53403Y-28365D01*
X40482Y-28365D02*
X45014Y-28365D01*
X36684Y-28365D02*
X36758Y-28365D01*
X20230Y-28365D02*
X35557Y-28365D01*
X18395Y-28365D02*
X19293Y-28365D01*
X85410Y-28285D02*
X97845Y-28285D01*
X84132Y-28285D02*
X84830Y-28285D01*
X80202Y-28285D02*
X80308Y-28285D01*
X66331Y-28285D02*
X79239Y-28285D01*
X54153Y-28285D02*
X54508Y-28285D01*
X45914Y-28285D02*
X53693Y-28285D01*
X40530Y-28285D02*
X45094Y-28285D01*
X36602Y-28285D02*
X36708Y-28285D01*
X20150Y-28285D02*
X35639Y-28285D01*
X18395Y-28285D02*
X19277Y-28285D01*
X85410Y-28205D02*
X97845Y-28205D01*
X84212Y-28205D02*
X84830Y-28205D01*
X80031Y-28205D02*
X80228Y-28205D01*
X66411Y-28205D02*
X79407Y-28205D01*
X54231Y-28205D02*
X54428Y-28205D01*
X45994Y-28205D02*
X53608Y-28205D01*
X40611Y-28205D02*
X45174Y-28205D01*
X36431Y-28205D02*
X36628Y-28205D01*
X20070Y-28205D02*
X35807Y-28205D01*
X18395Y-28205D02*
X19270Y-28205D01*
X85410Y-28125D02*
X97845Y-28125D01*
X84254Y-28125D02*
X84830Y-28125D01*
X80133Y-28125D02*
X80185Y-28125D01*
X79988Y-28125D02*
X80002Y-28125D01*
X79438Y-28125D02*
X79452Y-28125D01*
X66454Y-28125D02*
X79303Y-28125D01*
X54333Y-28125D02*
X54385Y-28125D01*
X54188Y-28125D02*
X54202Y-28125D01*
X53638Y-28125D02*
X53652Y-28125D01*
X46074Y-28125D02*
X53503Y-28125D01*
X40654Y-28125D02*
X45254Y-28125D01*
X36533Y-28125D02*
X36585Y-28125D01*
X36388Y-28125D02*
X36402Y-28125D01*
X35838Y-28125D02*
X35852Y-28125D01*
X19990Y-28125D02*
X35703Y-28125D01*
X18395Y-28125D02*
X19270Y-28125D01*
X85410Y-28045D02*
X97845Y-28045D01*
X84287Y-28045D02*
X84830Y-28045D01*
X79908Y-28045D02*
X79922Y-28045D01*
X79518Y-28045D02*
X79532Y-28045D01*
X66487Y-28045D02*
X79270Y-28045D01*
X54108Y-28045D02*
X54122Y-28045D01*
X53718Y-28045D02*
X53732Y-28045D01*
X46154Y-28045D02*
X53470Y-28045D01*
X40687Y-28045D02*
X45334Y-28045D01*
X36308Y-28045D02*
X36322Y-28045D01*
X35918Y-28045D02*
X35932Y-28045D01*
X19970Y-28045D02*
X35670Y-28045D01*
X18395Y-28045D02*
X19270Y-28045D01*
X85410Y-27965D02*
X97845Y-27965D01*
X84319Y-27965D02*
X84830Y-27965D01*
X79828Y-27965D02*
X79842Y-27965D01*
X79598Y-27965D02*
X79612Y-27965D01*
X66519Y-27965D02*
X79240Y-27965D01*
X54028Y-27965D02*
X54042Y-27965D01*
X53798Y-27965D02*
X53812Y-27965D01*
X46234Y-27965D02*
X53440Y-27965D01*
X40719Y-27965D02*
X45414Y-27965D01*
X36228Y-27965D02*
X36242Y-27965D01*
X35998Y-27965D02*
X36012Y-27965D01*
X19970Y-27965D02*
X35640Y-27965D01*
X18395Y-27965D02*
X19270Y-27965D01*
X85410Y-27885D02*
X97845Y-27885D01*
X84319Y-27885D02*
X84830Y-27885D01*
X79748Y-27885D02*
X79762Y-27885D01*
X79678Y-27885D02*
X79692Y-27885D01*
X66519Y-27885D02*
X79230Y-27885D01*
X53948Y-27885D02*
X53962Y-27885D01*
X53878Y-27885D02*
X53892Y-27885D01*
X46314Y-27885D02*
X53430Y-27885D01*
X40719Y-27885D02*
X45494Y-27885D01*
X36148Y-27885D02*
X36162Y-27885D01*
X36078Y-27885D02*
X36092Y-27885D01*
X19970Y-27885D02*
X35630Y-27885D01*
X18395Y-27885D02*
X19270Y-27885D01*
X85410Y-27805D02*
X97845Y-27805D01*
X84319Y-27805D02*
X84830Y-27805D01*
X79758Y-27805D02*
X79772Y-27805D01*
X79668Y-27805D02*
X79682Y-27805D01*
X66519Y-27805D02*
X79232Y-27805D01*
X53958Y-27805D02*
X53972Y-27805D01*
X53868Y-27805D02*
X53882Y-27805D01*
X46394Y-27805D02*
X53432Y-27805D01*
X40719Y-27805D02*
X45574Y-27805D01*
X36158Y-27805D02*
X36172Y-27805D01*
X36068Y-27805D02*
X36082Y-27805D01*
X19970Y-27805D02*
X35632Y-27805D01*
X18395Y-27805D02*
X19270Y-27805D01*
X85410Y-27725D02*
X97845Y-27725D01*
X84317Y-27725D02*
X84830Y-27725D01*
X79838Y-27725D02*
X79852Y-27725D01*
X79588Y-27725D02*
X79602Y-27725D01*
X66517Y-27725D02*
X79240Y-27725D01*
X54038Y-27725D02*
X54052Y-27725D01*
X53788Y-27725D02*
X53802Y-27725D01*
X46474Y-27725D02*
X53440Y-27725D01*
X40717Y-27725D02*
X45654Y-27725D01*
X36238Y-27725D02*
X36252Y-27725D01*
X35988Y-27725D02*
X36002Y-27725D01*
X19970Y-27725D02*
X35640Y-27725D01*
X18395Y-27725D02*
X19270Y-27725D01*
X85410Y-27645D02*
X97845Y-27645D01*
X84284Y-27645D02*
X84830Y-27645D01*
X79918Y-27645D02*
X79932Y-27645D01*
X79508Y-27645D02*
X79522Y-27645D01*
X66484Y-27645D02*
X79276Y-27645D01*
X54118Y-27645D02*
X54132Y-27645D01*
X53708Y-27645D02*
X53722Y-27645D01*
X46554Y-27645D02*
X53476Y-27645D01*
X40684Y-27645D02*
X45734Y-27645D01*
X36318Y-27645D02*
X36332Y-27645D01*
X35908Y-27645D02*
X35922Y-27645D01*
X19970Y-27645D02*
X35676Y-27645D01*
X18395Y-27645D02*
X19270Y-27645D01*
X85410Y-27565D02*
X97845Y-27565D01*
X84251Y-27565D02*
X84830Y-27565D01*
X80130Y-27565D02*
X80190Y-27565D01*
X79998Y-27565D02*
X80012Y-27565D01*
X79428Y-27565D02*
X79442Y-27565D01*
X66451Y-27565D02*
X79312Y-27565D01*
X54330Y-27565D02*
X54390Y-27565D01*
X54198Y-27565D02*
X54212Y-27565D01*
X53628Y-27565D02*
X53642Y-27565D01*
X46634Y-27565D02*
X53512Y-27565D01*
X40651Y-27565D02*
X45814Y-27565D01*
X36530Y-27565D02*
X36590Y-27565D01*
X36398Y-27565D02*
X36412Y-27565D01*
X35828Y-27565D02*
X35842Y-27565D01*
X19970Y-27565D02*
X35712Y-27565D01*
X18395Y-27565D02*
X19270Y-27565D01*
X85410Y-27485D02*
X97845Y-27485D01*
X84202Y-27485D02*
X84830Y-27485D01*
X82202Y-27485D02*
X82237Y-27485D01*
X81202Y-27485D02*
X81238Y-27485D01*
X80028Y-27485D02*
X80238Y-27485D01*
X66402Y-27485D02*
X79413Y-27485D01*
X65403Y-27485D02*
X65438Y-27485D01*
X64402Y-27485D02*
X64437Y-27485D01*
X63403Y-27485D02*
X63438Y-27485D01*
X62402Y-27485D02*
X62438Y-27485D01*
X54228Y-27485D02*
X54438Y-27485D01*
X46714Y-27485D02*
X53613Y-27485D01*
X40602Y-27485D02*
X45894Y-27485D01*
X39602Y-27485D02*
X39637Y-27485D01*
X36428Y-27485D02*
X36638Y-27485D01*
X19970Y-27485D02*
X35813Y-27485D01*
X18395Y-27485D02*
X19270Y-27485D01*
X85410Y-27405D02*
X97845Y-27405D01*
X84122Y-27405D02*
X84830Y-27405D01*
X82122Y-27405D02*
X82317Y-27405D01*
X81122Y-27405D02*
X81318Y-27405D01*
X79924Y-27405D02*
X80318Y-27405D01*
X66322Y-27405D02*
X79513Y-27405D01*
X65323Y-27405D02*
X65518Y-27405D01*
X64322Y-27405D02*
X64518Y-27405D01*
X63323Y-27405D02*
X63518Y-27405D01*
X62322Y-27405D02*
X62518Y-27405D01*
X54124Y-27405D02*
X54518Y-27405D01*
X46794Y-27405D02*
X53713Y-27405D01*
X40522Y-27405D02*
X45974Y-27405D01*
X39522Y-27405D02*
X39718Y-27405D01*
X36324Y-27405D02*
X36718Y-27405D01*
X19970Y-27405D02*
X35913Y-27405D01*
X18395Y-27405D02*
X19270Y-27405D01*
X85410Y-27325D02*
X97845Y-27325D01*
X84020Y-27325D02*
X84830Y-27325D01*
X82018Y-27325D02*
X82284Y-27325D01*
X81018Y-27325D02*
X81423Y-27325D01*
X66218Y-27325D02*
X80423Y-27325D01*
X65218Y-27325D02*
X65623Y-27325D01*
X64218Y-27325D02*
X64623Y-27325D01*
X63218Y-27325D02*
X63623Y-27325D01*
X62218Y-27325D02*
X62623Y-27325D01*
X46874Y-27325D02*
X54621Y-27325D01*
X40418Y-27325D02*
X46054Y-27325D01*
X39425Y-27325D02*
X39823Y-27325D01*
X19970Y-27325D02*
X36822Y-27325D01*
X18395Y-27325D02*
X19270Y-27325D01*
X85410Y-27245D02*
X97845Y-27245D01*
X84010Y-27245D02*
X84805Y-27245D01*
X61935Y-27245D02*
X82204Y-27245D01*
X46954Y-27245D02*
X54631Y-27245D01*
X39505Y-27245D02*
X46134Y-27245D01*
X19970Y-27245D02*
X36915Y-27245D01*
X18395Y-27245D02*
X19270Y-27245D01*
X85410Y-27165D02*
X97845Y-27165D01*
X83994Y-27165D02*
X84725Y-27165D01*
X62015Y-27165D02*
X82124Y-27165D01*
X39585Y-27165D02*
X46214Y-27165D01*
X19970Y-27165D02*
X36995Y-27165D01*
X18395Y-27165D02*
X19270Y-27165D01*
X85398Y-27085D02*
X97845Y-27085D01*
X83952Y-27085D02*
X84645Y-27085D01*
X62095Y-27085D02*
X82044Y-27085D01*
X39665Y-27085D02*
X46294Y-27085D01*
X19970Y-27085D02*
X37075Y-27085D01*
X18395Y-27085D02*
X19270Y-27085D01*
X85366Y-27005D02*
X97845Y-27005D01*
X83885Y-27005D02*
X84565Y-27005D01*
X62175Y-27005D02*
X81964Y-27005D01*
X39745Y-27005D02*
X46374Y-27005D01*
X19970Y-27005D02*
X37155Y-27005D01*
X18395Y-27005D02*
X19270Y-27005D01*
X85305Y-26925D02*
X97845Y-26925D01*
X83805Y-26925D02*
X84485Y-26925D01*
X62255Y-26925D02*
X81884Y-26925D01*
X39825Y-26925D02*
X46454Y-26925D01*
X22797Y-26925D02*
X37235Y-26925D01*
X21797Y-26925D02*
X22442Y-26925D01*
X19970Y-26925D02*
X21442Y-26925D01*
X18395Y-26925D02*
X19270Y-26925D01*
X85225Y-26845D02*
X97845Y-26845D01*
X83725Y-26845D02*
X84405Y-26845D01*
X62335Y-26845D02*
X81804Y-26845D01*
X39905Y-26845D02*
X46534Y-26845D01*
X22972Y-26845D02*
X37315Y-26845D01*
X21971Y-26845D02*
X22268Y-26845D01*
X20127Y-26845D02*
X21268Y-26845D01*
X18395Y-26845D02*
X19113Y-26845D01*
X85145Y-26765D02*
X97845Y-26765D01*
X83645Y-26765D02*
X84325Y-26765D01*
X62415Y-26765D02*
X81724Y-26765D01*
X39985Y-26765D02*
X46614Y-26765D01*
X23052Y-26765D02*
X37395Y-26765D01*
X22050Y-26765D02*
X22188Y-26765D01*
X20897Y-26765D02*
X21188Y-26765D01*
X20191Y-26765D02*
X20348Y-26765D01*
X18395Y-26765D02*
X19048Y-26765D01*
X85065Y-26685D02*
X97845Y-26685D01*
X83565Y-26685D02*
X84245Y-26685D01*
X23129Y-26685D02*
X37475Y-26685D01*
X20940Y-26685D02*
X21110Y-26685D01*
X20219Y-26685D02*
X20299Y-26685D01*
X18395Y-26685D02*
X19021Y-26685D01*
X84985Y-26605D02*
X97845Y-26605D01*
X83485Y-26605D02*
X84165Y-26605D01*
X57740Y-26605D02*
X58854Y-26605D01*
X29650Y-26605D02*
X37555Y-26605D01*
X21041Y-26605D02*
X21077Y-26605D01*
X20868Y-26605D02*
X20882Y-26605D01*
X20358Y-26605D02*
X20372Y-26605D01*
X18395Y-26605D02*
X19021Y-26605D01*
X84905Y-26525D02*
X97845Y-26525D01*
X83405Y-26525D02*
X84085Y-26525D01*
X57773Y-26525D02*
X58934Y-26525D01*
X29755Y-26525D02*
X37635Y-26525D01*
X20788Y-26525D02*
X20802Y-26525D01*
X20438Y-26525D02*
X20452Y-26525D01*
X18395Y-26525D02*
X19021Y-26525D01*
X84825Y-26445D02*
X97845Y-26445D01*
X83325Y-26445D02*
X84005Y-26445D01*
X57795Y-26445D02*
X59014Y-26445D01*
X37655Y-26445D02*
X37715Y-26445D01*
X29835Y-26445D02*
X37185Y-26445D01*
X20708Y-26445D02*
X20722Y-26445D01*
X20518Y-26445D02*
X20532Y-26445D01*
X18395Y-26445D02*
X19021Y-26445D01*
X84745Y-26365D02*
X97845Y-26365D01*
X83245Y-26365D02*
X83925Y-26365D01*
X57795Y-26365D02*
X59094Y-26365D01*
X37735Y-26365D02*
X37795Y-26365D01*
X20628Y-26365D02*
X20642Y-26365D01*
X20598Y-26365D02*
X20612Y-26365D01*
X18395Y-26365D02*
X19021Y-26365D01*
X84665Y-26285D02*
X97845Y-26285D01*
X83165Y-26285D02*
X83845Y-26285D01*
X57779Y-26285D02*
X59174Y-26285D01*
X37769Y-26285D02*
X37875Y-26285D01*
X20678Y-26285D02*
X20692Y-26285D01*
X20548Y-26285D02*
X20562Y-26285D01*
X18395Y-26285D02*
X19021Y-26285D01*
X84585Y-26205D02*
X97845Y-26205D01*
X83085Y-26205D02*
X83765Y-26205D01*
X57746Y-26205D02*
X59254Y-26205D01*
X37795Y-26205D02*
X37955Y-26205D01*
X20758Y-26205D02*
X20772Y-26205D01*
X20468Y-26205D02*
X20482Y-26205D01*
X18395Y-26205D02*
X19021Y-26205D01*
X84505Y-26125D02*
X97845Y-26125D01*
X83005Y-26125D02*
X83685Y-26125D01*
X57675Y-26125D02*
X59334Y-26125D01*
X37795Y-26125D02*
X38035Y-26125D01*
X21059Y-26125D02*
X21065Y-26125D01*
X20838Y-26125D02*
X20852Y-26125D01*
X20388Y-26125D02*
X20402Y-26125D01*
X18395Y-26125D02*
X19021Y-26125D01*
X84425Y-26045D02*
X97845Y-26045D01*
X82925Y-26045D02*
X83605Y-26045D01*
X57543Y-26045D02*
X59414Y-26045D01*
X56786Y-26045D02*
X57298Y-26045D01*
X37782Y-26045D02*
X38115Y-26045D01*
X20991Y-26045D02*
X21098Y-26045D01*
X20918Y-26045D02*
X20932Y-26045D01*
X20308Y-26045D02*
X20322Y-26045D01*
X20219Y-26045D02*
X20249Y-26045D01*
X18395Y-26045D02*
X19021Y-26045D01*
X84345Y-25965D02*
X97845Y-25965D01*
X82845Y-25965D02*
X83525Y-25965D01*
X56795Y-25965D02*
X59494Y-25965D01*
X38035Y-25965D02*
X38195Y-25965D01*
X20919Y-25965D02*
X21158Y-25965D01*
X20205Y-25965D02*
X20322Y-25965D01*
X18395Y-25965D02*
X19036Y-25965D01*
X84265Y-25885D02*
X97845Y-25885D01*
X82765Y-25885D02*
X83445Y-25885D01*
X56795Y-25885D02*
X59574Y-25885D01*
X38115Y-25885D02*
X38275Y-25885D01*
X20780Y-25885D02*
X21238Y-25885D01*
X20157Y-25885D02*
X20466Y-25885D01*
X18395Y-25885D02*
X19083Y-25885D01*
X84185Y-25805D02*
X97845Y-25805D01*
X82685Y-25805D02*
X83365Y-25805D01*
X56766Y-25805D02*
X59654Y-25805D01*
X38161Y-25805D02*
X38355Y-25805D01*
X20030Y-25805D02*
X21339Y-25805D01*
X18395Y-25805D02*
X19212Y-25805D01*
X90358Y-25725D02*
X97845Y-25725D01*
X84105Y-25725D02*
X89880Y-25725D01*
X82605Y-25725D02*
X83285Y-25725D01*
X56725Y-25725D02*
X59734Y-25725D01*
X38195Y-25725D02*
X38435Y-25725D01*
X18395Y-25725D02*
X21362Y-25725D01*
X90551Y-25645D02*
X97845Y-25645D01*
X84025Y-25645D02*
X89688Y-25645D01*
X82525Y-25645D02*
X83205Y-25645D01*
X56645Y-25645D02*
X59814Y-25645D01*
X54995Y-25645D02*
X56195Y-25645D01*
X38195Y-25645D02*
X38515Y-25645D01*
X26551Y-25645D02*
X27214Y-25645D01*
X23525Y-25645D02*
X25689Y-25645D01*
X18395Y-25645D02*
X21415Y-25645D01*
X90677Y-25565D02*
X97845Y-25565D01*
X83945Y-25565D02*
X89562Y-25565D01*
X82346Y-25565D02*
X83125Y-25565D01*
X55935Y-25565D02*
X59995Y-25565D01*
X54991Y-25565D02*
X55505Y-25565D01*
X38191Y-25565D02*
X38595Y-25565D01*
X26677Y-25565D02*
X27294Y-25565D01*
X23445Y-25565D02*
X25562Y-25565D01*
X18395Y-25565D02*
X21495Y-25565D01*
X90757Y-25485D02*
X97845Y-25485D01*
X83865Y-25485D02*
X89482Y-25485D01*
X54958Y-25485D02*
X55425Y-25485D01*
X38158Y-25485D02*
X38675Y-25485D01*
X26757Y-25485D02*
X27374Y-25485D01*
X23365Y-25485D02*
X25482Y-25485D01*
X18395Y-25485D02*
X21575Y-25485D01*
X90837Y-25405D02*
X97845Y-25405D01*
X83785Y-25405D02*
X89402Y-25405D01*
X54905Y-25405D02*
X55378Y-25405D01*
X38105Y-25405D02*
X38775Y-25405D01*
X26837Y-25405D02*
X27454Y-25405D01*
X23285Y-25405D02*
X25402Y-25405D01*
X18395Y-25405D02*
X21655Y-25405D01*
X90897Y-25325D02*
X97845Y-25325D01*
X83705Y-25325D02*
X89342Y-25325D01*
X54814Y-25325D02*
X55345Y-25325D01*
X38014Y-25325D02*
X54425Y-25325D01*
X26897Y-25325D02*
X27544Y-25325D01*
X23196Y-25325D02*
X25342Y-25325D01*
X18395Y-25325D02*
X21745Y-25325D01*
X90930Y-25245D02*
X97845Y-25245D01*
X83625Y-25245D02*
X89309Y-25245D01*
X26930Y-25245D02*
X55345Y-25245D01*
X18395Y-25245D02*
X25309Y-25245D01*
X90963Y-25165D02*
X97845Y-25165D01*
X83545Y-25165D02*
X89276Y-25165D01*
X26963Y-25165D02*
X55350Y-25165D01*
X18395Y-25165D02*
X25276Y-25165D01*
X90997Y-25085D02*
X97845Y-25085D01*
X83465Y-25085D02*
X89243Y-25085D01*
X26997Y-25085D02*
X55383Y-25085D01*
X18395Y-25085D02*
X25243Y-25085D01*
X91020Y-25005D02*
X97845Y-25005D01*
X83366Y-25005D02*
X89220Y-25005D01*
X27020Y-25005D02*
X55435Y-25005D01*
X18395Y-25005D02*
X25220Y-25005D01*
X91020Y-24925D02*
X97845Y-24925D01*
X55914Y-24925D02*
X89220Y-24925D01*
X27020Y-24925D02*
X55525Y-24925D01*
X18395Y-24925D02*
X25220Y-24925D01*
X91020Y-24845D02*
X97845Y-24845D01*
X27020Y-24845D02*
X89220Y-24845D01*
X18395Y-24845D02*
X25220Y-24845D01*
X91020Y-24765D02*
X97845Y-24765D01*
X27020Y-24765D02*
X89220Y-24765D01*
X18395Y-24765D02*
X25220Y-24765D01*
X91020Y-24685D02*
X97845Y-24685D01*
X27020Y-24685D02*
X89220Y-24685D01*
X18395Y-24685D02*
X25220Y-24685D01*
X90993Y-24605D02*
X97845Y-24605D01*
X26993Y-24605D02*
X89248Y-24605D01*
X18395Y-24605D02*
X25248Y-24605D01*
X90960Y-24525D02*
X97845Y-24525D01*
X26960Y-24525D02*
X89281Y-24525D01*
X18395Y-24525D02*
X25281Y-24525D01*
X90927Y-24445D02*
X97845Y-24445D01*
X26927Y-24445D02*
X89314Y-24445D01*
X18395Y-24445D02*
X25314Y-24445D01*
X90893Y-24365D02*
X97845Y-24365D01*
X26893Y-24365D02*
X89348Y-24365D01*
X18395Y-24365D02*
X25348Y-24365D01*
X90827Y-24285D02*
X97845Y-24285D01*
X26827Y-24285D02*
X89412Y-24285D01*
X18395Y-24285D02*
X25412Y-24285D01*
X90747Y-24205D02*
X97845Y-24205D01*
X26747Y-24205D02*
X89492Y-24205D01*
X18395Y-24205D02*
X25492Y-24205D01*
X90667Y-24125D02*
X97845Y-24125D01*
X26667Y-24125D02*
X89572Y-24125D01*
X18395Y-24125D02*
X25572Y-24125D01*
X97845Y-43575D02*
X97845Y-24125D01*
X97845Y-24125D02*
X90667Y-24125D01*
X90667Y-24125D02*
X90883Y-24341D01*
X90883Y-24341D02*
X91020Y-24672D01*
X91020Y-24672D02*
X91020Y-25030D01*
X91020Y-25030D02*
X90882Y-25361D01*
X90882Y-25361D02*
X90629Y-25613D01*
X90629Y-25613D02*
X90298Y-25750D01*
X90298Y-25750D02*
X89940Y-25750D01*
X89940Y-25750D02*
X89609Y-25612D01*
X89609Y-25612D02*
X89357Y-25359D01*
X89357Y-25359D02*
X89220Y-25028D01*
X89220Y-25028D02*
X89220Y-24670D01*
X89220Y-24670D02*
X89358Y-24339D01*
X89358Y-24339D02*
X89572Y-24125D01*
X89572Y-24125D02*
X26667Y-24125D01*
X26667Y-24125D02*
X26883Y-24341D01*
X26883Y-24341D02*
X27020Y-24672D01*
X27020Y-24672D02*
X27020Y-25030D01*
X27020Y-25030D02*
X26882Y-25361D01*
X26882Y-25361D02*
X26629Y-25613D01*
X26629Y-25613D02*
X26515Y-25660D01*
X26515Y-25660D02*
X27199Y-25660D01*
X27199Y-25660D02*
X27514Y-25345D01*
X27514Y-25345D02*
X27608Y-25282D01*
X27608Y-25282D02*
X27720Y-25260D01*
X27720Y-25260D02*
X37720Y-25260D01*
X37720Y-25260D02*
X37795Y-25275D01*
X37795Y-25275D02*
X37895Y-25275D01*
X37895Y-25275D02*
X38033Y-25333D01*
X38033Y-25333D02*
X38138Y-25438D01*
X38138Y-25438D02*
X38195Y-25576D01*
X38195Y-25576D02*
X38195Y-25725D01*
X38195Y-25725D02*
X38137Y-25863D01*
X38137Y-25863D02*
X38032Y-25968D01*
X38032Y-25968D02*
X37894Y-26025D01*
X37894Y-26025D02*
X37773Y-26025D01*
X37773Y-26025D02*
X37795Y-26076D01*
X37795Y-26076D02*
X37795Y-26225D01*
X37795Y-26225D02*
X37737Y-26363D01*
X37737Y-26363D02*
X37632Y-26468D01*
X37632Y-26468D02*
X37494Y-26525D01*
X37494Y-26525D02*
X37345Y-26525D01*
X37345Y-26525D02*
X37207Y-26467D01*
X37207Y-26467D02*
X37180Y-26440D01*
X37180Y-26440D02*
X29840Y-26440D01*
X29840Y-26440D02*
X29725Y-26555D01*
X29725Y-26555D02*
X29631Y-26618D01*
X29631Y-26618D02*
X29520Y-26640D01*
X29520Y-26640D02*
X23148Y-26640D01*
X23148Y-26640D02*
X23128Y-26689D01*
X23128Y-26689D02*
X22959Y-26858D01*
X22959Y-26858D02*
X22739Y-26949D01*
X22739Y-26949D02*
X22501Y-26949D01*
X22501Y-26949D02*
X22281Y-26858D01*
X22281Y-26858D02*
X22119Y-26696D01*
X22119Y-26696D02*
X21959Y-26858D01*
X21959Y-26858D02*
X21739Y-26949D01*
X21739Y-26949D02*
X21501Y-26949D01*
X21501Y-26949D02*
X21281Y-26858D01*
X21281Y-26858D02*
X21112Y-26689D01*
X21112Y-26689D02*
X21060Y-26564D01*
X21060Y-26564D02*
X21027Y-26639D01*
X21027Y-26639D02*
X20950Y-26673D01*
X20950Y-26673D02*
X20627Y-26350D01*
X20627Y-26350D02*
X20950Y-26027D01*
X20950Y-26027D02*
X21027Y-26061D01*
X21027Y-26061D02*
X21043Y-26084D01*
X21043Y-26084D02*
X21061Y-26133D01*
X21061Y-26133D02*
X21112Y-26011D01*
X21112Y-26011D02*
X21281Y-25842D01*
X21281Y-25842D02*
X21336Y-25819D01*
X21336Y-25819D02*
X21352Y-25739D01*
X21352Y-25739D02*
X21415Y-25645D01*
X21415Y-25645D02*
X21715Y-25345D01*
X21715Y-25345D02*
X21809Y-25282D01*
X21809Y-25282D02*
X21920Y-25260D01*
X21920Y-25260D02*
X23020Y-25260D01*
X23020Y-25260D02*
X23131Y-25282D01*
X23131Y-25282D02*
X23225Y-25345D01*
X23225Y-25345D02*
X23540Y-25660D01*
X23540Y-25660D02*
X25724Y-25659D01*
X25724Y-25659D02*
X25609Y-25612D01*
X25609Y-25612D02*
X25357Y-25359D01*
X25357Y-25359D02*
X25220Y-25028D01*
X25220Y-25028D02*
X25220Y-24670D01*
X25220Y-24670D02*
X25358Y-24339D01*
X25358Y-24339D02*
X25572Y-24125D01*
X25572Y-24125D02*
X18395Y-24125D01*
X18395Y-24125D02*
X18395Y-43575D01*
X18395Y-43575D02*
X19950Y-43575D01*
X19950Y-43575D02*
X19950Y-42200D01*
X19950Y-42200D02*
X19638Y-42070D01*
X19638Y-42070D02*
X19399Y-41830D01*
X19399Y-41830D02*
X19270Y-41518D01*
X19270Y-41518D02*
X19270Y-41180D01*
X19270Y-41180D02*
X19400Y-40868D01*
X19400Y-40868D02*
X19640Y-40629D01*
X19640Y-40629D02*
X19952Y-40500D01*
X19952Y-40500D02*
X20125Y-40500D01*
X20125Y-40500D02*
X20125Y-29325D01*
X20125Y-29325D02*
X19951Y-29252D01*
X19951Y-29252D02*
X19817Y-29119D01*
X19817Y-29119D02*
X19745Y-28944D01*
X19745Y-28944D02*
X19745Y-28869D01*
X19745Y-28869D02*
X19373Y-28497D01*
X19373Y-28497D02*
X19297Y-28384D01*
X19297Y-28384D02*
X19270Y-28250D01*
X19270Y-28250D02*
X19270Y-26899D01*
X19270Y-26899D02*
X19220Y-26899D01*
X19220Y-26899D02*
X19129Y-26861D01*
X19129Y-26861D02*
X19059Y-26791D01*
X19059Y-26791D02*
X19021Y-26699D01*
X19021Y-26699D02*
X19021Y-26000D01*
X19021Y-26000D02*
X19059Y-25909D01*
X19059Y-25909D02*
X19129Y-25839D01*
X19129Y-25839D02*
X19221Y-25801D01*
X19221Y-25801D02*
X20020Y-25801D01*
X20020Y-25801D02*
X20111Y-25839D01*
X20111Y-25839D02*
X20181Y-25909D01*
X20181Y-25909D02*
X20219Y-26001D01*
X20219Y-26001D02*
X20219Y-26058D01*
X20219Y-26058D02*
X20290Y-26027D01*
X20290Y-26027D02*
X20613Y-26350D01*
X20613Y-26350D02*
X20290Y-26673D01*
X20290Y-26673D02*
X20219Y-26641D01*
X20219Y-26641D02*
X20219Y-26700D01*
X20219Y-26700D02*
X20181Y-26791D01*
X20181Y-26791D02*
X20111Y-26861D01*
X20111Y-26861D02*
X20019Y-26899D01*
X20019Y-26899D02*
X19970Y-26899D01*
X19970Y-26899D02*
X19970Y-28105D01*
X19970Y-28105D02*
X20239Y-28375D01*
X20239Y-28375D02*
X20315Y-28375D01*
X20315Y-28375D02*
X20489Y-28448D01*
X20489Y-28448D02*
X20623Y-28581D01*
X20623Y-28581D02*
X20695Y-28756D01*
X20695Y-28756D02*
X20695Y-28945D01*
X20695Y-28945D02*
X20622Y-29119D01*
X20622Y-29119D02*
X20489Y-29253D01*
X20489Y-29253D02*
X20314Y-29325D01*
X20314Y-29325D02*
X20125Y-29325D01*
X20125Y-29325D02*
X20125Y-40500D01*
X20125Y-40500D02*
X20290Y-40500D01*
X20290Y-40500D02*
X20602Y-40630D01*
X20602Y-40630D02*
X20703Y-40731D01*
X20703Y-40731D02*
X20703Y-26842D01*
X20703Y-26842D02*
X20508Y-26836D01*
X20508Y-26836D02*
X20331Y-26757D01*
X20331Y-26757D02*
X20297Y-26680D01*
X20297Y-26680D02*
X20620Y-26357D01*
X20620Y-26357D02*
X20620Y-26343D01*
X20620Y-26343D02*
X20297Y-26020D01*
X20297Y-26020D02*
X20331Y-25943D01*
X20331Y-25943D02*
X20354Y-25927D01*
X20354Y-25927D02*
X20537Y-25858D01*
X20537Y-25858D02*
X20732Y-25864D01*
X20732Y-25864D02*
X20909Y-25943D01*
X20909Y-25943D02*
X20943Y-26020D01*
X20943Y-26020D02*
X20620Y-26343D01*
X20620Y-26343D02*
X20620Y-26357D01*
X20620Y-26357D02*
X20943Y-26680D01*
X20943Y-26680D02*
X20909Y-26757D01*
X20909Y-26757D02*
X20886Y-26773D01*
X20886Y-26773D02*
X20703Y-26842D01*
X20703Y-26842D02*
X20703Y-40731D01*
X20703Y-40731D02*
X20841Y-40870D01*
X20841Y-40870D02*
X20970Y-41182D01*
X20970Y-41182D02*
X20970Y-41520D01*
X20970Y-41520D02*
X20840Y-41832D01*
X20840Y-41832D02*
X20600Y-42071D01*
X20600Y-42071D02*
X20288Y-42200D01*
X20288Y-42200D02*
X19950Y-42200D01*
X19950Y-42200D02*
X19950Y-43575D01*
X19950Y-43575D02*
X23199Y-43575D01*
X23199Y-43575D02*
X23199Y-39817D01*
X23199Y-39817D02*
X23015Y-39812D01*
X23015Y-39812D02*
X22846Y-39736D01*
X22846Y-39736D02*
X22815Y-39663D01*
X22815Y-39663D02*
X23120Y-39357D01*
X23120Y-39357D02*
X23120Y-39343D01*
X23120Y-39343D02*
X22815Y-39037D01*
X22815Y-39037D02*
X22846Y-38964D01*
X22846Y-38964D02*
X22868Y-38950D01*
X22868Y-38950D02*
X23041Y-38883D01*
X23041Y-38883D02*
X23225Y-38888D01*
X23225Y-38888D02*
X23394Y-38964D01*
X23394Y-38964D02*
X23425Y-39037D01*
X23425Y-39037D02*
X23120Y-39343D01*
X23120Y-39343D02*
X23120Y-39357D01*
X23120Y-39357D02*
X23425Y-39663D01*
X23425Y-39663D02*
X23394Y-39736D01*
X23394Y-39736D02*
X23372Y-39750D01*
X23372Y-39750D02*
X23199Y-39817D01*
X23199Y-39817D02*
X23199Y-43575D01*
X23199Y-43575D02*
X23950Y-43575D01*
X23950Y-43575D02*
X23950Y-42200D01*
X23950Y-42200D02*
X23638Y-42070D01*
X23638Y-42070D02*
X23399Y-41830D01*
X23399Y-41830D02*
X23270Y-41518D01*
X23270Y-41518D02*
X23270Y-41180D01*
X23270Y-41180D02*
X23400Y-40868D01*
X23400Y-40868D02*
X23433Y-40835D01*
X23433Y-40835D02*
X23433Y-39655D01*
X23433Y-39655D02*
X23127Y-39350D01*
X23127Y-39350D02*
X23433Y-39045D01*
X23433Y-39045D02*
X23506Y-39076D01*
X23506Y-39076D02*
X23520Y-39098D01*
X23520Y-39098D02*
X23587Y-39271D01*
X23587Y-39271D02*
X23582Y-39455D01*
X23582Y-39455D02*
X23506Y-39624D01*
X23506Y-39624D02*
X23433Y-39655D01*
X23433Y-39655D02*
X23433Y-40835D01*
X23433Y-40835D02*
X23640Y-40629D01*
X23640Y-40629D02*
X23950Y-40500D01*
X23950Y-40500D02*
X23950Y-38200D01*
X23950Y-38200D02*
X23638Y-38070D01*
X23638Y-38070D02*
X23399Y-37830D01*
X23399Y-37830D02*
X23270Y-37518D01*
X23270Y-37518D02*
X23270Y-37180D01*
X23270Y-37180D02*
X23400Y-36868D01*
X23400Y-36868D02*
X23640Y-36629D01*
X23640Y-36629D02*
X23952Y-36500D01*
X23952Y-36500D02*
X24290Y-36500D01*
X24290Y-36500D02*
X24602Y-36630D01*
X24602Y-36630D02*
X24841Y-36870D01*
X24841Y-36870D02*
X24970Y-37182D01*
X24970Y-37182D02*
X24970Y-37520D01*
X24970Y-37520D02*
X24840Y-37832D01*
X24840Y-37832D02*
X24600Y-38071D01*
X24600Y-38071D02*
X24288Y-38200D01*
X24288Y-38200D02*
X23950Y-38200D01*
X23950Y-38200D02*
X23950Y-40500D01*
X23950Y-40500D02*
X24290Y-40500D01*
X24290Y-40500D02*
X24602Y-40630D01*
X24602Y-40630D02*
X24841Y-40870D01*
X24841Y-40870D02*
X24970Y-41182D01*
X24970Y-41182D02*
X24970Y-41520D01*
X24970Y-41520D02*
X24840Y-41832D01*
X24840Y-41832D02*
X24600Y-42071D01*
X24600Y-42071D02*
X24288Y-42200D01*
X24288Y-42200D02*
X23950Y-42200D01*
X23950Y-42200D02*
X23950Y-43575D01*
X23950Y-43575D02*
X25572Y-43575D01*
X25572Y-43575D02*
X25357Y-43359D01*
X25357Y-43359D02*
X25220Y-43028D01*
X25220Y-43028D02*
X25220Y-42670D01*
X25220Y-42670D02*
X25358Y-42339D01*
X25358Y-42339D02*
X25611Y-42087D01*
X25611Y-42087D02*
X25942Y-41950D01*
X25942Y-41950D02*
X26300Y-41950D01*
X26300Y-41950D02*
X26631Y-42088D01*
X26631Y-42088D02*
X26883Y-42341D01*
X26883Y-42341D02*
X27020Y-42672D01*
X27020Y-42672D02*
X27020Y-43030D01*
X27020Y-43030D02*
X26882Y-43361D01*
X26882Y-43361D02*
X26667Y-43575D01*
X26667Y-43575D02*
X27950Y-43575D01*
X27950Y-43575D02*
X27950Y-42200D01*
X27950Y-42200D02*
X27638Y-42070D01*
X27638Y-42070D02*
X27399Y-41830D01*
X27399Y-41830D02*
X27270Y-41518D01*
X27270Y-41518D02*
X27270Y-41180D01*
X27270Y-41180D02*
X27400Y-40868D01*
X27400Y-40868D02*
X27640Y-40629D01*
X27640Y-40629D02*
X27952Y-40500D01*
X27952Y-40500D02*
X28290Y-40500D01*
X28290Y-40500D02*
X28602Y-40630D01*
X28602Y-40630D02*
X28841Y-40870D01*
X28841Y-40870D02*
X28970Y-41182D01*
X28970Y-41182D02*
X28970Y-41520D01*
X28970Y-41520D02*
X28840Y-41832D01*
X28840Y-41832D02*
X28600Y-42071D01*
X28600Y-42071D02*
X28288Y-42200D01*
X28288Y-42200D02*
X27950Y-42200D01*
X27950Y-42200D02*
X27950Y-43575D01*
X27950Y-43575D02*
X29745Y-43575D01*
X29745Y-43575D02*
X29745Y-39924D01*
X29745Y-39924D02*
X29654Y-39886D01*
X29654Y-39886D02*
X29584Y-39816D01*
X29584Y-39816D02*
X29546Y-39724D01*
X29546Y-39724D02*
X29546Y-38975D01*
X29546Y-38975D02*
X29584Y-38884D01*
X29584Y-38884D02*
X29654Y-38814D01*
X29654Y-38814D02*
X29746Y-38776D01*
X29746Y-38776D02*
X30495Y-38776D01*
X30495Y-38776D02*
X30586Y-38814D01*
X30586Y-38814D02*
X30656Y-38884D01*
X30656Y-38884D02*
X30694Y-38976D01*
X30694Y-38976D02*
X30694Y-39164D01*
X30694Y-39164D02*
X30734Y-39076D01*
X30734Y-39076D02*
X30807Y-39045D01*
X30807Y-39045D02*
X31113Y-39350D01*
X31113Y-39350D02*
X30807Y-39655D01*
X30807Y-39655D02*
X30734Y-39624D01*
X30734Y-39624D02*
X30720Y-39602D01*
X30720Y-39602D02*
X30694Y-39534D01*
X30694Y-39534D02*
X30694Y-39725D01*
X30694Y-39725D02*
X30656Y-39816D01*
X30656Y-39816D02*
X30586Y-39886D01*
X30586Y-39886D02*
X30494Y-39924D01*
X30494Y-39924D02*
X29745Y-39924D01*
X29745Y-39924D02*
X29745Y-43575D01*
X29745Y-43575D02*
X31199Y-43575D01*
X31199Y-43575D02*
X31199Y-39817D01*
X31199Y-39817D02*
X31015Y-39812D01*
X31015Y-39812D02*
X30846Y-39736D01*
X30846Y-39736D02*
X30815Y-39663D01*
X30815Y-39663D02*
X31120Y-39357D01*
X31120Y-39357D02*
X31120Y-39343D01*
X31120Y-39343D02*
X30815Y-39037D01*
X30815Y-39037D02*
X30846Y-38964D01*
X30846Y-38964D02*
X30868Y-38950D01*
X30868Y-38950D02*
X31041Y-38883D01*
X31041Y-38883D02*
X31225Y-38888D01*
X31225Y-38888D02*
X31394Y-38964D01*
X31394Y-38964D02*
X31425Y-39037D01*
X31425Y-39037D02*
X31120Y-39343D01*
X31120Y-39343D02*
X31120Y-39357D01*
X31120Y-39357D02*
X31425Y-39663D01*
X31425Y-39663D02*
X31394Y-39736D01*
X31394Y-39736D02*
X31372Y-39750D01*
X31372Y-39750D02*
X31199Y-39817D01*
X31199Y-39817D02*
X31199Y-43575D01*
X31199Y-43575D02*
X31950Y-43575D01*
X31950Y-43575D02*
X31950Y-42200D01*
X31950Y-42200D02*
X31638Y-42070D01*
X31638Y-42070D02*
X31399Y-41830D01*
X31399Y-41830D02*
X31270Y-41518D01*
X31270Y-41518D02*
X31270Y-41180D01*
X31270Y-41180D02*
X31400Y-40868D01*
X31400Y-40868D02*
X31433Y-40835D01*
X31433Y-40835D02*
X31433Y-39655D01*
X31433Y-39655D02*
X31127Y-39350D01*
X31127Y-39350D02*
X31433Y-39045D01*
X31433Y-39045D02*
X31506Y-39076D01*
X31506Y-39076D02*
X31520Y-39098D01*
X31520Y-39098D02*
X31587Y-39271D01*
X31587Y-39271D02*
X31582Y-39455D01*
X31582Y-39455D02*
X31506Y-39624D01*
X31506Y-39624D02*
X31433Y-39655D01*
X31433Y-39655D02*
X31433Y-40835D01*
X31433Y-40835D02*
X31640Y-40629D01*
X31640Y-40629D02*
X31950Y-40500D01*
X31950Y-40500D02*
X31950Y-38200D01*
X31950Y-38200D02*
X31638Y-38070D01*
X31638Y-38070D02*
X31399Y-37830D01*
X31399Y-37830D02*
X31270Y-37518D01*
X31270Y-37518D02*
X31270Y-37180D01*
X31270Y-37180D02*
X31400Y-36868D01*
X31400Y-36868D02*
X31640Y-36629D01*
X31640Y-36629D02*
X31952Y-36500D01*
X31952Y-36500D02*
X32290Y-36500D01*
X32290Y-36500D02*
X32602Y-36630D01*
X32602Y-36630D02*
X32841Y-36870D01*
X32841Y-36870D02*
X32970Y-37182D01*
X32970Y-37182D02*
X32970Y-37520D01*
X32970Y-37520D02*
X32840Y-37832D01*
X32840Y-37832D02*
X32600Y-38071D01*
X32600Y-38071D02*
X32288Y-38200D01*
X32288Y-38200D02*
X31950Y-38200D01*
X31950Y-38200D02*
X31950Y-40500D01*
X31950Y-40500D02*
X32290Y-40500D01*
X32290Y-40500D02*
X32602Y-40630D01*
X32602Y-40630D02*
X32841Y-40870D01*
X32841Y-40870D02*
X32970Y-41182D01*
X32970Y-41182D02*
X32970Y-41520D01*
X32970Y-41520D02*
X32840Y-41832D01*
X32840Y-41832D02*
X32600Y-42071D01*
X32600Y-42071D02*
X32288Y-42200D01*
X32288Y-42200D02*
X31950Y-42200D01*
X31950Y-42200D02*
X31950Y-43575D01*
X31950Y-43575D02*
X35950Y-43575D01*
X35950Y-43575D02*
X35950Y-42200D01*
X35950Y-42200D02*
X35638Y-42070D01*
X35638Y-42070D02*
X35399Y-41830D01*
X35399Y-41830D02*
X35270Y-41518D01*
X35270Y-41518D02*
X35270Y-41180D01*
X35270Y-41180D02*
X35400Y-40868D01*
X35400Y-40868D02*
X35640Y-40629D01*
X35640Y-40629D02*
X35952Y-40500D01*
X35952Y-40500D02*
X36290Y-40500D01*
X36290Y-40500D02*
X36602Y-40630D01*
X36602Y-40630D02*
X36841Y-40870D01*
X36841Y-40870D02*
X36970Y-41182D01*
X36970Y-41182D02*
X36970Y-41520D01*
X36970Y-41520D02*
X36840Y-41832D01*
X36840Y-41832D02*
X36600Y-42071D01*
X36600Y-42071D02*
X36288Y-42200D01*
X36288Y-42200D02*
X35950Y-42200D01*
X35950Y-42200D02*
X35950Y-43575D01*
X35950Y-43575D02*
X37745Y-43575D01*
X37745Y-43575D02*
X37745Y-39924D01*
X37745Y-39924D02*
X37654Y-39886D01*
X37654Y-39886D02*
X37584Y-39816D01*
X37584Y-39816D02*
X37546Y-39724D01*
X37546Y-39724D02*
X37546Y-38975D01*
X37546Y-38975D02*
X37584Y-38884D01*
X37584Y-38884D02*
X37654Y-38814D01*
X37654Y-38814D02*
X37746Y-38776D01*
X37746Y-38776D02*
X38495Y-38776D01*
X38495Y-38776D02*
X38586Y-38814D01*
X38586Y-38814D02*
X38656Y-38884D01*
X38656Y-38884D02*
X38694Y-38976D01*
X38694Y-38976D02*
X38694Y-39164D01*
X38694Y-39164D02*
X38734Y-39076D01*
X38734Y-39076D02*
X38807Y-39045D01*
X38807Y-39045D02*
X39113Y-39350D01*
X39113Y-39350D02*
X38807Y-39655D01*
X38807Y-39655D02*
X38734Y-39624D01*
X38734Y-39624D02*
X38720Y-39602D01*
X38720Y-39602D02*
X38694Y-39534D01*
X38694Y-39534D02*
X38694Y-39725D01*
X38694Y-39725D02*
X38656Y-39816D01*
X38656Y-39816D02*
X38586Y-39886D01*
X38586Y-39886D02*
X38494Y-39924D01*
X38494Y-39924D02*
X37745Y-39924D01*
X37745Y-39924D02*
X37745Y-43575D01*
X37745Y-43575D02*
X39199Y-43575D01*
X39199Y-43575D02*
X39199Y-39817D01*
X39199Y-39817D02*
X39015Y-39812D01*
X39015Y-39812D02*
X38846Y-39736D01*
X38846Y-39736D02*
X38815Y-39663D01*
X38815Y-39663D02*
X39120Y-39357D01*
X39120Y-39357D02*
X39120Y-39343D01*
X39120Y-39343D02*
X38815Y-39037D01*
X38815Y-39037D02*
X38846Y-38964D01*
X38846Y-38964D02*
X38868Y-38950D01*
X38868Y-38950D02*
X39041Y-38883D01*
X39041Y-38883D02*
X39225Y-38888D01*
X39225Y-38888D02*
X39394Y-38964D01*
X39394Y-38964D02*
X39425Y-39037D01*
X39425Y-39037D02*
X39120Y-39343D01*
X39120Y-39343D02*
X39120Y-39357D01*
X39120Y-39357D02*
X39425Y-39663D01*
X39425Y-39663D02*
X39394Y-39736D01*
X39394Y-39736D02*
X39372Y-39750D01*
X39372Y-39750D02*
X39199Y-39817D01*
X39199Y-39817D02*
X39199Y-43575D01*
X39199Y-43575D02*
X39950Y-43575D01*
X39950Y-43575D02*
X39950Y-42200D01*
X39950Y-42200D02*
X39638Y-42070D01*
X39638Y-42070D02*
X39399Y-41830D01*
X39399Y-41830D02*
X39270Y-41518D01*
X39270Y-41518D02*
X39270Y-41180D01*
X39270Y-41180D02*
X39400Y-40868D01*
X39400Y-40868D02*
X39433Y-40835D01*
X39433Y-40835D02*
X39433Y-39655D01*
X39433Y-39655D02*
X39127Y-39350D01*
X39127Y-39350D02*
X39433Y-39045D01*
X39433Y-39045D02*
X39506Y-39076D01*
X39506Y-39076D02*
X39520Y-39098D01*
X39520Y-39098D02*
X39587Y-39271D01*
X39587Y-39271D02*
X39582Y-39455D01*
X39582Y-39455D02*
X39506Y-39624D01*
X39506Y-39624D02*
X39433Y-39655D01*
X39433Y-39655D02*
X39433Y-40835D01*
X39433Y-40835D02*
X39640Y-40629D01*
X39640Y-40629D02*
X39950Y-40500D01*
X39950Y-40500D02*
X39950Y-38200D01*
X39950Y-38200D02*
X39638Y-38070D01*
X39638Y-38070D02*
X39399Y-37830D01*
X39399Y-37830D02*
X39270Y-37518D01*
X39270Y-37518D02*
X39270Y-37180D01*
X39270Y-37180D02*
X39400Y-36868D01*
X39400Y-36868D02*
X39640Y-36629D01*
X39640Y-36629D02*
X39952Y-36500D01*
X39952Y-36500D02*
X40290Y-36500D01*
X40290Y-36500D02*
X40602Y-36630D01*
X40602Y-36630D02*
X40841Y-36870D01*
X40841Y-36870D02*
X40970Y-37182D01*
X40970Y-37182D02*
X40970Y-37520D01*
X40970Y-37520D02*
X40840Y-37832D01*
X40840Y-37832D02*
X40600Y-38071D01*
X40600Y-38071D02*
X40288Y-38200D01*
X40288Y-38200D02*
X39950Y-38200D01*
X39950Y-38200D02*
X39950Y-40500D01*
X39950Y-40500D02*
X40290Y-40500D01*
X40290Y-40500D02*
X40602Y-40630D01*
X40602Y-40630D02*
X40841Y-40870D01*
X40841Y-40870D02*
X40970Y-41182D01*
X40970Y-41182D02*
X40970Y-41520D01*
X40970Y-41520D02*
X40840Y-41832D01*
X40840Y-41832D02*
X40600Y-42071D01*
X40600Y-42071D02*
X40288Y-42200D01*
X40288Y-42200D02*
X39950Y-42200D01*
X39950Y-42200D02*
X39950Y-43575D01*
X39950Y-43575D02*
X43950Y-43575D01*
X43950Y-43575D02*
X43950Y-42200D01*
X43950Y-42200D02*
X43638Y-42070D01*
X43638Y-42070D02*
X43399Y-41830D01*
X43399Y-41830D02*
X43270Y-41518D01*
X43270Y-41518D02*
X43270Y-41180D01*
X43270Y-41180D02*
X43400Y-40868D01*
X43400Y-40868D02*
X43640Y-40629D01*
X43640Y-40629D02*
X43952Y-40500D01*
X43952Y-40500D02*
X44290Y-40500D01*
X44290Y-40500D02*
X44602Y-40630D01*
X44602Y-40630D02*
X44841Y-40870D01*
X44841Y-40870D02*
X44970Y-41182D01*
X44970Y-41182D02*
X44970Y-41520D01*
X44970Y-41520D02*
X44840Y-41832D01*
X44840Y-41832D02*
X44600Y-42071D01*
X44600Y-42071D02*
X44288Y-42200D01*
X44288Y-42200D02*
X43950Y-42200D01*
X43950Y-42200D02*
X43950Y-43575D01*
X43950Y-43575D02*
X45745Y-43575D01*
X45745Y-43575D02*
X45745Y-39924D01*
X45745Y-39924D02*
X45654Y-39886D01*
X45654Y-39886D02*
X45584Y-39816D01*
X45584Y-39816D02*
X45546Y-39724D01*
X45546Y-39724D02*
X45546Y-38975D01*
X45546Y-38975D02*
X45584Y-38884D01*
X45584Y-38884D02*
X45654Y-38814D01*
X45654Y-38814D02*
X45746Y-38776D01*
X45746Y-38776D02*
X46495Y-38776D01*
X46495Y-38776D02*
X46586Y-38814D01*
X46586Y-38814D02*
X46656Y-38884D01*
X46656Y-38884D02*
X46694Y-38976D01*
X46694Y-38976D02*
X46694Y-39164D01*
X46694Y-39164D02*
X46734Y-39076D01*
X46734Y-39076D02*
X46807Y-39045D01*
X46807Y-39045D02*
X47113Y-39350D01*
X47113Y-39350D02*
X46807Y-39655D01*
X46807Y-39655D02*
X46734Y-39624D01*
X46734Y-39624D02*
X46720Y-39602D01*
X46720Y-39602D02*
X46694Y-39534D01*
X46694Y-39534D02*
X46694Y-39725D01*
X46694Y-39725D02*
X46656Y-39816D01*
X46656Y-39816D02*
X46586Y-39886D01*
X46586Y-39886D02*
X46494Y-39924D01*
X46494Y-39924D02*
X45745Y-39924D01*
X45745Y-39924D02*
X45745Y-43575D01*
X45745Y-43575D02*
X47199Y-43575D01*
X47199Y-43575D02*
X47199Y-39817D01*
X47199Y-39817D02*
X47015Y-39812D01*
X47015Y-39812D02*
X46846Y-39736D01*
X46846Y-39736D02*
X46815Y-39663D01*
X46815Y-39663D02*
X47120Y-39357D01*
X47120Y-39357D02*
X47120Y-39343D01*
X47120Y-39343D02*
X46815Y-39037D01*
X46815Y-39037D02*
X46846Y-38964D01*
X46846Y-38964D02*
X46868Y-38950D01*
X46868Y-38950D02*
X47041Y-38883D01*
X47041Y-38883D02*
X47225Y-38888D01*
X47225Y-38888D02*
X47394Y-38964D01*
X47394Y-38964D02*
X47425Y-39037D01*
X47425Y-39037D02*
X47120Y-39343D01*
X47120Y-39343D02*
X47120Y-39357D01*
X47120Y-39357D02*
X47425Y-39663D01*
X47425Y-39663D02*
X47394Y-39736D01*
X47394Y-39736D02*
X47372Y-39750D01*
X47372Y-39750D02*
X47199Y-39817D01*
X47199Y-39817D02*
X47199Y-43575D01*
X47199Y-43575D02*
X47950Y-43575D01*
X47950Y-43575D02*
X47950Y-42200D01*
X47950Y-42200D02*
X47638Y-42070D01*
X47638Y-42070D02*
X47399Y-41830D01*
X47399Y-41830D02*
X47270Y-41518D01*
X47270Y-41518D02*
X47270Y-41180D01*
X47270Y-41180D02*
X47400Y-40868D01*
X47400Y-40868D02*
X47433Y-40835D01*
X47433Y-40835D02*
X47433Y-39655D01*
X47433Y-39655D02*
X47127Y-39350D01*
X47127Y-39350D02*
X47433Y-39045D01*
X47433Y-39045D02*
X47506Y-39076D01*
X47506Y-39076D02*
X47520Y-39098D01*
X47520Y-39098D02*
X47587Y-39271D01*
X47587Y-39271D02*
X47582Y-39455D01*
X47582Y-39455D02*
X47506Y-39624D01*
X47506Y-39624D02*
X47433Y-39655D01*
X47433Y-39655D02*
X47433Y-40835D01*
X47433Y-40835D02*
X47640Y-40629D01*
X47640Y-40629D02*
X47950Y-40500D01*
X47950Y-40500D02*
X47950Y-38200D01*
X47950Y-38200D02*
X47638Y-38070D01*
X47638Y-38070D02*
X47399Y-37830D01*
X47399Y-37830D02*
X47270Y-37518D01*
X47270Y-37518D02*
X47270Y-37180D01*
X47270Y-37180D02*
X47400Y-36868D01*
X47400Y-36868D02*
X47640Y-36629D01*
X47640Y-36629D02*
X47952Y-36500D01*
X47952Y-36500D02*
X48290Y-36500D01*
X48290Y-36500D02*
X48602Y-36630D01*
X48602Y-36630D02*
X48841Y-36870D01*
X48841Y-36870D02*
X48970Y-37182D01*
X48970Y-37182D02*
X48970Y-37520D01*
X48970Y-37520D02*
X48840Y-37832D01*
X48840Y-37832D02*
X48600Y-38071D01*
X48600Y-38071D02*
X48288Y-38200D01*
X48288Y-38200D02*
X47950Y-38200D01*
X47950Y-38200D02*
X47950Y-40500D01*
X47950Y-40500D02*
X48290Y-40500D01*
X48290Y-40500D02*
X48602Y-40630D01*
X48602Y-40630D02*
X48841Y-40870D01*
X48841Y-40870D02*
X48970Y-41182D01*
X48970Y-41182D02*
X48970Y-41520D01*
X48970Y-41520D02*
X48840Y-41832D01*
X48840Y-41832D02*
X48600Y-42071D01*
X48600Y-42071D02*
X48288Y-42200D01*
X48288Y-42200D02*
X47950Y-42200D01*
X47950Y-42200D02*
X47950Y-43575D01*
X47950Y-43575D02*
X51950Y-43575D01*
X51950Y-43575D02*
X51950Y-42200D01*
X51950Y-42200D02*
X51638Y-42070D01*
X51638Y-42070D02*
X51399Y-41830D01*
X51399Y-41830D02*
X51270Y-41518D01*
X51270Y-41518D02*
X51270Y-41180D01*
X51270Y-41180D02*
X51400Y-40868D01*
X51400Y-40868D02*
X51640Y-40629D01*
X51640Y-40629D02*
X51952Y-40500D01*
X51952Y-40500D02*
X52290Y-40500D01*
X52290Y-40500D02*
X52602Y-40630D01*
X52602Y-40630D02*
X52841Y-40870D01*
X52841Y-40870D02*
X52970Y-41182D01*
X52970Y-41182D02*
X52970Y-41520D01*
X52970Y-41520D02*
X52840Y-41832D01*
X52840Y-41832D02*
X52600Y-42071D01*
X52600Y-42071D02*
X52288Y-42200D01*
X52288Y-42200D02*
X51950Y-42200D01*
X51950Y-42200D02*
X51950Y-43575D01*
X51950Y-43575D02*
X53745Y-43575D01*
X53745Y-43575D02*
X53745Y-39924D01*
X53745Y-39924D02*
X53654Y-39886D01*
X53654Y-39886D02*
X53584Y-39816D01*
X53584Y-39816D02*
X53546Y-39724D01*
X53546Y-39724D02*
X53546Y-38975D01*
X53546Y-38975D02*
X53584Y-38884D01*
X53584Y-38884D02*
X53654Y-38814D01*
X53654Y-38814D02*
X53746Y-38776D01*
X53746Y-38776D02*
X54495Y-38776D01*
X54495Y-38776D02*
X54586Y-38814D01*
X54586Y-38814D02*
X54656Y-38884D01*
X54656Y-38884D02*
X54694Y-38976D01*
X54694Y-38976D02*
X54694Y-39164D01*
X54694Y-39164D02*
X54734Y-39076D01*
X54734Y-39076D02*
X54807Y-39045D01*
X54807Y-39045D02*
X55113Y-39350D01*
X55113Y-39350D02*
X54807Y-39655D01*
X54807Y-39655D02*
X54734Y-39624D01*
X54734Y-39624D02*
X54720Y-39602D01*
X54720Y-39602D02*
X54694Y-39534D01*
X54694Y-39534D02*
X54694Y-39725D01*
X54694Y-39725D02*
X54656Y-39816D01*
X54656Y-39816D02*
X54586Y-39886D01*
X54586Y-39886D02*
X54494Y-39924D01*
X54494Y-39924D02*
X53745Y-39924D01*
X53745Y-39924D02*
X53745Y-43575D01*
X53745Y-43575D02*
X55199Y-43575D01*
X55199Y-43575D02*
X55199Y-39817D01*
X55199Y-39817D02*
X55015Y-39812D01*
X55015Y-39812D02*
X54846Y-39736D01*
X54846Y-39736D02*
X54815Y-39663D01*
X54815Y-39663D02*
X55120Y-39357D01*
X55120Y-39357D02*
X55120Y-39343D01*
X55120Y-39343D02*
X54815Y-39037D01*
X54815Y-39037D02*
X54846Y-38964D01*
X54846Y-38964D02*
X54868Y-38950D01*
X54868Y-38950D02*
X55041Y-38883D01*
X55041Y-38883D02*
X55225Y-38888D01*
X55225Y-38888D02*
X55394Y-38964D01*
X55394Y-38964D02*
X55425Y-39037D01*
X55425Y-39037D02*
X55120Y-39343D01*
X55120Y-39343D02*
X55120Y-39357D01*
X55120Y-39357D02*
X55425Y-39663D01*
X55425Y-39663D02*
X55394Y-39736D01*
X55394Y-39736D02*
X55372Y-39750D01*
X55372Y-39750D02*
X55199Y-39817D01*
X55199Y-39817D02*
X55199Y-43575D01*
X55199Y-43575D02*
X55950Y-43575D01*
X55950Y-43575D02*
X55950Y-42200D01*
X55950Y-42200D02*
X55638Y-42070D01*
X55638Y-42070D02*
X55399Y-41830D01*
X55399Y-41830D02*
X55270Y-41518D01*
X55270Y-41518D02*
X55270Y-41180D01*
X55270Y-41180D02*
X55400Y-40868D01*
X55400Y-40868D02*
X55433Y-40835D01*
X55433Y-40835D02*
X55433Y-39655D01*
X55433Y-39655D02*
X55127Y-39350D01*
X55127Y-39350D02*
X55433Y-39045D01*
X55433Y-39045D02*
X55506Y-39076D01*
X55506Y-39076D02*
X55520Y-39098D01*
X55520Y-39098D02*
X55587Y-39271D01*
X55587Y-39271D02*
X55582Y-39455D01*
X55582Y-39455D02*
X55506Y-39624D01*
X55506Y-39624D02*
X55433Y-39655D01*
X55433Y-39655D02*
X55433Y-40835D01*
X55433Y-40835D02*
X55640Y-40629D01*
X55640Y-40629D02*
X55950Y-40500D01*
X55950Y-40500D02*
X55950Y-38200D01*
X55950Y-38200D02*
X55638Y-38070D01*
X55638Y-38070D02*
X55399Y-37830D01*
X55399Y-37830D02*
X55270Y-37518D01*
X55270Y-37518D02*
X55270Y-37180D01*
X55270Y-37180D02*
X55400Y-36868D01*
X55400Y-36868D02*
X55640Y-36629D01*
X55640Y-36629D02*
X55952Y-36500D01*
X55952Y-36500D02*
X56290Y-36500D01*
X56290Y-36500D02*
X56602Y-36630D01*
X56602Y-36630D02*
X56841Y-36870D01*
X56841Y-36870D02*
X56970Y-37182D01*
X56970Y-37182D02*
X56970Y-37520D01*
X56970Y-37520D02*
X56840Y-37832D01*
X56840Y-37832D02*
X56600Y-38071D01*
X56600Y-38071D02*
X56288Y-38200D01*
X56288Y-38200D02*
X55950Y-38200D01*
X55950Y-38200D02*
X55950Y-40500D01*
X55950Y-40500D02*
X56290Y-40500D01*
X56290Y-40500D02*
X56602Y-40630D01*
X56602Y-40630D02*
X56841Y-40870D01*
X56841Y-40870D02*
X56970Y-41182D01*
X56970Y-41182D02*
X56970Y-41520D01*
X56970Y-41520D02*
X56840Y-41832D01*
X56840Y-41832D02*
X56600Y-42071D01*
X56600Y-42071D02*
X56288Y-42200D01*
X56288Y-42200D02*
X55950Y-42200D01*
X55950Y-42200D02*
X55950Y-43575D01*
X55950Y-43575D02*
X59950Y-43575D01*
X59950Y-43575D02*
X59950Y-42200D01*
X59950Y-42200D02*
X59638Y-42070D01*
X59638Y-42070D02*
X59399Y-41830D01*
X59399Y-41830D02*
X59270Y-41518D01*
X59270Y-41518D02*
X59270Y-41180D01*
X59270Y-41180D02*
X59400Y-40868D01*
X59400Y-40868D02*
X59640Y-40629D01*
X59640Y-40629D02*
X59952Y-40500D01*
X59952Y-40500D02*
X60290Y-40500D01*
X60290Y-40500D02*
X60602Y-40630D01*
X60602Y-40630D02*
X60841Y-40870D01*
X60841Y-40870D02*
X60970Y-41182D01*
X60970Y-41182D02*
X60970Y-41520D01*
X60970Y-41520D02*
X60840Y-41832D01*
X60840Y-41832D02*
X60600Y-42071D01*
X60600Y-42071D02*
X60288Y-42200D01*
X60288Y-42200D02*
X59950Y-42200D01*
X59950Y-42200D02*
X59950Y-43575D01*
X59950Y-43575D02*
X61745Y-43575D01*
X61745Y-43575D02*
X61745Y-39924D01*
X61745Y-39924D02*
X61654Y-39886D01*
X61654Y-39886D02*
X61584Y-39816D01*
X61584Y-39816D02*
X61546Y-39724D01*
X61546Y-39724D02*
X61546Y-38975D01*
X61546Y-38975D02*
X61584Y-38884D01*
X61584Y-38884D02*
X61654Y-38814D01*
X61654Y-38814D02*
X61746Y-38776D01*
X61746Y-38776D02*
X62495Y-38776D01*
X62495Y-38776D02*
X62586Y-38814D01*
X62586Y-38814D02*
X62656Y-38884D01*
X62656Y-38884D02*
X62694Y-38976D01*
X62694Y-38976D02*
X62694Y-39164D01*
X62694Y-39164D02*
X62734Y-39076D01*
X62734Y-39076D02*
X62807Y-39045D01*
X62807Y-39045D02*
X63113Y-39350D01*
X63113Y-39350D02*
X62807Y-39655D01*
X62807Y-39655D02*
X62734Y-39624D01*
X62734Y-39624D02*
X62720Y-39602D01*
X62720Y-39602D02*
X62694Y-39534D01*
X62694Y-39534D02*
X62694Y-39725D01*
X62694Y-39725D02*
X62656Y-39816D01*
X62656Y-39816D02*
X62586Y-39886D01*
X62586Y-39886D02*
X62494Y-39924D01*
X62494Y-39924D02*
X61745Y-39924D01*
X61745Y-39924D02*
X61745Y-43575D01*
X61745Y-43575D02*
X63199Y-43575D01*
X63199Y-43575D02*
X63199Y-39817D01*
X63199Y-39817D02*
X63015Y-39812D01*
X63015Y-39812D02*
X62846Y-39736D01*
X62846Y-39736D02*
X62815Y-39663D01*
X62815Y-39663D02*
X63120Y-39357D01*
X63120Y-39357D02*
X63120Y-39343D01*
X63120Y-39343D02*
X62815Y-39037D01*
X62815Y-39037D02*
X62846Y-38964D01*
X62846Y-38964D02*
X62868Y-38950D01*
X62868Y-38950D02*
X63041Y-38883D01*
X63041Y-38883D02*
X63225Y-38888D01*
X63225Y-38888D02*
X63394Y-38964D01*
X63394Y-38964D02*
X63425Y-39037D01*
X63425Y-39037D02*
X63120Y-39343D01*
X63120Y-39343D02*
X63120Y-39357D01*
X63120Y-39357D02*
X63425Y-39663D01*
X63425Y-39663D02*
X63394Y-39736D01*
X63394Y-39736D02*
X63372Y-39750D01*
X63372Y-39750D02*
X63199Y-39817D01*
X63199Y-39817D02*
X63199Y-43575D01*
X63199Y-43575D02*
X63950Y-43575D01*
X63950Y-43575D02*
X63950Y-42200D01*
X63950Y-42200D02*
X63638Y-42070D01*
X63638Y-42070D02*
X63399Y-41830D01*
X63399Y-41830D02*
X63270Y-41518D01*
X63270Y-41518D02*
X63270Y-41180D01*
X63270Y-41180D02*
X63400Y-40868D01*
X63400Y-40868D02*
X63433Y-40835D01*
X63433Y-40835D02*
X63433Y-39655D01*
X63433Y-39655D02*
X63127Y-39350D01*
X63127Y-39350D02*
X63433Y-39045D01*
X63433Y-39045D02*
X63506Y-39076D01*
X63506Y-39076D02*
X63520Y-39098D01*
X63520Y-39098D02*
X63587Y-39271D01*
X63587Y-39271D02*
X63582Y-39455D01*
X63582Y-39455D02*
X63506Y-39624D01*
X63506Y-39624D02*
X63433Y-39655D01*
X63433Y-39655D02*
X63433Y-40835D01*
X63433Y-40835D02*
X63640Y-40629D01*
X63640Y-40629D02*
X63950Y-40500D01*
X63950Y-40500D02*
X63950Y-38200D01*
X63950Y-38200D02*
X63638Y-38070D01*
X63638Y-38070D02*
X63399Y-37830D01*
X63399Y-37830D02*
X63270Y-37518D01*
X63270Y-37518D02*
X63270Y-37180D01*
X63270Y-37180D02*
X63400Y-36868D01*
X63400Y-36868D02*
X63640Y-36629D01*
X63640Y-36629D02*
X63952Y-36500D01*
X63952Y-36500D02*
X64290Y-36500D01*
X64290Y-36500D02*
X64602Y-36630D01*
X64602Y-36630D02*
X64841Y-36870D01*
X64841Y-36870D02*
X64970Y-37182D01*
X64970Y-37182D02*
X64970Y-37520D01*
X64970Y-37520D02*
X64840Y-37832D01*
X64840Y-37832D02*
X64600Y-38071D01*
X64600Y-38071D02*
X64288Y-38200D01*
X64288Y-38200D02*
X63950Y-38200D01*
X63950Y-38200D02*
X63950Y-40500D01*
X63950Y-40500D02*
X64290Y-40500D01*
X64290Y-40500D02*
X64602Y-40630D01*
X64602Y-40630D02*
X64841Y-40870D01*
X64841Y-40870D02*
X64970Y-41182D01*
X64970Y-41182D02*
X64970Y-41520D01*
X64970Y-41520D02*
X64840Y-41832D01*
X64840Y-41832D02*
X64600Y-42071D01*
X64600Y-42071D02*
X64288Y-42200D01*
X64288Y-42200D02*
X63950Y-42200D01*
X63950Y-42200D02*
X63950Y-43575D01*
X63950Y-43575D02*
X67950Y-43575D01*
X67950Y-43575D02*
X67950Y-42200D01*
X67950Y-42200D02*
X67638Y-42070D01*
X67638Y-42070D02*
X67399Y-41830D01*
X67399Y-41830D02*
X67270Y-41518D01*
X67270Y-41518D02*
X67270Y-41180D01*
X67270Y-41180D02*
X67400Y-40868D01*
X67400Y-40868D02*
X67640Y-40629D01*
X67640Y-40629D02*
X67952Y-40500D01*
X67952Y-40500D02*
X68290Y-40500D01*
X68290Y-40500D02*
X68602Y-40630D01*
X68602Y-40630D02*
X68841Y-40870D01*
X68841Y-40870D02*
X68970Y-41182D01*
X68970Y-41182D02*
X68970Y-41520D01*
X68970Y-41520D02*
X68840Y-41832D01*
X68840Y-41832D02*
X68600Y-42071D01*
X68600Y-42071D02*
X68288Y-42200D01*
X68288Y-42200D02*
X67950Y-42200D01*
X67950Y-42200D02*
X67950Y-43575D01*
X67950Y-43575D02*
X71199Y-43575D01*
X71199Y-43575D02*
X71199Y-39817D01*
X71199Y-39817D02*
X71015Y-39812D01*
X71015Y-39812D02*
X70846Y-39736D01*
X70846Y-39736D02*
X70815Y-39663D01*
X70815Y-39663D02*
X71120Y-39357D01*
X71120Y-39357D02*
X71120Y-39343D01*
X71120Y-39343D02*
X70815Y-39037D01*
X70815Y-39037D02*
X70846Y-38964D01*
X70846Y-38964D02*
X70868Y-38950D01*
X70868Y-38950D02*
X71041Y-38883D01*
X71041Y-38883D02*
X71225Y-38888D01*
X71225Y-38888D02*
X71394Y-38964D01*
X71394Y-38964D02*
X71425Y-39037D01*
X71425Y-39037D02*
X71120Y-39343D01*
X71120Y-39343D02*
X71120Y-39357D01*
X71120Y-39357D02*
X71425Y-39663D01*
X71425Y-39663D02*
X71394Y-39736D01*
X71394Y-39736D02*
X71372Y-39750D01*
X71372Y-39750D02*
X71199Y-39817D01*
X71199Y-39817D02*
X71199Y-43575D01*
X71199Y-43575D02*
X71950Y-43575D01*
X71950Y-43575D02*
X71950Y-42200D01*
X71950Y-42200D02*
X71638Y-42070D01*
X71638Y-42070D02*
X71399Y-41830D01*
X71399Y-41830D02*
X71270Y-41518D01*
X71270Y-41518D02*
X71270Y-41180D01*
X71270Y-41180D02*
X71400Y-40868D01*
X71400Y-40868D02*
X71433Y-40835D01*
X71433Y-40835D02*
X71433Y-39655D01*
X71433Y-39655D02*
X71127Y-39350D01*
X71127Y-39350D02*
X71433Y-39045D01*
X71433Y-39045D02*
X71506Y-39076D01*
X71506Y-39076D02*
X71520Y-39098D01*
X71520Y-39098D02*
X71587Y-39271D01*
X71587Y-39271D02*
X71582Y-39455D01*
X71582Y-39455D02*
X71506Y-39624D01*
X71506Y-39624D02*
X71433Y-39655D01*
X71433Y-39655D02*
X71433Y-40835D01*
X71433Y-40835D02*
X71640Y-40629D01*
X71640Y-40629D02*
X71950Y-40500D01*
X71950Y-40500D02*
X71950Y-38200D01*
X71950Y-38200D02*
X71638Y-38070D01*
X71638Y-38070D02*
X71399Y-37830D01*
X71399Y-37830D02*
X71270Y-37518D01*
X71270Y-37518D02*
X71270Y-37180D01*
X71270Y-37180D02*
X71400Y-36868D01*
X71400Y-36868D02*
X71640Y-36629D01*
X71640Y-36629D02*
X71952Y-36500D01*
X71952Y-36500D02*
X72290Y-36500D01*
X72290Y-36500D02*
X72602Y-36630D01*
X72602Y-36630D02*
X72841Y-36870D01*
X72841Y-36870D02*
X72970Y-37182D01*
X72970Y-37182D02*
X72970Y-37520D01*
X72970Y-37520D02*
X72840Y-37832D01*
X72840Y-37832D02*
X72600Y-38071D01*
X72600Y-38071D02*
X72288Y-38200D01*
X72288Y-38200D02*
X71950Y-38200D01*
X71950Y-38200D02*
X71950Y-40500D01*
X71950Y-40500D02*
X72290Y-40500D01*
X72290Y-40500D02*
X72602Y-40630D01*
X72602Y-40630D02*
X72841Y-40870D01*
X72841Y-40870D02*
X72970Y-41182D01*
X72970Y-41182D02*
X72970Y-41520D01*
X72970Y-41520D02*
X72840Y-41832D01*
X72840Y-41832D02*
X72600Y-42071D01*
X72600Y-42071D02*
X72288Y-42200D01*
X72288Y-42200D02*
X71950Y-42200D01*
X71950Y-42200D02*
X71950Y-43575D01*
X71950Y-43575D02*
X75950Y-43575D01*
X75950Y-43575D02*
X75950Y-42200D01*
X75950Y-42200D02*
X75638Y-42070D01*
X75638Y-42070D02*
X75399Y-41830D01*
X75399Y-41830D02*
X75270Y-41518D01*
X75270Y-41518D02*
X75270Y-41180D01*
X75270Y-41180D02*
X75400Y-40868D01*
X75400Y-40868D02*
X75640Y-40629D01*
X75640Y-40629D02*
X75952Y-40500D01*
X75952Y-40500D02*
X76290Y-40500D01*
X76290Y-40500D02*
X76602Y-40630D01*
X76602Y-40630D02*
X76841Y-40870D01*
X76841Y-40870D02*
X76970Y-41182D01*
X76970Y-41182D02*
X76970Y-41520D01*
X76970Y-41520D02*
X76840Y-41832D01*
X76840Y-41832D02*
X76600Y-42071D01*
X76600Y-42071D02*
X76288Y-42200D01*
X76288Y-42200D02*
X75950Y-42200D01*
X75950Y-42200D02*
X75950Y-43575D01*
X75950Y-43575D02*
X77745Y-43575D01*
X77745Y-43575D02*
X77745Y-39924D01*
X77745Y-39924D02*
X77654Y-39886D01*
X77654Y-39886D02*
X77584Y-39816D01*
X77584Y-39816D02*
X77546Y-39724D01*
X77546Y-39724D02*
X77546Y-38975D01*
X77546Y-38975D02*
X77584Y-38884D01*
X77584Y-38884D02*
X77654Y-38814D01*
X77654Y-38814D02*
X77746Y-38776D01*
X77746Y-38776D02*
X78495Y-38776D01*
X78495Y-38776D02*
X78586Y-38814D01*
X78586Y-38814D02*
X78656Y-38884D01*
X78656Y-38884D02*
X78694Y-38976D01*
X78694Y-38976D02*
X78694Y-39164D01*
X78694Y-39164D02*
X78734Y-39076D01*
X78734Y-39076D02*
X78807Y-39045D01*
X78807Y-39045D02*
X79113Y-39350D01*
X79113Y-39350D02*
X78807Y-39655D01*
X78807Y-39655D02*
X78734Y-39624D01*
X78734Y-39624D02*
X78720Y-39602D01*
X78720Y-39602D02*
X78694Y-39534D01*
X78694Y-39534D02*
X78694Y-39725D01*
X78694Y-39725D02*
X78656Y-39816D01*
X78656Y-39816D02*
X78586Y-39886D01*
X78586Y-39886D02*
X78494Y-39924D01*
X78494Y-39924D02*
X77745Y-39924D01*
X77745Y-39924D02*
X77745Y-43575D01*
X77745Y-43575D02*
X79199Y-43575D01*
X79199Y-43575D02*
X79199Y-39817D01*
X79199Y-39817D02*
X79015Y-39812D01*
X79015Y-39812D02*
X78846Y-39736D01*
X78846Y-39736D02*
X78815Y-39663D01*
X78815Y-39663D02*
X79120Y-39357D01*
X79120Y-39357D02*
X79120Y-39343D01*
X79120Y-39343D02*
X78815Y-39037D01*
X78815Y-39037D02*
X78846Y-38964D01*
X78846Y-38964D02*
X78868Y-38950D01*
X78868Y-38950D02*
X79041Y-38883D01*
X79041Y-38883D02*
X79225Y-38888D01*
X79225Y-38888D02*
X79394Y-38964D01*
X79394Y-38964D02*
X79425Y-39037D01*
X79425Y-39037D02*
X79120Y-39343D01*
X79120Y-39343D02*
X79120Y-39357D01*
X79120Y-39357D02*
X79425Y-39663D01*
X79425Y-39663D02*
X79394Y-39736D01*
X79394Y-39736D02*
X79372Y-39750D01*
X79372Y-39750D02*
X79199Y-39817D01*
X79199Y-39817D02*
X79199Y-43575D01*
X79199Y-43575D02*
X79950Y-43575D01*
X79950Y-43575D02*
X79950Y-42200D01*
X79950Y-42200D02*
X79638Y-42070D01*
X79638Y-42070D02*
X79399Y-41830D01*
X79399Y-41830D02*
X79270Y-41518D01*
X79270Y-41518D02*
X79270Y-41180D01*
X79270Y-41180D02*
X79400Y-40868D01*
X79400Y-40868D02*
X79433Y-40835D01*
X79433Y-40835D02*
X79433Y-39655D01*
X79433Y-39655D02*
X79127Y-39350D01*
X79127Y-39350D02*
X79433Y-39045D01*
X79433Y-39045D02*
X79506Y-39076D01*
X79506Y-39076D02*
X79520Y-39098D01*
X79520Y-39098D02*
X79587Y-39271D01*
X79587Y-39271D02*
X79582Y-39455D01*
X79582Y-39455D02*
X79506Y-39624D01*
X79506Y-39624D02*
X79433Y-39655D01*
X79433Y-39655D02*
X79433Y-40835D01*
X79433Y-40835D02*
X79640Y-40629D01*
X79640Y-40629D02*
X79950Y-40500D01*
X79950Y-40500D02*
X79950Y-38200D01*
X79950Y-38200D02*
X79638Y-38070D01*
X79638Y-38070D02*
X79399Y-37830D01*
X79399Y-37830D02*
X79270Y-37518D01*
X79270Y-37518D02*
X79270Y-37180D01*
X79270Y-37180D02*
X79400Y-36868D01*
X79400Y-36868D02*
X79640Y-36629D01*
X79640Y-36629D02*
X79952Y-36500D01*
X79952Y-36500D02*
X80290Y-36500D01*
X80290Y-36500D02*
X80602Y-36630D01*
X80602Y-36630D02*
X80841Y-36870D01*
X80841Y-36870D02*
X80970Y-37182D01*
X80970Y-37182D02*
X80970Y-37520D01*
X80970Y-37520D02*
X80840Y-37832D01*
X80840Y-37832D02*
X80600Y-38071D01*
X80600Y-38071D02*
X80288Y-38200D01*
X80288Y-38200D02*
X79950Y-38200D01*
X79950Y-38200D02*
X79950Y-40500D01*
X79950Y-40500D02*
X80290Y-40500D01*
X80290Y-40500D02*
X80602Y-40630D01*
X80602Y-40630D02*
X80841Y-40870D01*
X80841Y-40870D02*
X80970Y-41182D01*
X80970Y-41182D02*
X80970Y-41520D01*
X80970Y-41520D02*
X80840Y-41832D01*
X80840Y-41832D02*
X80600Y-42071D01*
X80600Y-42071D02*
X80288Y-42200D01*
X80288Y-42200D02*
X79950Y-42200D01*
X79950Y-42200D02*
X79950Y-43575D01*
X79950Y-43575D02*
X83950Y-43575D01*
X83950Y-43575D02*
X83950Y-42200D01*
X83950Y-42200D02*
X83638Y-42070D01*
X83638Y-42070D02*
X83399Y-41830D01*
X83399Y-41830D02*
X83270Y-41518D01*
X83270Y-41518D02*
X83270Y-41180D01*
X83270Y-41180D02*
X83400Y-40868D01*
X83400Y-40868D02*
X83640Y-40629D01*
X83640Y-40629D02*
X83952Y-40500D01*
X83952Y-40500D02*
X84290Y-40500D01*
X84290Y-40500D02*
X84602Y-40630D01*
X84602Y-40630D02*
X84841Y-40870D01*
X84841Y-40870D02*
X84970Y-41182D01*
X84970Y-41182D02*
X84970Y-41520D01*
X84970Y-41520D02*
X84840Y-41832D01*
X84840Y-41832D02*
X84600Y-42071D01*
X84600Y-42071D02*
X84288Y-42200D01*
X84288Y-42200D02*
X83950Y-42200D01*
X83950Y-42200D02*
X83950Y-43575D01*
X83950Y-43575D02*
X87199Y-43575D01*
X87199Y-43575D02*
X87199Y-39817D01*
X87199Y-39817D02*
X87015Y-39812D01*
X87015Y-39812D02*
X86846Y-39736D01*
X86846Y-39736D02*
X86815Y-39663D01*
X86815Y-39663D02*
X87120Y-39357D01*
X87120Y-39357D02*
X87120Y-39343D01*
X87120Y-39343D02*
X86815Y-39037D01*
X86815Y-39037D02*
X86846Y-38964D01*
X86846Y-38964D02*
X86868Y-38950D01*
X86868Y-38950D02*
X87041Y-38883D01*
X87041Y-38883D02*
X87225Y-38888D01*
X87225Y-38888D02*
X87394Y-38964D01*
X87394Y-38964D02*
X87425Y-39037D01*
X87425Y-39037D02*
X87120Y-39343D01*
X87120Y-39343D02*
X87120Y-39357D01*
X87120Y-39357D02*
X87425Y-39663D01*
X87425Y-39663D02*
X87394Y-39736D01*
X87394Y-39736D02*
X87372Y-39750D01*
X87372Y-39750D02*
X87199Y-39817D01*
X87199Y-39817D02*
X87199Y-43575D01*
X87199Y-43575D02*
X87950Y-43575D01*
X87950Y-43575D02*
X87950Y-42200D01*
X87950Y-42200D02*
X87638Y-42070D01*
X87638Y-42070D02*
X87399Y-41830D01*
X87399Y-41830D02*
X87270Y-41518D01*
X87270Y-41518D02*
X87270Y-41180D01*
X87270Y-41180D02*
X87400Y-40868D01*
X87400Y-40868D02*
X87433Y-40835D01*
X87433Y-40835D02*
X87433Y-39655D01*
X87433Y-39655D02*
X87127Y-39350D01*
X87127Y-39350D02*
X87433Y-39045D01*
X87433Y-39045D02*
X87506Y-39076D01*
X87506Y-39076D02*
X87520Y-39098D01*
X87520Y-39098D02*
X87587Y-39271D01*
X87587Y-39271D02*
X87582Y-39455D01*
X87582Y-39455D02*
X87506Y-39624D01*
X87506Y-39624D02*
X87433Y-39655D01*
X87433Y-39655D02*
X87433Y-40835D01*
X87433Y-40835D02*
X87640Y-40629D01*
X87640Y-40629D02*
X87950Y-40500D01*
X87950Y-40500D02*
X87950Y-38200D01*
X87950Y-38200D02*
X87638Y-38070D01*
X87638Y-38070D02*
X87399Y-37830D01*
X87399Y-37830D02*
X87270Y-37518D01*
X87270Y-37518D02*
X87270Y-37180D01*
X87270Y-37180D02*
X87400Y-36868D01*
X87400Y-36868D02*
X87640Y-36629D01*
X87640Y-36629D02*
X87952Y-36500D01*
X87952Y-36500D02*
X88290Y-36500D01*
X88290Y-36500D02*
X88602Y-36630D01*
X88602Y-36630D02*
X88841Y-36870D01*
X88841Y-36870D02*
X88970Y-37182D01*
X88970Y-37182D02*
X88970Y-37520D01*
X88970Y-37520D02*
X88840Y-37832D01*
X88840Y-37832D02*
X88600Y-38071D01*
X88600Y-38071D02*
X88288Y-38200D01*
X88288Y-38200D02*
X87950Y-38200D01*
X87950Y-38200D02*
X87950Y-40500D01*
X87950Y-40500D02*
X88290Y-40500D01*
X88290Y-40500D02*
X88602Y-40630D01*
X88602Y-40630D02*
X88841Y-40870D01*
X88841Y-40870D02*
X88970Y-41182D01*
X88970Y-41182D02*
X88970Y-41520D01*
X88970Y-41520D02*
X88840Y-41832D01*
X88840Y-41832D02*
X88600Y-42071D01*
X88600Y-42071D02*
X88288Y-42200D01*
X88288Y-42200D02*
X87950Y-42200D01*
X87950Y-42200D02*
X87950Y-43575D01*
X87950Y-43575D02*
X89572Y-43575D01*
X89572Y-43575D02*
X89357Y-43359D01*
X89357Y-43359D02*
X89220Y-43028D01*
X89220Y-43028D02*
X89220Y-42670D01*
X89220Y-42670D02*
X89358Y-42339D01*
X89358Y-42339D02*
X89611Y-42087D01*
X89611Y-42087D02*
X89942Y-41950D01*
X89942Y-41950D02*
X90300Y-41950D01*
X90300Y-41950D02*
X90631Y-42088D01*
X90631Y-42088D02*
X90883Y-42341D01*
X90883Y-42341D02*
X91020Y-42672D01*
X91020Y-42672D02*
X91020Y-43030D01*
X91020Y-43030D02*
X90882Y-43361D01*
X90882Y-43361D02*
X90667Y-43575D01*
X90667Y-43575D02*
X91950Y-43575D01*
X91950Y-43575D02*
X91950Y-42200D01*
X91950Y-42200D02*
X91638Y-42070D01*
X91638Y-42070D02*
X91399Y-41830D01*
X91399Y-41830D02*
X91270Y-41518D01*
X91270Y-41518D02*
X91270Y-41180D01*
X91270Y-41180D02*
X91400Y-40868D01*
X91400Y-40868D02*
X91640Y-40629D01*
X91640Y-40629D02*
X91952Y-40500D01*
X91952Y-40500D02*
X92290Y-40500D01*
X92290Y-40500D02*
X92602Y-40630D01*
X92602Y-40630D02*
X92841Y-40870D01*
X92841Y-40870D02*
X92970Y-41182D01*
X92970Y-41182D02*
X92970Y-41520D01*
X92970Y-41520D02*
X92840Y-41832D01*
X92840Y-41832D02*
X92600Y-42071D01*
X92600Y-42071D02*
X92288Y-42200D01*
X92288Y-42200D02*
X91950Y-42200D01*
X91950Y-42200D02*
X91950Y-43575D01*
X91950Y-43575D02*
X93745Y-43575D01*
X93745Y-43575D02*
X93745Y-39924D01*
X93745Y-39924D02*
X93654Y-39886D01*
X93654Y-39886D02*
X93584Y-39816D01*
X93584Y-39816D02*
X93546Y-39724D01*
X93546Y-39724D02*
X93546Y-39186D01*
X93546Y-39186D02*
X89099Y-34740D01*
X89099Y-34740D02*
X85890Y-34740D01*
X85890Y-34740D02*
X85779Y-34718D01*
X85779Y-34718D02*
X85684Y-34654D01*
X85684Y-34654D02*
X82015Y-30985D01*
X82015Y-30985D02*
X82010Y-30977D01*
X82010Y-30977D02*
X82010Y-34830D01*
X82010Y-34830D02*
X85956Y-38775D01*
X85956Y-38775D02*
X86495Y-38776D01*
X86495Y-38776D02*
X86586Y-38814D01*
X86586Y-38814D02*
X86656Y-38884D01*
X86656Y-38884D02*
X86694Y-38976D01*
X86694Y-38976D02*
X86694Y-39164D01*
X86694Y-39164D02*
X86734Y-39076D01*
X86734Y-39076D02*
X86807Y-39045D01*
X86807Y-39045D02*
X87113Y-39350D01*
X87113Y-39350D02*
X86807Y-39655D01*
X86807Y-39655D02*
X86734Y-39624D01*
X86734Y-39624D02*
X86720Y-39602D01*
X86720Y-39602D02*
X86694Y-39534D01*
X86694Y-39534D02*
X86694Y-39725D01*
X86694Y-39725D02*
X86656Y-39816D01*
X86656Y-39816D02*
X86586Y-39886D01*
X86586Y-39886D02*
X86494Y-39924D01*
X86494Y-39924D02*
X85745Y-39924D01*
X85745Y-39924D02*
X85654Y-39886D01*
X85654Y-39886D02*
X85584Y-39816D01*
X85584Y-39816D02*
X85546Y-39724D01*
X85546Y-39724D02*
X85546Y-39186D01*
X85546Y-39186D02*
X81515Y-35155D01*
X81515Y-35155D02*
X81452Y-35061D01*
X81452Y-35061D02*
X81430Y-34950D01*
X81430Y-34950D02*
X81430Y-29378D01*
X81430Y-29378D02*
X81381Y-29358D01*
X81381Y-29358D02*
X81219Y-29196D01*
X81219Y-29196D02*
X81059Y-29358D01*
X81059Y-29358D02*
X81010Y-29378D01*
X81010Y-29378D02*
X81010Y-29960D01*
X81010Y-29960D02*
X80988Y-30071D01*
X80988Y-30071D02*
X80925Y-30165D01*
X80925Y-30165D02*
X80421Y-30668D01*
X80421Y-30668D02*
X80420Y-30671D01*
X80420Y-30671D02*
X77485Y-33605D01*
X77485Y-33605D02*
X77391Y-33668D01*
X77391Y-33668D02*
X77280Y-33690D01*
X77280Y-33690D02*
X74120Y-33690D01*
X74120Y-33690D02*
X70410Y-37400D01*
X70410Y-37400D02*
X70410Y-38776D01*
X70410Y-38776D02*
X70495Y-38776D01*
X70495Y-38776D02*
X70586Y-38814D01*
X70586Y-38814D02*
X70656Y-38884D01*
X70656Y-38884D02*
X70694Y-38976D01*
X70694Y-38976D02*
X70694Y-39164D01*
X70694Y-39164D02*
X70734Y-39076D01*
X70734Y-39076D02*
X70807Y-39045D01*
X70807Y-39045D02*
X71113Y-39350D01*
X71113Y-39350D02*
X70807Y-39655D01*
X70807Y-39655D02*
X70734Y-39624D01*
X70734Y-39624D02*
X70720Y-39602D01*
X70720Y-39602D02*
X70694Y-39534D01*
X70694Y-39534D02*
X70694Y-39725D01*
X70694Y-39725D02*
X70656Y-39816D01*
X70656Y-39816D02*
X70586Y-39886D01*
X70586Y-39886D02*
X70494Y-39924D01*
X70494Y-39924D02*
X69745Y-39924D01*
X69745Y-39924D02*
X69654Y-39886D01*
X69654Y-39886D02*
X69584Y-39816D01*
X69584Y-39816D02*
X69546Y-39724D01*
X69546Y-39724D02*
X69546Y-38975D01*
X69546Y-38975D02*
X69584Y-38884D01*
X69584Y-38884D02*
X69654Y-38814D01*
X69654Y-38814D02*
X69746Y-38776D01*
X69746Y-38776D02*
X69830Y-38776D01*
X69830Y-38776D02*
X69830Y-37280D01*
X69830Y-37280D02*
X69852Y-37169D01*
X69852Y-37169D02*
X69915Y-37075D01*
X69915Y-37075D02*
X73795Y-33195D01*
X73795Y-33195D02*
X73889Y-33132D01*
X73889Y-33132D02*
X74000Y-33110D01*
X74000Y-33110D02*
X77159Y-33110D01*
X77159Y-33110D02*
X80430Y-29840D01*
X80430Y-29840D02*
X80430Y-29378D01*
X80430Y-29378D02*
X80381Y-29358D01*
X80381Y-29358D02*
X80305Y-29282D01*
X80305Y-29282D02*
X80281Y-29341D01*
X80281Y-29341D02*
X80211Y-29411D01*
X80211Y-29411D02*
X80119Y-29449D01*
X80119Y-29449D02*
X79320Y-29449D01*
X79320Y-29449D02*
X79229Y-29411D01*
X79229Y-29411D02*
X79159Y-29341D01*
X79159Y-29341D02*
X79121Y-29249D01*
X79121Y-29249D02*
X79121Y-28450D01*
X79121Y-28450D02*
X79159Y-28359D01*
X79159Y-28359D02*
X79229Y-28289D01*
X79229Y-28289D02*
X79321Y-28251D01*
X79321Y-28251D02*
X79390Y-28251D01*
X79390Y-28251D02*
X79390Y-28173D01*
X79390Y-28173D02*
X79313Y-28139D01*
X79313Y-28139D02*
X79297Y-28116D01*
X79297Y-28116D02*
X79228Y-27933D01*
X79228Y-27933D02*
X79234Y-27738D01*
X79234Y-27738D02*
X79313Y-27561D01*
X79313Y-27561D02*
X79390Y-27527D01*
X79390Y-27527D02*
X79713Y-27850D01*
X79713Y-27850D02*
X79390Y-28173D01*
X79390Y-28173D02*
X79390Y-28251D01*
X79390Y-28251D02*
X79428Y-28251D01*
X79428Y-28251D02*
X79397Y-28180D01*
X79397Y-28180D02*
X79720Y-27857D01*
X79720Y-27857D02*
X79720Y-27843D01*
X79720Y-27843D02*
X79397Y-27520D01*
X79397Y-27520D02*
X79431Y-27443D01*
X79431Y-27443D02*
X79454Y-27427D01*
X79454Y-27427D02*
X79637Y-27358D01*
X79637Y-27358D02*
X79832Y-27364D01*
X79832Y-27364D02*
X80009Y-27443D01*
X80009Y-27443D02*
X80043Y-27520D01*
X80043Y-27520D02*
X79720Y-27843D01*
X79720Y-27843D02*
X79720Y-27857D01*
X79720Y-27857D02*
X80043Y-28180D01*
X80043Y-28180D02*
X80011Y-28251D01*
X80011Y-28251D02*
X80120Y-28251D01*
X80120Y-28251D02*
X80211Y-28289D01*
X80211Y-28289D02*
X80281Y-28359D01*
X80281Y-28359D02*
X80305Y-28417D01*
X80305Y-28417D02*
X80373Y-28350D01*
X80373Y-28350D02*
X80212Y-28189D01*
X80212Y-28189D02*
X80160Y-28064D01*
X80160Y-28064D02*
X80127Y-28139D01*
X80127Y-28139D02*
X80050Y-28173D01*
X80050Y-28173D02*
X79727Y-27850D01*
X79727Y-27850D02*
X80050Y-27527D01*
X80050Y-27527D02*
X80127Y-27561D01*
X80127Y-27561D02*
X80143Y-27584D01*
X80143Y-27584D02*
X80161Y-27633D01*
X80161Y-27633D02*
X80212Y-27511D01*
X80212Y-27511D02*
X80381Y-27342D01*
X80381Y-27342D02*
X80601Y-27251D01*
X80601Y-27251D02*
X80839Y-27251D01*
X80839Y-27251D02*
X81059Y-27342D01*
X81059Y-27342D02*
X81219Y-27503D01*
X81219Y-27503D02*
X81381Y-27342D01*
X81381Y-27342D02*
X81601Y-27251D01*
X81601Y-27251D02*
X81839Y-27251D01*
X81839Y-27251D02*
X82059Y-27342D01*
X82059Y-27342D02*
X82219Y-27503D01*
X82219Y-27503D02*
X82341Y-27381D01*
X82341Y-27381D02*
X81699Y-26740D01*
X81699Y-26740D02*
X62440Y-26740D01*
X62440Y-26740D02*
X61929Y-27251D01*
X61929Y-27251D02*
X62039Y-27251D01*
X62039Y-27251D02*
X62259Y-27342D01*
X62259Y-27342D02*
X62419Y-27503D01*
X62419Y-27503D02*
X62581Y-27342D01*
X62581Y-27342D02*
X62801Y-27251D01*
X62801Y-27251D02*
X63039Y-27251D01*
X63039Y-27251D02*
X63259Y-27342D01*
X63259Y-27342D02*
X63420Y-27502D01*
X63420Y-27502D02*
X63581Y-27342D01*
X63581Y-27342D02*
X63801Y-27251D01*
X63801Y-27251D02*
X64039Y-27251D01*
X64039Y-27251D02*
X64259Y-27342D01*
X64259Y-27342D02*
X64419Y-27502D01*
X64419Y-27502D02*
X64581Y-27342D01*
X64581Y-27342D02*
X64801Y-27251D01*
X64801Y-27251D02*
X65039Y-27251D01*
X65039Y-27251D02*
X65259Y-27342D01*
X65259Y-27342D02*
X65420Y-27502D01*
X65420Y-27502D02*
X65581Y-27342D01*
X65581Y-27342D02*
X65801Y-27251D01*
X65801Y-27251D02*
X66039Y-27251D01*
X66039Y-27251D02*
X66259Y-27342D01*
X66259Y-27342D02*
X66428Y-27511D01*
X66428Y-27511D02*
X66519Y-27731D01*
X66519Y-27731D02*
X66519Y-27969D01*
X66519Y-27969D02*
X66428Y-28189D01*
X66428Y-28189D02*
X66266Y-28350D01*
X66266Y-28350D02*
X66428Y-28511D01*
X66428Y-28511D02*
X66519Y-28731D01*
X66519Y-28731D02*
X66519Y-28969D01*
X66519Y-28969D02*
X66428Y-29189D01*
X66428Y-29189D02*
X66259Y-29358D01*
X66259Y-29358D02*
X66039Y-29449D01*
X66039Y-29449D02*
X65801Y-29449D01*
X65801Y-29449D02*
X65581Y-29358D01*
X65581Y-29358D02*
X65420Y-29196D01*
X65420Y-29196D02*
X65259Y-29358D01*
X65259Y-29358D02*
X65039Y-29449D01*
X65039Y-29449D02*
X64801Y-29449D01*
X64801Y-29449D02*
X64581Y-29358D01*
X64581Y-29358D02*
X64419Y-29197D01*
X64419Y-29197D02*
X64259Y-29358D01*
X64259Y-29358D02*
X64039Y-29449D01*
X64039Y-29449D02*
X63801Y-29449D01*
X63801Y-29449D02*
X63581Y-29358D01*
X63581Y-29358D02*
X63420Y-29197D01*
X63420Y-29197D02*
X63259Y-29358D01*
X63259Y-29358D02*
X63039Y-29449D01*
X63039Y-29449D02*
X62801Y-29449D01*
X62801Y-29449D02*
X62581Y-29358D01*
X62581Y-29358D02*
X62419Y-29196D01*
X62419Y-29196D02*
X62259Y-29358D01*
X62259Y-29358D02*
X62039Y-29449D01*
X62039Y-29449D02*
X61801Y-29449D01*
X61801Y-29449D02*
X61581Y-29358D01*
X61581Y-29358D02*
X61420Y-29196D01*
X61420Y-29196D02*
X61259Y-29358D01*
X61259Y-29358D02*
X61039Y-29449D01*
X61039Y-29449D02*
X60801Y-29449D01*
X60801Y-29449D02*
X60581Y-29358D01*
X60581Y-29358D02*
X60420Y-29196D01*
X60420Y-29196D02*
X60259Y-29358D01*
X60259Y-29358D02*
X60039Y-29449D01*
X60039Y-29449D02*
X59801Y-29449D01*
X59801Y-29449D02*
X59581Y-29358D01*
X59581Y-29358D02*
X59420Y-29196D01*
X59420Y-29196D02*
X59259Y-29358D01*
X59259Y-29358D02*
X59039Y-29449D01*
X59039Y-29449D02*
X58801Y-29449D01*
X58801Y-29449D02*
X58581Y-29358D01*
X58581Y-29358D02*
X58419Y-29196D01*
X58419Y-29196D02*
X58259Y-29358D01*
X58259Y-29358D02*
X58039Y-29449D01*
X58039Y-29449D02*
X57801Y-29449D01*
X57801Y-29449D02*
X57581Y-29358D01*
X57581Y-29358D02*
X57419Y-29197D01*
X57419Y-29197D02*
X57259Y-29358D01*
X57259Y-29358D02*
X57039Y-29449D01*
X57039Y-29449D02*
X56801Y-29449D01*
X56801Y-29449D02*
X56581Y-29358D01*
X56581Y-29358D02*
X56420Y-29196D01*
X56420Y-29196D02*
X56259Y-29358D01*
X56259Y-29358D02*
X56039Y-29449D01*
X56039Y-29449D02*
X55801Y-29449D01*
X55801Y-29449D02*
X55581Y-29358D01*
X55581Y-29358D02*
X55419Y-29197D01*
X55419Y-29197D02*
X55259Y-29358D01*
X55259Y-29358D02*
X55039Y-29449D01*
X55039Y-29449D02*
X54801Y-29449D01*
X54801Y-29449D02*
X54581Y-29358D01*
X54581Y-29358D02*
X54490Y-29267D01*
X54490Y-29267D02*
X54481Y-29291D01*
X54481Y-29291D02*
X54411Y-29361D01*
X54411Y-29361D02*
X54319Y-29399D01*
X54319Y-29399D02*
X53520Y-29399D01*
X53520Y-29399D02*
X53429Y-29361D01*
X53429Y-29361D02*
X53359Y-29291D01*
X53359Y-29291D02*
X53321Y-29199D01*
X53321Y-29199D02*
X53321Y-28500D01*
X53321Y-28500D02*
X53359Y-28409D01*
X53359Y-28409D02*
X53429Y-28339D01*
X53429Y-28339D02*
X53521Y-28301D01*
X53521Y-28301D02*
X53590Y-28301D01*
X53590Y-28301D02*
X53590Y-28173D01*
X53590Y-28173D02*
X53513Y-28139D01*
X53513Y-28139D02*
X53497Y-28116D01*
X53497Y-28116D02*
X53428Y-27933D01*
X53428Y-27933D02*
X53434Y-27738D01*
X53434Y-27738D02*
X53513Y-27561D01*
X53513Y-27561D02*
X53590Y-27527D01*
X53590Y-27527D02*
X53913Y-27850D01*
X53913Y-27850D02*
X53590Y-28173D01*
X53590Y-28173D02*
X53590Y-28301D01*
X53590Y-28301D02*
X53729Y-28301D01*
X53729Y-28301D02*
X53631Y-28257D01*
X53631Y-28257D02*
X53597Y-28180D01*
X53597Y-28180D02*
X53920Y-27857D01*
X53920Y-27857D02*
X53920Y-27843D01*
X53920Y-27843D02*
X53597Y-27520D01*
X53597Y-27520D02*
X53631Y-27443D01*
X53631Y-27443D02*
X53654Y-27427D01*
X53654Y-27427D02*
X53837Y-27358D01*
X53837Y-27358D02*
X54032Y-27364D01*
X54032Y-27364D02*
X54209Y-27443D01*
X54209Y-27443D02*
X54243Y-27520D01*
X54243Y-27520D02*
X53920Y-27843D01*
X53920Y-27843D02*
X53920Y-27857D01*
X53920Y-27857D02*
X54243Y-28180D01*
X54243Y-28180D02*
X54209Y-28257D01*
X54209Y-28257D02*
X54186Y-28273D01*
X54186Y-28273D02*
X54111Y-28301D01*
X54111Y-28301D02*
X54320Y-28301D01*
X54320Y-28301D02*
X54411Y-28339D01*
X54411Y-28339D02*
X54481Y-28409D01*
X54481Y-28409D02*
X54490Y-28432D01*
X54490Y-28432D02*
X54572Y-28349D01*
X54572Y-28349D02*
X54412Y-28189D01*
X54412Y-28189D02*
X54360Y-28064D01*
X54360Y-28064D02*
X54327Y-28139D01*
X54327Y-28139D02*
X54250Y-28173D01*
X54250Y-28173D02*
X53927Y-27850D01*
X53927Y-27850D02*
X54250Y-27527D01*
X54250Y-27527D02*
X54327Y-27561D01*
X54327Y-27561D02*
X54343Y-27584D01*
X54343Y-27584D02*
X54361Y-27633D01*
X54361Y-27633D02*
X54412Y-27511D01*
X54412Y-27511D02*
X54581Y-27342D01*
X54581Y-27342D02*
X54630Y-27321D01*
X54630Y-27321D02*
X54631Y-27240D01*
X54631Y-27240D02*
X46959Y-27240D01*
X46959Y-27240D02*
X44095Y-30105D01*
X44095Y-30105D02*
X44095Y-30145D01*
X44095Y-30145D02*
X44037Y-30283D01*
X44037Y-30283D02*
X43932Y-30388D01*
X43932Y-30388D02*
X43794Y-30445D01*
X43794Y-30445D02*
X43645Y-30445D01*
X43645Y-30445D02*
X43507Y-30387D01*
X43507Y-30387D02*
X43402Y-30282D01*
X43402Y-30282D02*
X43345Y-30144D01*
X43345Y-30144D02*
X43345Y-29995D01*
X43345Y-29995D02*
X43403Y-29857D01*
X43403Y-29857D02*
X43508Y-29752D01*
X43508Y-29752D02*
X43646Y-29695D01*
X43646Y-29695D02*
X43684Y-29695D01*
X43684Y-29695D02*
X46634Y-26745D01*
X46634Y-26745D02*
X46717Y-26690D01*
X46717Y-26690D02*
X40060Y-26690D01*
X40060Y-26690D02*
X39423Y-27327D01*
X39423Y-27327D02*
X39459Y-27342D01*
X39459Y-27342D02*
X39619Y-27502D01*
X39619Y-27502D02*
X39781Y-27342D01*
X39781Y-27342D02*
X40001Y-27251D01*
X40001Y-27251D02*
X40239Y-27251D01*
X40239Y-27251D02*
X40459Y-27342D01*
X40459Y-27342D02*
X40628Y-27511D01*
X40628Y-27511D02*
X40719Y-27731D01*
X40719Y-27731D02*
X40719Y-27969D01*
X40719Y-27969D02*
X40628Y-28189D01*
X40628Y-28189D02*
X40466Y-28349D01*
X40466Y-28349D02*
X40628Y-28511D01*
X40628Y-28511D02*
X40719Y-28731D01*
X40719Y-28731D02*
X40719Y-28969D01*
X40719Y-28969D02*
X40628Y-29189D01*
X40628Y-29189D02*
X40459Y-29358D01*
X40459Y-29358D02*
X40239Y-29449D01*
X40239Y-29449D02*
X40001Y-29449D01*
X40001Y-29449D02*
X39781Y-29358D01*
X39781Y-29358D02*
X39620Y-29197D01*
X39620Y-29197D02*
X39459Y-29358D01*
X39459Y-29358D02*
X39410Y-29378D01*
X39410Y-29378D02*
X39410Y-29460D01*
X39410Y-29460D02*
X40569Y-30620D01*
X40569Y-30620D02*
X57300Y-30620D01*
X57300Y-30620D02*
X57328Y-30592D01*
X57328Y-30592D02*
X57466Y-30535D01*
X57466Y-30535D02*
X57615Y-30535D01*
X57615Y-30535D02*
X57753Y-30593D01*
X57753Y-30593D02*
X57858Y-30698D01*
X57858Y-30698D02*
X57915Y-30836D01*
X57915Y-30836D02*
X57915Y-30985D01*
X57915Y-30985D02*
X57857Y-31123D01*
X57857Y-31123D02*
X57752Y-31228D01*
X57752Y-31228D02*
X57614Y-31285D01*
X57614Y-31285D02*
X57465Y-31285D01*
X57465Y-31285D02*
X57327Y-31227D01*
X57327Y-31227D02*
X57300Y-31200D01*
X57300Y-31200D02*
X57063Y-31200D01*
X57063Y-31200D02*
X57095Y-31276D01*
X57095Y-31276D02*
X57095Y-31425D01*
X57095Y-31425D02*
X57037Y-31563D01*
X57037Y-31563D02*
X56932Y-31668D01*
X56932Y-31668D02*
X56794Y-31725D01*
X56794Y-31725D02*
X56645Y-31725D01*
X56645Y-31725D02*
X56507Y-31667D01*
X56507Y-31667D02*
X56480Y-31640D01*
X56480Y-31640D02*
X55995Y-31640D01*
X55995Y-31640D02*
X55995Y-31725D01*
X55995Y-31725D02*
X55937Y-31863D01*
X55937Y-31863D02*
X55832Y-31968D01*
X55832Y-31968D02*
X55694Y-32025D01*
X55694Y-32025D02*
X55595Y-32025D01*
X55595Y-32025D02*
X55520Y-32040D01*
X55520Y-32040D02*
X54455Y-32040D01*
X54455Y-32040D02*
X54495Y-32136D01*
X54495Y-32136D02*
X54495Y-32285D01*
X54495Y-32285D02*
X54437Y-32423D01*
X54437Y-32423D02*
X54332Y-32528D01*
X54332Y-32528D02*
X54194Y-32585D01*
X54194Y-32585D02*
X54045Y-32585D01*
X54045Y-32585D02*
X53907Y-32527D01*
X53907Y-32527D02*
X53880Y-32500D01*
X53880Y-32500D02*
X27100Y-32500D01*
X27100Y-32500D02*
X22410Y-37190D01*
X22410Y-37190D02*
X22410Y-38776D01*
X22410Y-38776D02*
X22495Y-38776D01*
X22495Y-38776D02*
X22586Y-38814D01*
X22586Y-38814D02*
X22656Y-38884D01*
X22656Y-38884D02*
X22694Y-38976D01*
X22694Y-38976D02*
X22694Y-39164D01*
X22694Y-39164D02*
X22734Y-39076D01*
X22734Y-39076D02*
X22807Y-39045D01*
X22807Y-39045D02*
X23113Y-39350D01*
X23113Y-39350D02*
X22807Y-39655D01*
X22807Y-39655D02*
X22734Y-39624D01*
X22734Y-39624D02*
X22720Y-39602D01*
X22720Y-39602D02*
X22694Y-39534D01*
X22694Y-39534D02*
X22694Y-39725D01*
X22694Y-39725D02*
X22656Y-39816D01*
X22656Y-39816D02*
X22586Y-39886D01*
X22586Y-39886D02*
X22494Y-39924D01*
X22494Y-39924D02*
X21745Y-39924D01*
X21745Y-39924D02*
X21654Y-39886D01*
X21654Y-39886D02*
X21584Y-39816D01*
X21584Y-39816D02*
X21546Y-39724D01*
X21546Y-39724D02*
X21546Y-38975D01*
X21546Y-38975D02*
X21584Y-38884D01*
X21584Y-38884D02*
X21654Y-38814D01*
X21654Y-38814D02*
X21746Y-38776D01*
X21746Y-38776D02*
X21830Y-38776D01*
X21830Y-38776D02*
X21830Y-37070D01*
X21830Y-37070D02*
X21852Y-36959D01*
X21852Y-36959D02*
X21915Y-36865D01*
X21915Y-36865D02*
X26774Y-32005D01*
X26774Y-32005D02*
X26869Y-31942D01*
X26869Y-31942D02*
X26980Y-31920D01*
X26980Y-31920D02*
X38980Y-31920D01*
X38980Y-31920D02*
X36915Y-29855D01*
X36915Y-29855D02*
X36852Y-29761D01*
X36852Y-29761D02*
X36830Y-29650D01*
X36830Y-29650D02*
X36830Y-29378D01*
X36830Y-29378D02*
X36781Y-29358D01*
X36781Y-29358D02*
X36705Y-29282D01*
X36705Y-29282D02*
X36681Y-29341D01*
X36681Y-29341D02*
X36611Y-29411D01*
X36611Y-29411D02*
X36519Y-29449D01*
X36519Y-29449D02*
X35720Y-29449D01*
X35720Y-29449D02*
X35629Y-29411D01*
X35629Y-29411D02*
X35559Y-29341D01*
X35559Y-29341D02*
X35521Y-29249D01*
X35521Y-29249D02*
X35521Y-28450D01*
X35521Y-28450D02*
X35559Y-28359D01*
X35559Y-28359D02*
X35629Y-28289D01*
X35629Y-28289D02*
X35721Y-28251D01*
X35721Y-28251D02*
X35790Y-28251D01*
X35790Y-28251D02*
X35790Y-28173D01*
X35790Y-28173D02*
X35713Y-28139D01*
X35713Y-28139D02*
X35697Y-28116D01*
X35697Y-28116D02*
X35628Y-27933D01*
X35628Y-27933D02*
X35634Y-27738D01*
X35634Y-27738D02*
X35713Y-27561D01*
X35713Y-27561D02*
X35790Y-27527D01*
X35790Y-27527D02*
X36113Y-27850D01*
X36113Y-27850D02*
X35790Y-28173D01*
X35790Y-28173D02*
X35790Y-28251D01*
X35790Y-28251D02*
X35828Y-28251D01*
X35828Y-28251D02*
X35797Y-28180D01*
X35797Y-28180D02*
X36120Y-27857D01*
X36120Y-27857D02*
X36120Y-27843D01*
X36120Y-27843D02*
X35797Y-27520D01*
X35797Y-27520D02*
X35831Y-27443D01*
X35831Y-27443D02*
X35854Y-27427D01*
X35854Y-27427D02*
X36037Y-27358D01*
X36037Y-27358D02*
X36232Y-27364D01*
X36232Y-27364D02*
X36409Y-27443D01*
X36409Y-27443D02*
X36443Y-27520D01*
X36443Y-27520D02*
X36120Y-27843D01*
X36120Y-27843D02*
X36120Y-27857D01*
X36120Y-27857D02*
X36443Y-28180D01*
X36443Y-28180D02*
X36411Y-28251D01*
X36411Y-28251D02*
X36520Y-28251D01*
X36520Y-28251D02*
X36611Y-28289D01*
X36611Y-28289D02*
X36681Y-28359D01*
X36681Y-28359D02*
X36705Y-28417D01*
X36705Y-28417D02*
X36773Y-28350D01*
X36773Y-28350D02*
X36612Y-28189D01*
X36612Y-28189D02*
X36560Y-28064D01*
X36560Y-28064D02*
X36527Y-28139D01*
X36527Y-28139D02*
X36450Y-28173D01*
X36450Y-28173D02*
X36127Y-27850D01*
X36127Y-27850D02*
X36450Y-27527D01*
X36450Y-27527D02*
X36527Y-27561D01*
X36527Y-27561D02*
X36543Y-27584D01*
X36543Y-27584D02*
X36561Y-27633D01*
X36561Y-27633D02*
X36612Y-27511D01*
X36612Y-27511D02*
X36781Y-27342D01*
X36781Y-27342D02*
X36876Y-27302D01*
X36876Y-27302D02*
X36915Y-27245D01*
X36915Y-27245D02*
X38714Y-25445D01*
X38714Y-25445D02*
X38809Y-25382D01*
X38809Y-25382D02*
X38920Y-25360D01*
X38920Y-25360D02*
X54380Y-25360D01*
X54380Y-25360D02*
X54408Y-25332D01*
X54408Y-25332D02*
X54546Y-25275D01*
X54546Y-25275D02*
X54695Y-25275D01*
X54695Y-25275D02*
X54833Y-25333D01*
X54833Y-25333D02*
X54938Y-25438D01*
X54938Y-25438D02*
X54995Y-25576D01*
X54995Y-25576D02*
X54995Y-25660D01*
X54995Y-25660D02*
X56180Y-25660D01*
X56180Y-25660D02*
X56208Y-25632D01*
X56208Y-25632D02*
X56346Y-25575D01*
X56346Y-25575D02*
X56495Y-25575D01*
X56495Y-25575D02*
X56633Y-25633D01*
X56633Y-25633D02*
X56738Y-25738D01*
X56738Y-25738D02*
X56795Y-25876D01*
X56795Y-25876D02*
X56795Y-26025D01*
X56795Y-26025D02*
X56759Y-26110D01*
X56759Y-26110D02*
X57180Y-26110D01*
X57180Y-26110D02*
X57208Y-26082D01*
X57208Y-26082D02*
X57346Y-26025D01*
X57346Y-26025D02*
X57495Y-26025D01*
X57495Y-26025D02*
X57633Y-26083D01*
X57633Y-26083D02*
X57738Y-26188D01*
X57738Y-26188D02*
X57795Y-26326D01*
X57795Y-26326D02*
X57795Y-26475D01*
X57795Y-26475D02*
X57737Y-26613D01*
X57737Y-26613D02*
X57690Y-26659D01*
X57690Y-26659D02*
X58799Y-26660D01*
X58799Y-26660D02*
X59814Y-25645D01*
X59814Y-25645D02*
X59909Y-25582D01*
X59909Y-25582D02*
X60020Y-25560D01*
X60020Y-25560D02*
X82320Y-25560D01*
X82320Y-25560D02*
X82431Y-25582D01*
X82431Y-25582D02*
X82525Y-25645D01*
X82525Y-25645D02*
X83925Y-27045D01*
X83925Y-27045D02*
X83988Y-27139D01*
X83988Y-27139D02*
X84010Y-27250D01*
X84010Y-27250D02*
X84010Y-27321D01*
X84010Y-27321D02*
X84059Y-27342D01*
X84059Y-27342D02*
X84228Y-27511D01*
X84228Y-27511D02*
X84319Y-27731D01*
X84319Y-27731D02*
X84319Y-27969D01*
X84319Y-27969D02*
X84228Y-28189D01*
X84228Y-28189D02*
X84067Y-28350D01*
X84067Y-28350D02*
X84228Y-28511D01*
X84228Y-28511D02*
X84248Y-28560D01*
X84248Y-28560D02*
X84599Y-28560D01*
X84599Y-28560D02*
X84830Y-28329D01*
X84830Y-28329D02*
X84830Y-27270D01*
X84830Y-27270D02*
X83100Y-25540D01*
X83100Y-25540D02*
X55960Y-25540D01*
X55960Y-25540D02*
X55932Y-25568D01*
X55932Y-25568D02*
X55794Y-25625D01*
X55794Y-25625D02*
X55645Y-25625D01*
X55645Y-25625D02*
X55507Y-25567D01*
X55507Y-25567D02*
X55402Y-25462D01*
X55402Y-25462D02*
X55345Y-25324D01*
X55345Y-25324D02*
X55345Y-25175D01*
X55345Y-25175D02*
X55403Y-25037D01*
X55403Y-25037D02*
X55508Y-24932D01*
X55508Y-24932D02*
X55646Y-24875D01*
X55646Y-24875D02*
X55795Y-24875D01*
X55795Y-24875D02*
X55933Y-24933D01*
X55933Y-24933D02*
X55960Y-24960D01*
X55960Y-24960D02*
X83220Y-24960D01*
X83220Y-24960D02*
X83331Y-24982D01*
X83331Y-24982D02*
X83425Y-25045D01*
X83425Y-25045D02*
X85325Y-26945D01*
X85325Y-26945D02*
X85388Y-27039D01*
X85388Y-27039D02*
X85410Y-27150D01*
X85410Y-27150D02*
X85410Y-28450D01*
X85410Y-28450D02*
X85388Y-28562D01*
X85388Y-28562D02*
X85325Y-28656D01*
X85325Y-28656D02*
X84925Y-29055D01*
X84925Y-29055D02*
X84831Y-29118D01*
X84831Y-29118D02*
X84720Y-29140D01*
X84720Y-29140D02*
X84248Y-29140D01*
X84248Y-29140D02*
X84228Y-29189D01*
X84228Y-29189D02*
X84059Y-29358D01*
X84059Y-29358D02*
X83839Y-29449D01*
X83839Y-29449D02*
X83601Y-29449D01*
X83601Y-29449D02*
X83381Y-29358D01*
X83381Y-29358D02*
X83220Y-29197D01*
X83220Y-29197D02*
X83059Y-29358D01*
X83059Y-29358D02*
X82839Y-29449D01*
X82839Y-29449D02*
X82601Y-29449D01*
X82601Y-29449D02*
X82510Y-29411D01*
X82510Y-29411D02*
X82510Y-30660D01*
X82510Y-30660D02*
X86010Y-34160D01*
X86010Y-34160D02*
X89220Y-34160D01*
X89220Y-34160D02*
X89331Y-34182D01*
X89331Y-34182D02*
X89425Y-34245D01*
X89425Y-34245D02*
X93956Y-38776D01*
X93956Y-38776D02*
X94495Y-38776D01*
X94495Y-38776D02*
X94586Y-38814D01*
X94586Y-38814D02*
X94656Y-38884D01*
X94656Y-38884D02*
X94694Y-38976D01*
X94694Y-38976D02*
X94694Y-39164D01*
X94694Y-39164D02*
X94734Y-39076D01*
X94734Y-39076D02*
X94807Y-39045D01*
X94807Y-39045D02*
X95113Y-39350D01*
X95113Y-39350D02*
X94807Y-39655D01*
X94807Y-39655D02*
X94734Y-39624D01*
X94734Y-39624D02*
X94720Y-39602D01*
X94720Y-39602D02*
X94694Y-39534D01*
X94694Y-39534D02*
X94694Y-39725D01*
X94694Y-39725D02*
X94656Y-39816D01*
X94656Y-39816D02*
X94586Y-39886D01*
X94586Y-39886D02*
X94494Y-39924D01*
X94494Y-39924D02*
X93745Y-39924D01*
X93745Y-39924D02*
X93745Y-43575D01*
X93745Y-43575D02*
X95199Y-43575D01*
X95199Y-43575D02*
X95199Y-39817D01*
X95199Y-39817D02*
X95015Y-39812D01*
X95015Y-39812D02*
X94846Y-39736D01*
X94846Y-39736D02*
X94815Y-39663D01*
X94815Y-39663D02*
X95120Y-39357D01*
X95120Y-39357D02*
X95120Y-39343D01*
X95120Y-39343D02*
X94815Y-39037D01*
X94815Y-39037D02*
X94846Y-38964D01*
X94846Y-38964D02*
X94868Y-38950D01*
X94868Y-38950D02*
X95041Y-38883D01*
X95041Y-38883D02*
X95225Y-38888D01*
X95225Y-38888D02*
X95394Y-38964D01*
X95394Y-38964D02*
X95425Y-39037D01*
X95425Y-39037D02*
X95120Y-39343D01*
X95120Y-39343D02*
X95120Y-39357D01*
X95120Y-39357D02*
X95425Y-39663D01*
X95425Y-39663D02*
X95394Y-39736D01*
X95394Y-39736D02*
X95372Y-39750D01*
X95372Y-39750D02*
X95199Y-39817D01*
X95199Y-39817D02*
X95199Y-43575D01*
X95199Y-43575D02*
X95950Y-43575D01*
X95950Y-43575D02*
X95950Y-42200D01*
X95950Y-42200D02*
X95638Y-42070D01*
X95638Y-42070D02*
X95399Y-41830D01*
X95399Y-41830D02*
X95270Y-41518D01*
X95270Y-41518D02*
X95270Y-41180D01*
X95270Y-41180D02*
X95400Y-40868D01*
X95400Y-40868D02*
X95433Y-40835D01*
X95433Y-40835D02*
X95433Y-39655D01*
X95433Y-39655D02*
X95127Y-39350D01*
X95127Y-39350D02*
X95433Y-39045D01*
X95433Y-39045D02*
X95506Y-39076D01*
X95506Y-39076D02*
X95520Y-39098D01*
X95520Y-39098D02*
X95587Y-39271D01*
X95587Y-39271D02*
X95582Y-39455D01*
X95582Y-39455D02*
X95506Y-39624D01*
X95506Y-39624D02*
X95433Y-39655D01*
X95433Y-39655D02*
X95433Y-40835D01*
X95433Y-40835D02*
X95640Y-40629D01*
X95640Y-40629D02*
X95950Y-40500D01*
X95950Y-40500D02*
X95950Y-38200D01*
X95950Y-38200D02*
X95638Y-38070D01*
X95638Y-38070D02*
X95399Y-37830D01*
X95399Y-37830D02*
X95270Y-37518D01*
X95270Y-37518D02*
X95270Y-37180D01*
X95270Y-37180D02*
X95400Y-36868D01*
X95400Y-36868D02*
X95640Y-36629D01*
X95640Y-36629D02*
X95952Y-36500D01*
X95952Y-36500D02*
X96290Y-36500D01*
X96290Y-36500D02*
X96602Y-36630D01*
X96602Y-36630D02*
X96841Y-36870D01*
X96841Y-36870D02*
X96970Y-37182D01*
X96970Y-37182D02*
X96970Y-37520D01*
X96970Y-37520D02*
X96840Y-37832D01*
X96840Y-37832D02*
X96600Y-38071D01*
X96600Y-38071D02*
X96288Y-38200D01*
X96288Y-38200D02*
X95950Y-38200D01*
X95950Y-38200D02*
X95950Y-40500D01*
X95950Y-40500D02*
X96290Y-40500D01*
X96290Y-40500D02*
X96602Y-40630D01*
X96602Y-40630D02*
X96841Y-40870D01*
X96841Y-40870D02*
X96970Y-41182D01*
X96970Y-41182D02*
X96970Y-41520D01*
X96970Y-41520D02*
X96840Y-41832D01*
X96840Y-41832D02*
X96600Y-42071D01*
X96600Y-42071D02*
X96288Y-42200D01*
X96288Y-42200D02*
X95950Y-42200D01*
X95950Y-42200D02*
X95950Y-43575D01*
X95950Y-43575D02*
X97845Y-43575D01*
M02*
