G04 (created by PCBnew (20090216-final)) date Mon 24 Jan 2011 02:34:34 PM PST*
G01*
G70*
G90*
%MOIN*%
G04 Gerber Fmt 3.4, Leading zero omitted, Abs format*
%FSLAX34Y34*%
G04 APERTURE LIST*
%ADD10C,0.012000*%
%ADD11C,0.015000*%
%ADD12C,0.120000*%
%ADD13R,0.065000X0.065000*%
%ADD14C,0.065000*%
%ADD15R,0.070000X0.070000*%
%ADD16C,0.070000*%
%ADD17C,0.130000*%
%ADD18R,0.070000X0.060000*%
%ADD19C,0.025000*%
%ADD20C,0.045000*%
%ADD21C,0.008000*%
%ADD22C,0.020000*%
%ADD23C,0.010000*%
%ADD24C,0.005000*%
%ADD25C,0.140000*%
%ADD26R,0.085000X0.085000*%
%ADD27C,0.085000*%
%ADD28R,0.090000X0.090000*%
%ADD29C,0.090000*%
%ADD30C,0.150000*%
%ADD31R,0.090000X0.080000*%
G04 APERTURE END LIST*
G54D10*
X15881Y-36069D02*
X15880Y-36536D01*
X15880Y-36536D02*
X15614Y-36535D01*
X15614Y-36535D02*
X15525Y-36468D01*
X15525Y-36468D02*
X15526Y-36135D01*
X15526Y-36135D02*
X15437Y-36068D01*
X15437Y-36068D02*
X15170Y-36067D01*
X15170Y-36067D02*
X15081Y-36134D01*
X15081Y-36134D02*
X15080Y-36467D01*
X15080Y-36467D02*
X15169Y-36534D01*
X15882Y-35550D02*
X15794Y-35550D01*
X15883Y-34964D02*
X15084Y-34495D01*
X15795Y-34964D02*
X15172Y-34962D01*
X15172Y-34962D02*
X15083Y-34895D01*
X15083Y-34895D02*
X15084Y-34562D01*
X15084Y-34562D02*
X15173Y-34495D01*
X15173Y-34495D02*
X15796Y-34497D01*
X15796Y-34497D02*
X15884Y-34564D01*
X15884Y-34564D02*
X15883Y-34897D01*
X15883Y-34897D02*
X15795Y-34964D01*
X15884Y-34178D02*
X15085Y-33709D01*
X15796Y-34178D02*
X15173Y-34176D01*
X15173Y-34176D02*
X15085Y-34109D01*
X15085Y-34109D02*
X15085Y-33776D01*
X15085Y-33776D02*
X15174Y-33709D01*
X15174Y-33709D02*
X15797Y-33711D01*
X15797Y-33711D02*
X15885Y-33778D01*
X15885Y-33778D02*
X15885Y-34111D01*
X15885Y-34111D02*
X15796Y-34178D01*
X15886Y-33392D02*
X15087Y-32923D01*
X15798Y-33392D02*
X15175Y-33390D01*
X15175Y-33390D02*
X15086Y-33323D01*
X15086Y-33323D02*
X15086Y-32990D01*
X15086Y-32990D02*
X15176Y-32923D01*
X15176Y-32923D02*
X15799Y-32925D01*
X15799Y-32925D02*
X15886Y-32992D01*
X15886Y-32992D02*
X15886Y-33325D01*
X15886Y-33325D02*
X15798Y-33392D01*
X15887Y-32606D02*
X15088Y-32137D01*
X15799Y-32606D02*
X15176Y-32604D01*
X15176Y-32604D02*
X15087Y-32537D01*
X15087Y-32537D02*
X15088Y-32204D01*
X15088Y-32204D02*
X15177Y-32137D01*
X15177Y-32137D02*
X15800Y-32139D01*
X15800Y-32139D02*
X15888Y-32206D01*
X15888Y-32206D02*
X15887Y-32539D01*
X15887Y-32539D02*
X15799Y-32606D01*
G54D11*
X16170Y-43850D02*
X16170Y-23850D01*
X18120Y-43850D02*
X14800Y-43850D01*
X18120Y-23850D02*
X14800Y-23850D01*
X16170Y-23850D02*
X16400Y-24293D01*
X16170Y-23850D02*
X15940Y-24293D01*
X16170Y-43850D02*
X16400Y-43407D01*
X16170Y-43850D02*
X15940Y-43407D01*
G54D10*
X55502Y-49075D02*
X55435Y-48987D01*
X55435Y-48987D02*
X55435Y-48720D01*
X55435Y-48720D02*
X55502Y-48631D01*
X55502Y-48631D02*
X55835Y-48631D01*
X55835Y-48631D02*
X55902Y-48542D01*
X55902Y-48542D02*
X55902Y-48364D01*
X55902Y-48364D02*
X55835Y-48275D01*
X55835Y-48275D02*
X55502Y-48275D01*
X55502Y-48275D02*
X55435Y-48364D01*
X55435Y-48364D02*
X55435Y-48542D01*
X55435Y-48542D02*
X55502Y-48631D01*
X55835Y-48631D02*
X55902Y-48720D01*
X55902Y-48720D02*
X55902Y-48987D01*
X55902Y-48987D02*
X55835Y-49075D01*
X55835Y-49075D02*
X55502Y-49075D01*
X56421Y-49075D02*
X56421Y-48987D01*
X57007Y-49075D02*
X57474Y-48275D01*
X57007Y-48987D02*
X57007Y-48364D01*
X57007Y-48364D02*
X57074Y-48275D01*
X57074Y-48275D02*
X57407Y-48275D01*
X57407Y-48275D02*
X57474Y-48364D01*
X57474Y-48364D02*
X57474Y-48987D01*
X57474Y-48987D02*
X57407Y-49075D01*
X57407Y-49075D02*
X57074Y-49075D01*
X57074Y-49075D02*
X57007Y-48987D01*
X57793Y-49075D02*
X58260Y-48275D01*
X57793Y-48987D02*
X57793Y-48364D01*
X57793Y-48364D02*
X57860Y-48275D01*
X57860Y-48275D02*
X58193Y-48275D01*
X58193Y-48275D02*
X58260Y-48364D01*
X58260Y-48364D02*
X58260Y-48987D01*
X58260Y-48987D02*
X58193Y-49075D01*
X58193Y-49075D02*
X57860Y-49075D01*
X57860Y-49075D02*
X57793Y-48987D01*
X58579Y-49075D02*
X59046Y-48275D01*
X58579Y-48987D02*
X58579Y-48364D01*
X58579Y-48364D02*
X58646Y-48275D01*
X58646Y-48275D02*
X58979Y-48275D01*
X58979Y-48275D02*
X59046Y-48364D01*
X59046Y-48364D02*
X59046Y-48987D01*
X59046Y-48987D02*
X58979Y-49075D01*
X58979Y-49075D02*
X58646Y-49075D01*
X58646Y-49075D02*
X58579Y-48987D01*
X59365Y-49075D02*
X59832Y-48275D01*
X59365Y-48987D02*
X59365Y-48364D01*
X59365Y-48364D02*
X59432Y-48275D01*
X59432Y-48275D02*
X59765Y-48275D01*
X59765Y-48275D02*
X59832Y-48364D01*
X59832Y-48364D02*
X59832Y-48987D01*
X59832Y-48987D02*
X59765Y-49075D01*
X59765Y-49075D02*
X59432Y-49075D01*
X59432Y-49075D02*
X59365Y-48987D01*
G54D11*
X18120Y-47990D02*
X98120Y-47990D01*
X18120Y-43850D02*
X18120Y-49360D01*
X98120Y-43850D02*
X98120Y-49360D01*
X98120Y-47990D02*
X97677Y-48220D01*
X98120Y-47990D02*
X97677Y-47760D01*
X18120Y-47990D02*
X18563Y-48220D01*
X18120Y-47990D02*
X18563Y-47760D01*
X98120Y-43850D02*
X98120Y-23850D01*
X18120Y-43850D02*
X98120Y-43850D01*
X18120Y-23850D02*
X98120Y-23850D01*
X18120Y-43850D02*
X18120Y-23850D01*
G54D25*
X24120Y-41350D03*
X20120Y-41350D03*
G54D26*
X22120Y-39350D03*
G54D27*
X23120Y-39350D03*
G54D25*
X24120Y-37350D03*
X32120Y-41350D03*
X28120Y-41350D03*
G54D26*
X30120Y-39350D03*
G54D27*
X31120Y-39350D03*
G54D25*
X32120Y-37350D03*
X40120Y-41350D03*
X36120Y-41350D03*
G54D26*
X38120Y-39350D03*
G54D27*
X39120Y-39350D03*
G54D25*
X40120Y-37350D03*
X48120Y-41350D03*
X44120Y-41350D03*
G54D26*
X46120Y-39350D03*
G54D27*
X47120Y-39350D03*
G54D25*
X48120Y-37350D03*
X56120Y-41350D03*
X52120Y-41350D03*
G54D26*
X54120Y-39350D03*
G54D27*
X55120Y-39350D03*
G54D25*
X56120Y-37350D03*
X64120Y-41350D03*
X60120Y-41350D03*
G54D26*
X62120Y-39350D03*
G54D27*
X63120Y-39350D03*
G54D25*
X64120Y-37350D03*
X72120Y-41350D03*
X68120Y-41350D03*
G54D26*
X70120Y-39350D03*
G54D27*
X71120Y-39350D03*
G54D25*
X72120Y-37350D03*
X80120Y-41350D03*
X76120Y-41350D03*
G54D26*
X78120Y-39350D03*
G54D27*
X79120Y-39350D03*
G54D25*
X80120Y-37350D03*
X88120Y-41350D03*
X84120Y-41350D03*
G54D26*
X86120Y-39350D03*
G54D27*
X87120Y-39350D03*
G54D25*
X88120Y-37350D03*
X96120Y-41350D03*
X92120Y-41350D03*
G54D26*
X94120Y-39350D03*
G54D27*
X95120Y-39350D03*
G54D25*
X96120Y-37350D03*
G54D28*
X79720Y-28850D03*
G54D29*
X79720Y-27850D03*
X80720Y-28850D03*
X80720Y-27850D03*
X81720Y-28850D03*
X81720Y-27850D03*
X82720Y-28850D03*
X82720Y-27850D03*
X83720Y-28850D03*
X83720Y-27850D03*
G54D28*
X36120Y-28850D03*
G54D29*
X36120Y-27850D03*
X37120Y-28850D03*
X37120Y-27850D03*
X38120Y-28850D03*
X38120Y-27850D03*
X39120Y-28850D03*
X39120Y-27850D03*
X40120Y-28850D03*
X40120Y-27850D03*
G54D30*
X90120Y-42850D03*
X90120Y-24850D03*
X26120Y-42850D03*
X26120Y-24850D03*
G54D31*
X53920Y-28850D03*
G54D29*
X53920Y-27850D03*
X54920Y-28850D03*
X54920Y-27850D03*
X55920Y-28850D03*
X55920Y-27850D03*
X56920Y-28850D03*
X56920Y-27850D03*
X57920Y-28850D03*
X57920Y-27850D03*
X58920Y-28850D03*
X58920Y-27850D03*
X59920Y-28850D03*
X59920Y-27850D03*
X60920Y-28850D03*
X60920Y-27850D03*
X61920Y-28850D03*
X61920Y-27850D03*
X62920Y-28850D03*
X62920Y-27850D03*
X63920Y-28850D03*
X63920Y-27850D03*
X64920Y-28850D03*
X64920Y-27850D03*
X65920Y-28850D03*
X65920Y-27850D03*
G54D31*
X19620Y-26350D03*
G54D29*
X20620Y-26350D03*
X21620Y-26350D03*
X22620Y-26350D03*
M02*
