M48
;DRILL file {PCBnew (20090216-final)} date Mon 24 Jan 2011 02:34:40 PM PST
;FORMAT={2:4/ absolute / inch / suppress trailing zeros}
R,T
VER,1
FMAT,2
INCH,LZ
TCST,OFF
ICI,OFF
ATC,ON
T1C0.015
T2C0.035
T3C0.039
T4C0.079
T5C0.120
%
M47
G05
M72
T1
X02022Y-02885
X03742Y-02615
X03782Y-02565
X04372Y-03007
X05412Y-03221
X05462Y-02565
X05562Y-03165
X05572Y-02525
X05642Y-02595
X05672Y-03135
X05742Y-0264
X05754Y-03091
T2
X02212Y-03935
X02312Y-03935
X03012Y-03935
X03112Y-03935
X03812Y-03935
X03912Y-03935
X04612Y-03935
X04712Y-03935
X05412Y-03935
X05512Y-03935
X06212Y-03935
X06312Y-03935
X07012Y-03935
X07112Y-03935
X07812Y-03935
X07912Y-03935
X08612Y-03935
X08712Y-03935
X09412Y-03935
X09512Y-03935
T3
X01962Y-02635
X02062Y-02635
X02162Y-02635
X02262Y-02635
X03612Y-02785
X03612Y-02885
X03712Y-02785
X03712Y-02885
X03812Y-02785
X03812Y-02885
X03912Y-02785
X03912Y-02885
X04012Y-02785
X04012Y-02885
X05392Y-02785
X05392Y-02885
X05492Y-02785
X05492Y-02885
X05592Y-02785
X05592Y-02885
X05692Y-02785
X05692Y-02885
X05792Y-02785
X05792Y-02885
X05892Y-02785
X05892Y-02885
X05992Y-02785
X05992Y-02885
X06092Y-02785
X06092Y-02885
X06192Y-02785
X06192Y-02885
X06292Y-02785
X06292Y-02885
X06392Y-02785
X06392Y-02885
X06492Y-02785
X06492Y-02885
X06592Y-02785
X06592Y-02885
X07972Y-02785
X07972Y-02885
X08072Y-02785
X08072Y-02885
X08172Y-02785
X08172Y-02885
X08272Y-02785
X08272Y-02885
X08372Y-02785
X08372Y-02885
T4
X02012Y-04135
X02412Y-03735
X02412Y-04135
X02812Y-04135
X03212Y-03735
X03212Y-04135
X03612Y-04135
X04012Y-03735
X04012Y-04135
X04412Y-04135
X04812Y-03735
X04812Y-04135
X05212Y-04135
X05612Y-03735
X05612Y-04135
X06012Y-04135
X06412Y-03735
X06412Y-04135
X06812Y-04135
X07212Y-03735
X07212Y-04135
X07612Y-04135
X08012Y-03735
X08012Y-04135
X08412Y-04135
X08812Y-03735
X08812Y-04135
X09212Y-04135
X09612Y-03735
X09612Y-04135
T5
X02612Y-02485
X02612Y-04285
X09012Y-02485
X09012Y-04285
T0
M30
