G04 (created by PCBnew (20090216-final)) date Thu 03 Feb 2011 12:56:54 PM PST*
G01*
G70*
G90*
%MOIN*%
G04 Gerber Fmt 3.4, Leading zero omitted, Abs format*
%FSLAX34Y34*%
G04 APERTURE LIST*
%ADD10C,0.015000*%
%ADD11C,0.120000*%
%ADD12R,0.065000X0.065000*%
%ADD13C,0.065000*%
%ADD14R,0.070000X0.070000*%
%ADD15C,0.070000*%
%ADD16C,0.130000*%
%ADD17R,0.070000X0.060000*%
%ADD18C,0.025000*%
%ADD19C,0.045000*%
%ADD20C,0.008000*%
%ADD21C,0.020000*%
%ADD22C,0.010000*%
%ADD23C,0.005000*%
G04 APERTURE END LIST*
G54D10*
X98120Y-43850D02*
X98120Y-23850D01*
X18120Y-43850D02*
X98120Y-43850D01*
X18120Y-23850D02*
X98120Y-23850D01*
X18120Y-43850D02*
X18120Y-23850D01*
G54D23*
X79370Y-29200D02*
X79370Y-28500D01*
X79370Y-28500D02*
X80070Y-28500D01*
X80070Y-28500D02*
X80070Y-29200D01*
X80070Y-29200D02*
X79370Y-29200D01*
X80070Y-27850D02*
X80063Y-27917D01*
X80063Y-27917D02*
X80043Y-27983D01*
X80043Y-27983D02*
X80011Y-28043D01*
X80011Y-28043D02*
X79968Y-28096D01*
X79968Y-28096D02*
X79915Y-28140D01*
X79915Y-28140D02*
X79855Y-28172D01*
X79855Y-28172D02*
X79790Y-28192D01*
X79790Y-28192D02*
X79722Y-28199D01*
X79722Y-28199D02*
X79655Y-28193D01*
X79655Y-28193D02*
X79589Y-28174D01*
X79589Y-28174D02*
X79529Y-28142D01*
X79529Y-28142D02*
X79476Y-28100D01*
X79476Y-28100D02*
X79432Y-28047D01*
X79432Y-28047D02*
X79399Y-27987D01*
X79399Y-27987D02*
X79378Y-27922D01*
X79378Y-27922D02*
X79371Y-27854D01*
X79371Y-27854D02*
X79376Y-27787D01*
X79376Y-27787D02*
X79395Y-27722D01*
X79395Y-27722D02*
X79426Y-27661D01*
X79426Y-27661D02*
X79469Y-27607D01*
X79469Y-27607D02*
X79521Y-27563D01*
X79521Y-27563D02*
X79580Y-27530D01*
X79580Y-27530D02*
X79645Y-27509D01*
X79645Y-27509D02*
X79713Y-27501D01*
X79713Y-27501D02*
X79780Y-27506D01*
X79780Y-27506D02*
X79846Y-27524D01*
X79846Y-27524D02*
X79907Y-27555D01*
X79907Y-27555D02*
X79961Y-27597D01*
X79961Y-27597D02*
X80006Y-27649D01*
X80006Y-27649D02*
X80039Y-27708D01*
X80039Y-27708D02*
X80061Y-27773D01*
X80061Y-27773D02*
X80069Y-27841D01*
X80069Y-27841D02*
X80070Y-27850D01*
X81070Y-28850D02*
X81063Y-28917D01*
X81063Y-28917D02*
X81043Y-28983D01*
X81043Y-28983D02*
X81011Y-29043D01*
X81011Y-29043D02*
X80968Y-29096D01*
X80968Y-29096D02*
X80915Y-29140D01*
X80915Y-29140D02*
X80855Y-29172D01*
X80855Y-29172D02*
X80790Y-29192D01*
X80790Y-29192D02*
X80722Y-29199D01*
X80722Y-29199D02*
X80655Y-29193D01*
X80655Y-29193D02*
X80589Y-29174D01*
X80589Y-29174D02*
X80529Y-29142D01*
X80529Y-29142D02*
X80476Y-29100D01*
X80476Y-29100D02*
X80432Y-29047D01*
X80432Y-29047D02*
X80399Y-28987D01*
X80399Y-28987D02*
X80378Y-28922D01*
X80378Y-28922D02*
X80371Y-28854D01*
X80371Y-28854D02*
X80376Y-28787D01*
X80376Y-28787D02*
X80395Y-28722D01*
X80395Y-28722D02*
X80426Y-28661D01*
X80426Y-28661D02*
X80469Y-28607D01*
X80469Y-28607D02*
X80521Y-28563D01*
X80521Y-28563D02*
X80580Y-28530D01*
X80580Y-28530D02*
X80645Y-28509D01*
X80645Y-28509D02*
X80713Y-28501D01*
X80713Y-28501D02*
X80780Y-28506D01*
X80780Y-28506D02*
X80846Y-28524D01*
X80846Y-28524D02*
X80907Y-28555D01*
X80907Y-28555D02*
X80961Y-28597D01*
X80961Y-28597D02*
X81006Y-28649D01*
X81006Y-28649D02*
X81039Y-28708D01*
X81039Y-28708D02*
X81061Y-28773D01*
X81061Y-28773D02*
X81069Y-28841D01*
X81069Y-28841D02*
X81070Y-28850D01*
X81070Y-27850D02*
X81063Y-27917D01*
X81063Y-27917D02*
X81043Y-27983D01*
X81043Y-27983D02*
X81011Y-28043D01*
X81011Y-28043D02*
X80968Y-28096D01*
X80968Y-28096D02*
X80915Y-28140D01*
X80915Y-28140D02*
X80855Y-28172D01*
X80855Y-28172D02*
X80790Y-28192D01*
X80790Y-28192D02*
X80722Y-28199D01*
X80722Y-28199D02*
X80655Y-28193D01*
X80655Y-28193D02*
X80589Y-28174D01*
X80589Y-28174D02*
X80529Y-28142D01*
X80529Y-28142D02*
X80476Y-28100D01*
X80476Y-28100D02*
X80432Y-28047D01*
X80432Y-28047D02*
X80399Y-27987D01*
X80399Y-27987D02*
X80378Y-27922D01*
X80378Y-27922D02*
X80371Y-27854D01*
X80371Y-27854D02*
X80376Y-27787D01*
X80376Y-27787D02*
X80395Y-27722D01*
X80395Y-27722D02*
X80426Y-27661D01*
X80426Y-27661D02*
X80469Y-27607D01*
X80469Y-27607D02*
X80521Y-27563D01*
X80521Y-27563D02*
X80580Y-27530D01*
X80580Y-27530D02*
X80645Y-27509D01*
X80645Y-27509D02*
X80713Y-27501D01*
X80713Y-27501D02*
X80780Y-27506D01*
X80780Y-27506D02*
X80846Y-27524D01*
X80846Y-27524D02*
X80907Y-27555D01*
X80907Y-27555D02*
X80961Y-27597D01*
X80961Y-27597D02*
X81006Y-27649D01*
X81006Y-27649D02*
X81039Y-27708D01*
X81039Y-27708D02*
X81061Y-27773D01*
X81061Y-27773D02*
X81069Y-27841D01*
X81069Y-27841D02*
X81070Y-27850D01*
X82070Y-28850D02*
X82063Y-28917D01*
X82063Y-28917D02*
X82043Y-28983D01*
X82043Y-28983D02*
X82011Y-29043D01*
X82011Y-29043D02*
X81968Y-29096D01*
X81968Y-29096D02*
X81915Y-29140D01*
X81915Y-29140D02*
X81855Y-29172D01*
X81855Y-29172D02*
X81790Y-29192D01*
X81790Y-29192D02*
X81722Y-29199D01*
X81722Y-29199D02*
X81655Y-29193D01*
X81655Y-29193D02*
X81589Y-29174D01*
X81589Y-29174D02*
X81529Y-29142D01*
X81529Y-29142D02*
X81476Y-29100D01*
X81476Y-29100D02*
X81432Y-29047D01*
X81432Y-29047D02*
X81399Y-28987D01*
X81399Y-28987D02*
X81378Y-28922D01*
X81378Y-28922D02*
X81371Y-28854D01*
X81371Y-28854D02*
X81376Y-28787D01*
X81376Y-28787D02*
X81395Y-28722D01*
X81395Y-28722D02*
X81426Y-28661D01*
X81426Y-28661D02*
X81469Y-28607D01*
X81469Y-28607D02*
X81521Y-28563D01*
X81521Y-28563D02*
X81580Y-28530D01*
X81580Y-28530D02*
X81645Y-28509D01*
X81645Y-28509D02*
X81713Y-28501D01*
X81713Y-28501D02*
X81780Y-28506D01*
X81780Y-28506D02*
X81846Y-28524D01*
X81846Y-28524D02*
X81907Y-28555D01*
X81907Y-28555D02*
X81961Y-28597D01*
X81961Y-28597D02*
X82006Y-28649D01*
X82006Y-28649D02*
X82039Y-28708D01*
X82039Y-28708D02*
X82061Y-28773D01*
X82061Y-28773D02*
X82069Y-28841D01*
X82069Y-28841D02*
X82070Y-28850D01*
X82070Y-27850D02*
X82063Y-27917D01*
X82063Y-27917D02*
X82043Y-27983D01*
X82043Y-27983D02*
X82011Y-28043D01*
X82011Y-28043D02*
X81968Y-28096D01*
X81968Y-28096D02*
X81915Y-28140D01*
X81915Y-28140D02*
X81855Y-28172D01*
X81855Y-28172D02*
X81790Y-28192D01*
X81790Y-28192D02*
X81722Y-28199D01*
X81722Y-28199D02*
X81655Y-28193D01*
X81655Y-28193D02*
X81589Y-28174D01*
X81589Y-28174D02*
X81529Y-28142D01*
X81529Y-28142D02*
X81476Y-28100D01*
X81476Y-28100D02*
X81432Y-28047D01*
X81432Y-28047D02*
X81399Y-27987D01*
X81399Y-27987D02*
X81378Y-27922D01*
X81378Y-27922D02*
X81371Y-27854D01*
X81371Y-27854D02*
X81376Y-27787D01*
X81376Y-27787D02*
X81395Y-27722D01*
X81395Y-27722D02*
X81426Y-27661D01*
X81426Y-27661D02*
X81469Y-27607D01*
X81469Y-27607D02*
X81521Y-27563D01*
X81521Y-27563D02*
X81580Y-27530D01*
X81580Y-27530D02*
X81645Y-27509D01*
X81645Y-27509D02*
X81713Y-27501D01*
X81713Y-27501D02*
X81780Y-27506D01*
X81780Y-27506D02*
X81846Y-27524D01*
X81846Y-27524D02*
X81907Y-27555D01*
X81907Y-27555D02*
X81961Y-27597D01*
X81961Y-27597D02*
X82006Y-27649D01*
X82006Y-27649D02*
X82039Y-27708D01*
X82039Y-27708D02*
X82061Y-27773D01*
X82061Y-27773D02*
X82069Y-27841D01*
X82069Y-27841D02*
X82070Y-27850D01*
X83070Y-28850D02*
X83063Y-28917D01*
X83063Y-28917D02*
X83043Y-28983D01*
X83043Y-28983D02*
X83011Y-29043D01*
X83011Y-29043D02*
X82968Y-29096D01*
X82968Y-29096D02*
X82915Y-29140D01*
X82915Y-29140D02*
X82855Y-29172D01*
X82855Y-29172D02*
X82790Y-29192D01*
X82790Y-29192D02*
X82722Y-29199D01*
X82722Y-29199D02*
X82655Y-29193D01*
X82655Y-29193D02*
X82589Y-29174D01*
X82589Y-29174D02*
X82529Y-29142D01*
X82529Y-29142D02*
X82476Y-29100D01*
X82476Y-29100D02*
X82432Y-29047D01*
X82432Y-29047D02*
X82399Y-28987D01*
X82399Y-28987D02*
X82378Y-28922D01*
X82378Y-28922D02*
X82371Y-28854D01*
X82371Y-28854D02*
X82376Y-28787D01*
X82376Y-28787D02*
X82395Y-28722D01*
X82395Y-28722D02*
X82426Y-28661D01*
X82426Y-28661D02*
X82469Y-28607D01*
X82469Y-28607D02*
X82521Y-28563D01*
X82521Y-28563D02*
X82580Y-28530D01*
X82580Y-28530D02*
X82645Y-28509D01*
X82645Y-28509D02*
X82713Y-28501D01*
X82713Y-28501D02*
X82780Y-28506D01*
X82780Y-28506D02*
X82846Y-28524D01*
X82846Y-28524D02*
X82907Y-28555D01*
X82907Y-28555D02*
X82961Y-28597D01*
X82961Y-28597D02*
X83006Y-28649D01*
X83006Y-28649D02*
X83039Y-28708D01*
X83039Y-28708D02*
X83061Y-28773D01*
X83061Y-28773D02*
X83069Y-28841D01*
X83069Y-28841D02*
X83070Y-28850D01*
X83070Y-27850D02*
X83063Y-27917D01*
X83063Y-27917D02*
X83043Y-27983D01*
X83043Y-27983D02*
X83011Y-28043D01*
X83011Y-28043D02*
X82968Y-28096D01*
X82968Y-28096D02*
X82915Y-28140D01*
X82915Y-28140D02*
X82855Y-28172D01*
X82855Y-28172D02*
X82790Y-28192D01*
X82790Y-28192D02*
X82722Y-28199D01*
X82722Y-28199D02*
X82655Y-28193D01*
X82655Y-28193D02*
X82589Y-28174D01*
X82589Y-28174D02*
X82529Y-28142D01*
X82529Y-28142D02*
X82476Y-28100D01*
X82476Y-28100D02*
X82432Y-28047D01*
X82432Y-28047D02*
X82399Y-27987D01*
X82399Y-27987D02*
X82378Y-27922D01*
X82378Y-27922D02*
X82371Y-27854D01*
X82371Y-27854D02*
X82376Y-27787D01*
X82376Y-27787D02*
X82395Y-27722D01*
X82395Y-27722D02*
X82426Y-27661D01*
X82426Y-27661D02*
X82469Y-27607D01*
X82469Y-27607D02*
X82521Y-27563D01*
X82521Y-27563D02*
X82580Y-27530D01*
X82580Y-27530D02*
X82645Y-27509D01*
X82645Y-27509D02*
X82713Y-27501D01*
X82713Y-27501D02*
X82780Y-27506D01*
X82780Y-27506D02*
X82846Y-27524D01*
X82846Y-27524D02*
X82907Y-27555D01*
X82907Y-27555D02*
X82961Y-27597D01*
X82961Y-27597D02*
X83006Y-27649D01*
X83006Y-27649D02*
X83039Y-27708D01*
X83039Y-27708D02*
X83061Y-27773D01*
X83061Y-27773D02*
X83069Y-27841D01*
X83069Y-27841D02*
X83070Y-27850D01*
X84070Y-28850D02*
X84063Y-28917D01*
X84063Y-28917D02*
X84043Y-28983D01*
X84043Y-28983D02*
X84011Y-29043D01*
X84011Y-29043D02*
X83968Y-29096D01*
X83968Y-29096D02*
X83915Y-29140D01*
X83915Y-29140D02*
X83855Y-29172D01*
X83855Y-29172D02*
X83790Y-29192D01*
X83790Y-29192D02*
X83722Y-29199D01*
X83722Y-29199D02*
X83655Y-29193D01*
X83655Y-29193D02*
X83589Y-29174D01*
X83589Y-29174D02*
X83529Y-29142D01*
X83529Y-29142D02*
X83476Y-29100D01*
X83476Y-29100D02*
X83432Y-29047D01*
X83432Y-29047D02*
X83399Y-28987D01*
X83399Y-28987D02*
X83378Y-28922D01*
X83378Y-28922D02*
X83371Y-28854D01*
X83371Y-28854D02*
X83376Y-28787D01*
X83376Y-28787D02*
X83395Y-28722D01*
X83395Y-28722D02*
X83426Y-28661D01*
X83426Y-28661D02*
X83469Y-28607D01*
X83469Y-28607D02*
X83521Y-28563D01*
X83521Y-28563D02*
X83580Y-28530D01*
X83580Y-28530D02*
X83645Y-28509D01*
X83645Y-28509D02*
X83713Y-28501D01*
X83713Y-28501D02*
X83780Y-28506D01*
X83780Y-28506D02*
X83846Y-28524D01*
X83846Y-28524D02*
X83907Y-28555D01*
X83907Y-28555D02*
X83961Y-28597D01*
X83961Y-28597D02*
X84006Y-28649D01*
X84006Y-28649D02*
X84039Y-28708D01*
X84039Y-28708D02*
X84061Y-28773D01*
X84061Y-28773D02*
X84069Y-28841D01*
X84069Y-28841D02*
X84070Y-28850D01*
X84070Y-27850D02*
X84063Y-27917D01*
X84063Y-27917D02*
X84043Y-27983D01*
X84043Y-27983D02*
X84011Y-28043D01*
X84011Y-28043D02*
X83968Y-28096D01*
X83968Y-28096D02*
X83915Y-28140D01*
X83915Y-28140D02*
X83855Y-28172D01*
X83855Y-28172D02*
X83790Y-28192D01*
X83790Y-28192D02*
X83722Y-28199D01*
X83722Y-28199D02*
X83655Y-28193D01*
X83655Y-28193D02*
X83589Y-28174D01*
X83589Y-28174D02*
X83529Y-28142D01*
X83529Y-28142D02*
X83476Y-28100D01*
X83476Y-28100D02*
X83432Y-28047D01*
X83432Y-28047D02*
X83399Y-27987D01*
X83399Y-27987D02*
X83378Y-27922D01*
X83378Y-27922D02*
X83371Y-27854D01*
X83371Y-27854D02*
X83376Y-27787D01*
X83376Y-27787D02*
X83395Y-27722D01*
X83395Y-27722D02*
X83426Y-27661D01*
X83426Y-27661D02*
X83469Y-27607D01*
X83469Y-27607D02*
X83521Y-27563D01*
X83521Y-27563D02*
X83580Y-27530D01*
X83580Y-27530D02*
X83645Y-27509D01*
X83645Y-27509D02*
X83713Y-27501D01*
X83713Y-27501D02*
X83780Y-27506D01*
X83780Y-27506D02*
X83846Y-27524D01*
X83846Y-27524D02*
X83907Y-27555D01*
X83907Y-27555D02*
X83961Y-27597D01*
X83961Y-27597D02*
X84006Y-27649D01*
X84006Y-27649D02*
X84039Y-27708D01*
X84039Y-27708D02*
X84061Y-27773D01*
X84061Y-27773D02*
X84069Y-27841D01*
X84069Y-27841D02*
X84070Y-27850D01*
X35770Y-29200D02*
X35770Y-28500D01*
X35770Y-28500D02*
X36470Y-28500D01*
X36470Y-28500D02*
X36470Y-29200D01*
X36470Y-29200D02*
X35770Y-29200D01*
X36470Y-27850D02*
X36463Y-27917D01*
X36463Y-27917D02*
X36443Y-27983D01*
X36443Y-27983D02*
X36411Y-28043D01*
X36411Y-28043D02*
X36368Y-28096D01*
X36368Y-28096D02*
X36315Y-28140D01*
X36315Y-28140D02*
X36255Y-28172D01*
X36255Y-28172D02*
X36190Y-28192D01*
X36190Y-28192D02*
X36122Y-28199D01*
X36122Y-28199D02*
X36055Y-28193D01*
X36055Y-28193D02*
X35989Y-28174D01*
X35989Y-28174D02*
X35929Y-28142D01*
X35929Y-28142D02*
X35876Y-28100D01*
X35876Y-28100D02*
X35832Y-28047D01*
X35832Y-28047D02*
X35799Y-27987D01*
X35799Y-27987D02*
X35778Y-27922D01*
X35778Y-27922D02*
X35771Y-27854D01*
X35771Y-27854D02*
X35776Y-27787D01*
X35776Y-27787D02*
X35795Y-27722D01*
X35795Y-27722D02*
X35826Y-27661D01*
X35826Y-27661D02*
X35869Y-27607D01*
X35869Y-27607D02*
X35921Y-27563D01*
X35921Y-27563D02*
X35980Y-27530D01*
X35980Y-27530D02*
X36045Y-27509D01*
X36045Y-27509D02*
X36113Y-27501D01*
X36113Y-27501D02*
X36180Y-27506D01*
X36180Y-27506D02*
X36246Y-27524D01*
X36246Y-27524D02*
X36307Y-27555D01*
X36307Y-27555D02*
X36361Y-27597D01*
X36361Y-27597D02*
X36406Y-27649D01*
X36406Y-27649D02*
X36439Y-27708D01*
X36439Y-27708D02*
X36461Y-27773D01*
X36461Y-27773D02*
X36469Y-27841D01*
X36469Y-27841D02*
X36470Y-27850D01*
X37470Y-28850D02*
X37463Y-28917D01*
X37463Y-28917D02*
X37443Y-28983D01*
X37443Y-28983D02*
X37411Y-29043D01*
X37411Y-29043D02*
X37368Y-29096D01*
X37368Y-29096D02*
X37315Y-29140D01*
X37315Y-29140D02*
X37255Y-29172D01*
X37255Y-29172D02*
X37190Y-29192D01*
X37190Y-29192D02*
X37122Y-29199D01*
X37122Y-29199D02*
X37055Y-29193D01*
X37055Y-29193D02*
X36989Y-29174D01*
X36989Y-29174D02*
X36929Y-29142D01*
X36929Y-29142D02*
X36876Y-29100D01*
X36876Y-29100D02*
X36832Y-29047D01*
X36832Y-29047D02*
X36799Y-28987D01*
X36799Y-28987D02*
X36778Y-28922D01*
X36778Y-28922D02*
X36771Y-28854D01*
X36771Y-28854D02*
X36776Y-28787D01*
X36776Y-28787D02*
X36795Y-28722D01*
X36795Y-28722D02*
X36826Y-28661D01*
X36826Y-28661D02*
X36869Y-28607D01*
X36869Y-28607D02*
X36921Y-28563D01*
X36921Y-28563D02*
X36980Y-28530D01*
X36980Y-28530D02*
X37045Y-28509D01*
X37045Y-28509D02*
X37113Y-28501D01*
X37113Y-28501D02*
X37180Y-28506D01*
X37180Y-28506D02*
X37246Y-28524D01*
X37246Y-28524D02*
X37307Y-28555D01*
X37307Y-28555D02*
X37361Y-28597D01*
X37361Y-28597D02*
X37406Y-28649D01*
X37406Y-28649D02*
X37439Y-28708D01*
X37439Y-28708D02*
X37461Y-28773D01*
X37461Y-28773D02*
X37469Y-28841D01*
X37469Y-28841D02*
X37470Y-28850D01*
X37470Y-27850D02*
X37463Y-27917D01*
X37463Y-27917D02*
X37443Y-27983D01*
X37443Y-27983D02*
X37411Y-28043D01*
X37411Y-28043D02*
X37368Y-28096D01*
X37368Y-28096D02*
X37315Y-28140D01*
X37315Y-28140D02*
X37255Y-28172D01*
X37255Y-28172D02*
X37190Y-28192D01*
X37190Y-28192D02*
X37122Y-28199D01*
X37122Y-28199D02*
X37055Y-28193D01*
X37055Y-28193D02*
X36989Y-28174D01*
X36989Y-28174D02*
X36929Y-28142D01*
X36929Y-28142D02*
X36876Y-28100D01*
X36876Y-28100D02*
X36832Y-28047D01*
X36832Y-28047D02*
X36799Y-27987D01*
X36799Y-27987D02*
X36778Y-27922D01*
X36778Y-27922D02*
X36771Y-27854D01*
X36771Y-27854D02*
X36776Y-27787D01*
X36776Y-27787D02*
X36795Y-27722D01*
X36795Y-27722D02*
X36826Y-27661D01*
X36826Y-27661D02*
X36869Y-27607D01*
X36869Y-27607D02*
X36921Y-27563D01*
X36921Y-27563D02*
X36980Y-27530D01*
X36980Y-27530D02*
X37045Y-27509D01*
X37045Y-27509D02*
X37113Y-27501D01*
X37113Y-27501D02*
X37180Y-27506D01*
X37180Y-27506D02*
X37246Y-27524D01*
X37246Y-27524D02*
X37307Y-27555D01*
X37307Y-27555D02*
X37361Y-27597D01*
X37361Y-27597D02*
X37406Y-27649D01*
X37406Y-27649D02*
X37439Y-27708D01*
X37439Y-27708D02*
X37461Y-27773D01*
X37461Y-27773D02*
X37469Y-27841D01*
X37469Y-27841D02*
X37470Y-27850D01*
X38470Y-28850D02*
X38463Y-28917D01*
X38463Y-28917D02*
X38443Y-28983D01*
X38443Y-28983D02*
X38411Y-29043D01*
X38411Y-29043D02*
X38368Y-29096D01*
X38368Y-29096D02*
X38315Y-29140D01*
X38315Y-29140D02*
X38255Y-29172D01*
X38255Y-29172D02*
X38190Y-29192D01*
X38190Y-29192D02*
X38122Y-29199D01*
X38122Y-29199D02*
X38055Y-29193D01*
X38055Y-29193D02*
X37989Y-29174D01*
X37989Y-29174D02*
X37929Y-29142D01*
X37929Y-29142D02*
X37876Y-29100D01*
X37876Y-29100D02*
X37832Y-29047D01*
X37832Y-29047D02*
X37799Y-28987D01*
X37799Y-28987D02*
X37778Y-28922D01*
X37778Y-28922D02*
X37771Y-28854D01*
X37771Y-28854D02*
X37776Y-28787D01*
X37776Y-28787D02*
X37795Y-28722D01*
X37795Y-28722D02*
X37826Y-28661D01*
X37826Y-28661D02*
X37869Y-28607D01*
X37869Y-28607D02*
X37921Y-28563D01*
X37921Y-28563D02*
X37980Y-28530D01*
X37980Y-28530D02*
X38045Y-28509D01*
X38045Y-28509D02*
X38113Y-28501D01*
X38113Y-28501D02*
X38180Y-28506D01*
X38180Y-28506D02*
X38246Y-28524D01*
X38246Y-28524D02*
X38307Y-28555D01*
X38307Y-28555D02*
X38361Y-28597D01*
X38361Y-28597D02*
X38406Y-28649D01*
X38406Y-28649D02*
X38439Y-28708D01*
X38439Y-28708D02*
X38461Y-28773D01*
X38461Y-28773D02*
X38469Y-28841D01*
X38469Y-28841D02*
X38470Y-28850D01*
X38470Y-27850D02*
X38463Y-27917D01*
X38463Y-27917D02*
X38443Y-27983D01*
X38443Y-27983D02*
X38411Y-28043D01*
X38411Y-28043D02*
X38368Y-28096D01*
X38368Y-28096D02*
X38315Y-28140D01*
X38315Y-28140D02*
X38255Y-28172D01*
X38255Y-28172D02*
X38190Y-28192D01*
X38190Y-28192D02*
X38122Y-28199D01*
X38122Y-28199D02*
X38055Y-28193D01*
X38055Y-28193D02*
X37989Y-28174D01*
X37989Y-28174D02*
X37929Y-28142D01*
X37929Y-28142D02*
X37876Y-28100D01*
X37876Y-28100D02*
X37832Y-28047D01*
X37832Y-28047D02*
X37799Y-27987D01*
X37799Y-27987D02*
X37778Y-27922D01*
X37778Y-27922D02*
X37771Y-27854D01*
X37771Y-27854D02*
X37776Y-27787D01*
X37776Y-27787D02*
X37795Y-27722D01*
X37795Y-27722D02*
X37826Y-27661D01*
X37826Y-27661D02*
X37869Y-27607D01*
X37869Y-27607D02*
X37921Y-27563D01*
X37921Y-27563D02*
X37980Y-27530D01*
X37980Y-27530D02*
X38045Y-27509D01*
X38045Y-27509D02*
X38113Y-27501D01*
X38113Y-27501D02*
X38180Y-27506D01*
X38180Y-27506D02*
X38246Y-27524D01*
X38246Y-27524D02*
X38307Y-27555D01*
X38307Y-27555D02*
X38361Y-27597D01*
X38361Y-27597D02*
X38406Y-27649D01*
X38406Y-27649D02*
X38439Y-27708D01*
X38439Y-27708D02*
X38461Y-27773D01*
X38461Y-27773D02*
X38469Y-27841D01*
X38469Y-27841D02*
X38470Y-27850D01*
X39470Y-28850D02*
X39463Y-28917D01*
X39463Y-28917D02*
X39443Y-28983D01*
X39443Y-28983D02*
X39411Y-29043D01*
X39411Y-29043D02*
X39368Y-29096D01*
X39368Y-29096D02*
X39315Y-29140D01*
X39315Y-29140D02*
X39255Y-29172D01*
X39255Y-29172D02*
X39190Y-29192D01*
X39190Y-29192D02*
X39122Y-29199D01*
X39122Y-29199D02*
X39055Y-29193D01*
X39055Y-29193D02*
X38989Y-29174D01*
X38989Y-29174D02*
X38929Y-29142D01*
X38929Y-29142D02*
X38876Y-29100D01*
X38876Y-29100D02*
X38832Y-29047D01*
X38832Y-29047D02*
X38799Y-28987D01*
X38799Y-28987D02*
X38778Y-28922D01*
X38778Y-28922D02*
X38771Y-28854D01*
X38771Y-28854D02*
X38776Y-28787D01*
X38776Y-28787D02*
X38795Y-28722D01*
X38795Y-28722D02*
X38826Y-28661D01*
X38826Y-28661D02*
X38869Y-28607D01*
X38869Y-28607D02*
X38921Y-28563D01*
X38921Y-28563D02*
X38980Y-28530D01*
X38980Y-28530D02*
X39045Y-28509D01*
X39045Y-28509D02*
X39113Y-28501D01*
X39113Y-28501D02*
X39180Y-28506D01*
X39180Y-28506D02*
X39246Y-28524D01*
X39246Y-28524D02*
X39307Y-28555D01*
X39307Y-28555D02*
X39361Y-28597D01*
X39361Y-28597D02*
X39406Y-28649D01*
X39406Y-28649D02*
X39439Y-28708D01*
X39439Y-28708D02*
X39461Y-28773D01*
X39461Y-28773D02*
X39469Y-28841D01*
X39469Y-28841D02*
X39470Y-28850D01*
X39470Y-27850D02*
X39463Y-27917D01*
X39463Y-27917D02*
X39443Y-27983D01*
X39443Y-27983D02*
X39411Y-28043D01*
X39411Y-28043D02*
X39368Y-28096D01*
X39368Y-28096D02*
X39315Y-28140D01*
X39315Y-28140D02*
X39255Y-28172D01*
X39255Y-28172D02*
X39190Y-28192D01*
X39190Y-28192D02*
X39122Y-28199D01*
X39122Y-28199D02*
X39055Y-28193D01*
X39055Y-28193D02*
X38989Y-28174D01*
X38989Y-28174D02*
X38929Y-28142D01*
X38929Y-28142D02*
X38876Y-28100D01*
X38876Y-28100D02*
X38832Y-28047D01*
X38832Y-28047D02*
X38799Y-27987D01*
X38799Y-27987D02*
X38778Y-27922D01*
X38778Y-27922D02*
X38771Y-27854D01*
X38771Y-27854D02*
X38776Y-27787D01*
X38776Y-27787D02*
X38795Y-27722D01*
X38795Y-27722D02*
X38826Y-27661D01*
X38826Y-27661D02*
X38869Y-27607D01*
X38869Y-27607D02*
X38921Y-27563D01*
X38921Y-27563D02*
X38980Y-27530D01*
X38980Y-27530D02*
X39045Y-27509D01*
X39045Y-27509D02*
X39113Y-27501D01*
X39113Y-27501D02*
X39180Y-27506D01*
X39180Y-27506D02*
X39246Y-27524D01*
X39246Y-27524D02*
X39307Y-27555D01*
X39307Y-27555D02*
X39361Y-27597D01*
X39361Y-27597D02*
X39406Y-27649D01*
X39406Y-27649D02*
X39439Y-27708D01*
X39439Y-27708D02*
X39461Y-27773D01*
X39461Y-27773D02*
X39469Y-27841D01*
X39469Y-27841D02*
X39470Y-27850D01*
X40470Y-28850D02*
X40463Y-28917D01*
X40463Y-28917D02*
X40443Y-28983D01*
X40443Y-28983D02*
X40411Y-29043D01*
X40411Y-29043D02*
X40368Y-29096D01*
X40368Y-29096D02*
X40315Y-29140D01*
X40315Y-29140D02*
X40255Y-29172D01*
X40255Y-29172D02*
X40190Y-29192D01*
X40190Y-29192D02*
X40122Y-29199D01*
X40122Y-29199D02*
X40055Y-29193D01*
X40055Y-29193D02*
X39989Y-29174D01*
X39989Y-29174D02*
X39929Y-29142D01*
X39929Y-29142D02*
X39876Y-29100D01*
X39876Y-29100D02*
X39832Y-29047D01*
X39832Y-29047D02*
X39799Y-28987D01*
X39799Y-28987D02*
X39778Y-28922D01*
X39778Y-28922D02*
X39771Y-28854D01*
X39771Y-28854D02*
X39776Y-28787D01*
X39776Y-28787D02*
X39795Y-28722D01*
X39795Y-28722D02*
X39826Y-28661D01*
X39826Y-28661D02*
X39869Y-28607D01*
X39869Y-28607D02*
X39921Y-28563D01*
X39921Y-28563D02*
X39980Y-28530D01*
X39980Y-28530D02*
X40045Y-28509D01*
X40045Y-28509D02*
X40113Y-28501D01*
X40113Y-28501D02*
X40180Y-28506D01*
X40180Y-28506D02*
X40246Y-28524D01*
X40246Y-28524D02*
X40307Y-28555D01*
X40307Y-28555D02*
X40361Y-28597D01*
X40361Y-28597D02*
X40406Y-28649D01*
X40406Y-28649D02*
X40439Y-28708D01*
X40439Y-28708D02*
X40461Y-28773D01*
X40461Y-28773D02*
X40469Y-28841D01*
X40469Y-28841D02*
X40470Y-28850D01*
X40470Y-27850D02*
X40463Y-27917D01*
X40463Y-27917D02*
X40443Y-27983D01*
X40443Y-27983D02*
X40411Y-28043D01*
X40411Y-28043D02*
X40368Y-28096D01*
X40368Y-28096D02*
X40315Y-28140D01*
X40315Y-28140D02*
X40255Y-28172D01*
X40255Y-28172D02*
X40190Y-28192D01*
X40190Y-28192D02*
X40122Y-28199D01*
X40122Y-28199D02*
X40055Y-28193D01*
X40055Y-28193D02*
X39989Y-28174D01*
X39989Y-28174D02*
X39929Y-28142D01*
X39929Y-28142D02*
X39876Y-28100D01*
X39876Y-28100D02*
X39832Y-28047D01*
X39832Y-28047D02*
X39799Y-27987D01*
X39799Y-27987D02*
X39778Y-27922D01*
X39778Y-27922D02*
X39771Y-27854D01*
X39771Y-27854D02*
X39776Y-27787D01*
X39776Y-27787D02*
X39795Y-27722D01*
X39795Y-27722D02*
X39826Y-27661D01*
X39826Y-27661D02*
X39869Y-27607D01*
X39869Y-27607D02*
X39921Y-27563D01*
X39921Y-27563D02*
X39980Y-27530D01*
X39980Y-27530D02*
X40045Y-27509D01*
X40045Y-27509D02*
X40113Y-27501D01*
X40113Y-27501D02*
X40180Y-27506D01*
X40180Y-27506D02*
X40246Y-27524D01*
X40246Y-27524D02*
X40307Y-27555D01*
X40307Y-27555D02*
X40361Y-27597D01*
X40361Y-27597D02*
X40406Y-27649D01*
X40406Y-27649D02*
X40439Y-27708D01*
X40439Y-27708D02*
X40461Y-27773D01*
X40461Y-27773D02*
X40469Y-27841D01*
X40469Y-27841D02*
X40470Y-27850D01*
X90770Y-42850D02*
X90757Y-42976D01*
X90757Y-42976D02*
X90720Y-43097D01*
X90720Y-43097D02*
X90661Y-43209D01*
X90661Y-43209D02*
X90581Y-43308D01*
X90581Y-43308D02*
X90483Y-43388D01*
X90483Y-43388D02*
X90371Y-43449D01*
X90371Y-43449D02*
X90250Y-43486D01*
X90250Y-43486D02*
X90124Y-43499D01*
X90124Y-43499D02*
X89999Y-43488D01*
X89999Y-43488D02*
X89877Y-43452D01*
X89877Y-43452D02*
X89765Y-43393D01*
X89765Y-43393D02*
X89666Y-43314D01*
X89666Y-43314D02*
X89584Y-43217D01*
X89584Y-43217D02*
X89523Y-43106D01*
X89523Y-43106D02*
X89485Y-42985D01*
X89485Y-42985D02*
X89471Y-42859D01*
X89471Y-42859D02*
X89481Y-42733D01*
X89481Y-42733D02*
X89516Y-42611D01*
X89516Y-42611D02*
X89574Y-42498D01*
X89574Y-42498D02*
X89653Y-42399D01*
X89653Y-42399D02*
X89750Y-42317D01*
X89750Y-42317D02*
X89860Y-42255D01*
X89860Y-42255D02*
X89981Y-42216D01*
X89981Y-42216D02*
X90107Y-42201D01*
X90107Y-42201D02*
X90232Y-42210D01*
X90232Y-42210D02*
X90355Y-42244D01*
X90355Y-42244D02*
X90468Y-42302D01*
X90468Y-42302D02*
X90568Y-42380D01*
X90568Y-42380D02*
X90651Y-42476D01*
X90651Y-42476D02*
X90713Y-42586D01*
X90713Y-42586D02*
X90753Y-42706D01*
X90753Y-42706D02*
X90769Y-42832D01*
X90769Y-42832D02*
X90770Y-42850D01*
X90770Y-24850D02*
X90757Y-24976D01*
X90757Y-24976D02*
X90720Y-25097D01*
X90720Y-25097D02*
X90661Y-25209D01*
X90661Y-25209D02*
X90581Y-25308D01*
X90581Y-25308D02*
X90483Y-25388D01*
X90483Y-25388D02*
X90371Y-25449D01*
X90371Y-25449D02*
X90250Y-25486D01*
X90250Y-25486D02*
X90124Y-25499D01*
X90124Y-25499D02*
X89999Y-25488D01*
X89999Y-25488D02*
X89877Y-25452D01*
X89877Y-25452D02*
X89765Y-25393D01*
X89765Y-25393D02*
X89666Y-25314D01*
X89666Y-25314D02*
X89584Y-25217D01*
X89584Y-25217D02*
X89523Y-25106D01*
X89523Y-25106D02*
X89485Y-24985D01*
X89485Y-24985D02*
X89471Y-24859D01*
X89471Y-24859D02*
X89481Y-24733D01*
X89481Y-24733D02*
X89516Y-24611D01*
X89516Y-24611D02*
X89574Y-24498D01*
X89574Y-24498D02*
X89653Y-24399D01*
X89653Y-24399D02*
X89750Y-24317D01*
X89750Y-24317D02*
X89860Y-24255D01*
X89860Y-24255D02*
X89981Y-24216D01*
X89981Y-24216D02*
X90107Y-24201D01*
X90107Y-24201D02*
X90232Y-24210D01*
X90232Y-24210D02*
X90355Y-24244D01*
X90355Y-24244D02*
X90468Y-24302D01*
X90468Y-24302D02*
X90568Y-24380D01*
X90568Y-24380D02*
X90651Y-24476D01*
X90651Y-24476D02*
X90713Y-24586D01*
X90713Y-24586D02*
X90753Y-24706D01*
X90753Y-24706D02*
X90769Y-24832D01*
X90769Y-24832D02*
X90770Y-24850D01*
X26770Y-42850D02*
X26757Y-42976D01*
X26757Y-42976D02*
X26720Y-43097D01*
X26720Y-43097D02*
X26661Y-43209D01*
X26661Y-43209D02*
X26581Y-43308D01*
X26581Y-43308D02*
X26483Y-43388D01*
X26483Y-43388D02*
X26371Y-43449D01*
X26371Y-43449D02*
X26250Y-43486D01*
X26250Y-43486D02*
X26124Y-43499D01*
X26124Y-43499D02*
X25999Y-43488D01*
X25999Y-43488D02*
X25877Y-43452D01*
X25877Y-43452D02*
X25765Y-43393D01*
X25765Y-43393D02*
X25666Y-43314D01*
X25666Y-43314D02*
X25584Y-43217D01*
X25584Y-43217D02*
X25523Y-43106D01*
X25523Y-43106D02*
X25485Y-42985D01*
X25485Y-42985D02*
X25471Y-42859D01*
X25471Y-42859D02*
X25481Y-42733D01*
X25481Y-42733D02*
X25516Y-42611D01*
X25516Y-42611D02*
X25574Y-42498D01*
X25574Y-42498D02*
X25653Y-42399D01*
X25653Y-42399D02*
X25750Y-42317D01*
X25750Y-42317D02*
X25860Y-42255D01*
X25860Y-42255D02*
X25981Y-42216D01*
X25981Y-42216D02*
X26107Y-42201D01*
X26107Y-42201D02*
X26232Y-42210D01*
X26232Y-42210D02*
X26355Y-42244D01*
X26355Y-42244D02*
X26468Y-42302D01*
X26468Y-42302D02*
X26568Y-42380D01*
X26568Y-42380D02*
X26651Y-42476D01*
X26651Y-42476D02*
X26713Y-42586D01*
X26713Y-42586D02*
X26753Y-42706D01*
X26753Y-42706D02*
X26769Y-42832D01*
X26769Y-42832D02*
X26770Y-42850D01*
X26770Y-24850D02*
X26757Y-24976D01*
X26757Y-24976D02*
X26720Y-25097D01*
X26720Y-25097D02*
X26661Y-25209D01*
X26661Y-25209D02*
X26581Y-25308D01*
X26581Y-25308D02*
X26483Y-25388D01*
X26483Y-25388D02*
X26371Y-25449D01*
X26371Y-25449D02*
X26250Y-25486D01*
X26250Y-25486D02*
X26124Y-25499D01*
X26124Y-25499D02*
X25999Y-25488D01*
X25999Y-25488D02*
X25877Y-25452D01*
X25877Y-25452D02*
X25765Y-25393D01*
X25765Y-25393D02*
X25666Y-25314D01*
X25666Y-25314D02*
X25584Y-25217D01*
X25584Y-25217D02*
X25523Y-25106D01*
X25523Y-25106D02*
X25485Y-24985D01*
X25485Y-24985D02*
X25471Y-24859D01*
X25471Y-24859D02*
X25481Y-24733D01*
X25481Y-24733D02*
X25516Y-24611D01*
X25516Y-24611D02*
X25574Y-24498D01*
X25574Y-24498D02*
X25653Y-24399D01*
X25653Y-24399D02*
X25750Y-24317D01*
X25750Y-24317D02*
X25860Y-24255D01*
X25860Y-24255D02*
X25981Y-24216D01*
X25981Y-24216D02*
X26107Y-24201D01*
X26107Y-24201D02*
X26232Y-24210D01*
X26232Y-24210D02*
X26355Y-24244D01*
X26355Y-24244D02*
X26468Y-24302D01*
X26468Y-24302D02*
X26568Y-24380D01*
X26568Y-24380D02*
X26651Y-24476D01*
X26651Y-24476D02*
X26713Y-24586D01*
X26713Y-24586D02*
X26753Y-24706D01*
X26753Y-24706D02*
X26769Y-24832D01*
X26769Y-24832D02*
X26770Y-24850D01*
M02*
