G04 (created by PCBnew (20090216-final)) date Thu 03 Feb 2011 12:56:54 PM PST*
G01*
G70*
G90*
%MOIN*%
G04 Gerber Fmt 3.4, Leading zero omitted, Abs format*
%FSLAX34Y34*%
G04 APERTURE LIST*
%ADD10C,0.015000*%
%ADD11C,0.120000*%
%ADD12R,0.065000X0.065000*%
%ADD13C,0.065000*%
%ADD14R,0.070000X0.070000*%
%ADD15C,0.070000*%
%ADD16C,0.130000*%
%ADD17R,0.070000X0.060000*%
%ADD18C,0.025000*%
%ADD19C,0.045000*%
%ADD20C,0.008000*%
%ADD21C,0.020000*%
%ADD22C,0.010000*%
%ADD23C,0.005000*%
%ADD24C,0.012000*%
%ADD25C,0.015000*%
%ADD26C,0.140000*%
%ADD27R,0.085000X0.085000*%
%ADD28C,0.085000*%
%ADD29R,0.090000X0.090000*%
%ADD30C,0.090000*%
%ADD31C,0.150000*%
%ADD32R,0.090000X0.080000*%
G04 APERTURE END LIST*
G54D10*
X98120Y-43850D02*
X98120Y-23850D01*
X18120Y-43850D02*
X98120Y-43850D01*
X18120Y-23850D02*
X98120Y-23850D01*
X18120Y-43850D02*
X18120Y-23850D01*
G54D26*
X24120Y-41350D03*
X20120Y-41350D03*
G54D27*
X22120Y-39350D03*
G54D28*
X23120Y-39350D03*
G54D26*
X24120Y-37350D03*
X32120Y-41350D03*
X28120Y-41350D03*
G54D27*
X30120Y-39350D03*
G54D28*
X31120Y-39350D03*
G54D26*
X32120Y-37350D03*
X40120Y-41350D03*
X36120Y-41350D03*
G54D27*
X38120Y-39350D03*
G54D28*
X39120Y-39350D03*
G54D26*
X40120Y-37350D03*
X48120Y-41350D03*
X44120Y-41350D03*
G54D27*
X46120Y-39350D03*
G54D28*
X47120Y-39350D03*
G54D26*
X48120Y-37350D03*
X56120Y-41350D03*
X52120Y-41350D03*
G54D27*
X54120Y-39350D03*
G54D28*
X55120Y-39350D03*
G54D26*
X56120Y-37350D03*
X64120Y-41350D03*
X60120Y-41350D03*
G54D27*
X62120Y-39350D03*
G54D28*
X63120Y-39350D03*
G54D26*
X64120Y-37350D03*
X72120Y-41350D03*
X68120Y-41350D03*
G54D27*
X70120Y-39350D03*
G54D28*
X71120Y-39350D03*
G54D26*
X72120Y-37350D03*
X80120Y-41350D03*
X76120Y-41350D03*
G54D27*
X78120Y-39350D03*
G54D28*
X79120Y-39350D03*
G54D26*
X80120Y-37350D03*
X88120Y-41350D03*
X84120Y-41350D03*
G54D27*
X86120Y-39350D03*
G54D28*
X87120Y-39350D03*
G54D26*
X88120Y-37350D03*
X96120Y-41350D03*
X92120Y-41350D03*
G54D27*
X94120Y-39350D03*
G54D28*
X95120Y-39350D03*
G54D26*
X96120Y-37350D03*
G54D29*
X79720Y-28850D03*
G54D30*
X79720Y-27850D03*
X80720Y-28850D03*
X80720Y-27850D03*
X81720Y-28850D03*
X81720Y-27850D03*
X82720Y-28850D03*
X82720Y-27850D03*
X83720Y-28850D03*
X83720Y-27850D03*
G54D29*
X36120Y-28850D03*
G54D30*
X36120Y-27850D03*
X37120Y-28850D03*
X37120Y-27850D03*
X38120Y-28850D03*
X38120Y-27850D03*
X39120Y-28850D03*
X39120Y-27850D03*
X40120Y-28850D03*
X40120Y-27850D03*
G54D31*
X90120Y-42850D03*
X90120Y-24850D03*
X26120Y-42850D03*
X26120Y-24850D03*
G54D32*
X53920Y-28850D03*
G54D30*
X53920Y-27850D03*
X54920Y-28850D03*
X54920Y-27850D03*
X55920Y-28850D03*
X55920Y-27850D03*
X56920Y-28850D03*
X56920Y-27850D03*
X57920Y-28850D03*
X57920Y-27850D03*
X58920Y-28850D03*
X58920Y-27850D03*
X59920Y-28850D03*
X59920Y-27850D03*
X60920Y-28850D03*
X60920Y-27850D03*
X61920Y-28850D03*
X61920Y-27850D03*
X62920Y-28850D03*
X62920Y-27850D03*
X63920Y-28850D03*
X63920Y-27850D03*
X64920Y-28850D03*
X64920Y-27850D03*
X65920Y-28850D03*
X65920Y-27850D03*
G54D32*
X19620Y-26350D03*
G54D30*
X20620Y-26350D03*
X21620Y-26350D03*
X22620Y-26350D03*
M02*
