M48
;DRILL file {Pcbnew (2013-jul-07)-stable} date Thu 13 Aug 2015 05:16:02 PM PDT
;FORMAT={-:-/ absolute / inch / decimal}
FMAT,2
INCH,TZ
T1C0.025
T2C0.035
T3C0.039
T4C0.079
T5C0.120
%
G90
G05
M72
T1
X2.022Y-2.885
X3.742Y-2.615
X3.782Y-2.565
X4.372Y-3.007
X5.412Y-3.221
X5.462Y-2.565
X5.562Y-3.165
X5.572Y-2.525
X5.642Y-2.595
X5.672Y-3.135
X5.742Y-2.64
X5.754Y-3.091
T2
X2.212Y-3.935
X2.312Y-3.935
X3.012Y-3.935
X3.112Y-3.935
X3.812Y-3.935
X3.912Y-3.935
X4.612Y-3.935
X4.712Y-3.935
X5.412Y-3.935
X5.512Y-3.935
X6.212Y-3.935
X6.312Y-3.935
X7.012Y-3.935
X7.112Y-3.935
X7.812Y-3.935
X7.912Y-3.935
X8.612Y-3.935
X8.712Y-3.935
X9.412Y-3.935
X9.512Y-3.935
T3
X1.962Y-2.635
X2.062Y-2.635
X2.162Y-2.635
X2.262Y-2.635
X3.612Y-2.785
X3.612Y-2.885
X3.712Y-2.785
X3.712Y-2.885
X3.812Y-2.785
X3.812Y-2.885
X3.912Y-2.785
X3.912Y-2.885
X4.012Y-2.785
X4.012Y-2.885
X5.392Y-2.785
X5.392Y-2.885
X5.492Y-2.785
X5.492Y-2.885
X5.592Y-2.785
X5.592Y-2.885
X5.692Y-2.785
X5.692Y-2.885
X5.792Y-2.785
X5.792Y-2.885
X5.892Y-2.785
X5.892Y-2.885
X5.992Y-2.785
X5.992Y-2.885
X6.092Y-2.785
X6.092Y-2.885
X6.192Y-2.785
X6.192Y-2.885
X6.292Y-2.785
X6.292Y-2.885
X6.392Y-2.785
X6.392Y-2.885
X6.492Y-2.785
X6.492Y-2.885
X6.592Y-2.785
X6.592Y-2.885
X7.972Y-2.785
X7.972Y-2.885
X8.072Y-2.785
X8.072Y-2.885
X8.172Y-2.785
X8.172Y-2.885
X8.272Y-2.785
X8.272Y-2.885
X8.372Y-2.785
X8.372Y-2.885
T4
X2.012Y-4.135
X2.412Y-3.735
X2.412Y-4.135
X2.812Y-4.135
X3.212Y-3.735
X3.212Y-4.135
X3.612Y-4.135
X4.012Y-3.735
X4.012Y-4.135
X4.412Y-4.135
X4.812Y-3.735
X4.812Y-4.135
X5.212Y-4.135
X5.612Y-3.735
X5.612Y-4.135
X6.012Y-4.135
X6.412Y-3.735
X6.412Y-4.135
X6.812Y-4.135
X7.212Y-3.735
X7.212Y-4.135
X7.612Y-4.135
X8.012Y-3.735
X8.012Y-4.135
X8.412Y-4.135
X8.812Y-3.735
X8.812Y-4.135
X9.212Y-4.135
X9.612Y-3.735
X9.612Y-4.135
T5
X2.612Y-2.485
X2.612Y-4.285
X9.012Y-2.485
X9.012Y-4.285
T0
M30
